<svg id="Group_4904" data-name="Group 4904" xmlns="http://www.w3.org/2000/svg" width="51.692" height="51.692" viewBox="0 0 51.692 51.692">
  <g id="Group_4903" data-name="Group 4903" transform="translate(0 0)">
    <path id="Path_1684" data-name="Path 1684" d="M-288.942-59.465a29.553,29.553,0,0,1-9.272-1.475,3.973,3.973,0,0,0-4.034.854l-5.869,4.432a32.778,32.778,0,0,1-14.588-14.585l4.312-5.73a4.118,4.118,0,0,0,1.01-4.163,29.534,29.534,0,0,1-1.486-9.288A4.086,4.086,0,0,0-322.95-93.5h-9.522a4.086,4.086,0,0,0-4.081,4.081,47.667,47.667,0,0,0,47.611,47.611,4.086,4.086,0,0,0,4.081-4.081v-9.495A4.086,4.086,0,0,0-288.942-59.465Z" transform="translate(336.553 93.5)" fill="#434c83"/>
  </g>
</svg>
