<svg id="Group_4905" data-name="Group 4905" xmlns="http://www.w3.org/2000/svg" width="59.644" height="51.692" viewBox="0 0 59.644 51.692">
  <path id="Path_1685" data-name="Path 1685" d="M15.692,175.148a4.785,4.785,0,0,0-3.51-1.46h-49.7a4.788,4.788,0,0,0-3.51,1.46,4.786,4.786,0,0,0-1.46,3.51v33.8a4.786,4.786,0,0,0,1.46,3.51,4.787,4.787,0,0,0,3.51,1.46h16.9a6.5,6.5,0,0,1-.5,2.423,21.994,21.994,0,0,1-.994,2.174,3.435,3.435,0,0,0-.5,1.366,1.909,1.909,0,0,0,.59,1.4,1.91,1.91,0,0,0,1.4.591H-4.717a1.91,1.91,0,0,0,1.4-.591,1.907,1.907,0,0,0,.591-1.4,3.554,3.554,0,0,0-.5-1.351,22.813,22.813,0,0,1-.994-2.205,6.55,6.55,0,0,1-.5-2.408h16.9a4.985,4.985,0,0,0,4.97-4.97v-33.8A4.784,4.784,0,0,0,15.692,175.148ZM13.176,204.5a1.006,1.006,0,0,1-.994.994h-49.7a.956.956,0,0,1-.7-.295.958.958,0,0,1-.3-.7V178.658a.954.954,0,0,1,.3-.7.957.957,0,0,1,.7-.3h49.7a1.007,1.007,0,0,1,.993.994V204.5Z" transform="translate(42.492 -173.688)" fill="#434c83"/>
</svg>
