<svg xmlns="http://www.w3.org/2000/svg" width="76" height="76" viewBox="0 0 76 76">
  <g id="happy" transform="translate(-1701 -4642)">
    <g id="Group_5800" data-name="Group 5800" transform="translate(1701 4642)">
      <g id="Group_5793" data-name="Group 5793">
        <circle id="Ellipse_132" data-name="Ellipse 132" cx="38" cy="38" r="38" transform="translate(0 0)" fill="rgba(14,153,229,0.56)"/>
        <circle id="Ellipse_131" data-name="Ellipse 131" cx="29" cy="29" r="29" transform="translate(9 9)" fill="rgba(14,153,229,0.56)"/>
      </g>
    </g>
    <g id="happy-2" data-name="happy" transform="translate(1723 4667)">
      <path id="Path_7273" data-name="Path 7273" d="M1.678,5.435,1.346,7.364a.918.918,0,0,0,1.332.967l1.732-.91,1.732.91a.918.918,0,0,0,1.332-.967L7.142,5.435l1.4-1.365a.917.917,0,0,0-.507-1.565L6.1,2.224,5.233.47a.955.955,0,0,0-1.646,0L2.721,2.224.785,2.505A.917.917,0,0,0,.277,4.07Z" transform="translate(0 0)" fill="#fff"/>
      <path id="Path_7274" data-name="Path 7274" d="M188.018,5.435l-.332,1.928a.918.918,0,0,0,1.332.967l1.732-.91,1.732.91a.918.918,0,0,0,1.332-.967l-.332-1.928,1.4-1.365a.917.917,0,0,0-.507-1.565l-1.936-.282L191.573.47a.955.955,0,0,0-1.646,0l-.866,1.753-1.936.282a.917.917,0,0,0-.507,1.565Z" transform="translate(-174.937 0)" fill="#fff"/>
      <path id="Path_7275" data-name="Path 7275" d="M369.539,5.435l-.332,1.928a.918.918,0,0,0,1.332.967l1.732-.91,1.732.91a.918.918,0,0,0,1.332-.967L375,5.435l1.4-1.365a.917.917,0,0,0-.507-1.565l-1.936-.282L373.094.47a.955.955,0,0,0-1.646,0l-.866,1.753-1.936.282a.917.917,0,0,0-.507,1.565Z" transform="translate(-345.349 0)" fill="#fff"/>
      <path id="Path_7276" data-name="Path 7276" d="M186.472,350.672a4.6,4.6,0,0,0,4.5-3.672h-9A4.6,4.6,0,0,0,186.472,350.672Z" transform="translate(-170.838 -325.765)" fill="#fff"/>
      <path id="Path_7277" data-name="Path 7277" d="M100.577,182a10.1,10.1,0,1,0,10.1,10.1A10.109,10.109,0,0,0,100.577,182Zm2.754,4.59a.918.918,0,1,1-.918.918A.918.918,0,0,1,103.331,186.59Zm-5.508,0a.918.918,0,1,1-.918.918A.918.918,0,0,1,97.824,186.59Zm2.754,11.015a6.433,6.433,0,0,1-6.426-6.426.917.917,0,0,1,.918-.918h11.015a.917.917,0,0,1,.918.918A6.433,6.433,0,0,1,100.577,197.605Z" transform="translate(-84.943 -170.863)" fill="#fff"/>
    </g>
  </g>
</svg>
