<svg id="microphone-black-shape" xmlns="http://www.w3.org/2000/svg" width="32.946" height="47.587" viewBox="0 0 32.946 47.587">
  <g id="Group_4939" data-name="Group 4939" transform="translate(0)">
    <path id="Path_1966" data-name="Path 1966" d="M155.33,32.944a9.176,9.176,0,0,0,9.151-9.151V9.152a8.811,8.811,0,0,0-2.688-6.463,9.113,9.113,0,0,0-12.926,0,8.811,8.811,0,0,0-2.688,6.463V23.794a9.177,9.177,0,0,0,9.151,9.151Z" transform="translate(-138.858)" fill="#434c83"/>
    <path id="Path_1967" data-name="Path 1967" d="M105.488,183.268a1.83,1.83,0,0,0-3.117,1.287v3.661a12.8,12.8,0,0,1-21.864,9.051,12.337,12.337,0,0,1-3.76-9.051v-3.661a1.83,1.83,0,0,0-3.661,0v3.661a16.47,16.47,0,0,0,14.642,16.357v3.775H80.408a1.831,1.831,0,0,0,0,3.661h18.3a1.831,1.831,0,0,0,0-3.661H91.39v-3.775a16.472,16.472,0,0,0,14.642-16.357v-3.661A1.758,1.758,0,0,0,105.488,183.268Z" transform="translate(-73.087 -164.421)" fill="#434c83"/>
  </g>
</svg>
