<svg id="Group_4902" data-name="Group 4902" xmlns="http://www.w3.org/2000/svg" width="49.047" height="84.431" viewBox="0 0 49.047 84.431">
  <path id="Path_1683" data-name="Path 1683" d="M-257.9,110.5h-37.642a5.719,5.719,0,0,0-5.7,5.7v73.023a5.72,5.72,0,0,0,5.7,5.705H-257.9a5.717,5.717,0,0,0,5.7-5.7V116.2A5.719,5.719,0,0,0-257.9,110.5Zm-24.842,4.111H-270.7a.69.69,0,0,1,.69.692.69.69,0,0,1-.69.69h-12.042a.69.69,0,0,1-.69-.69A.69.69,0,0,1-282.743,114.611Zm6.021,77.469a2.851,2.851,0,0,1-2.852-2.854,2.849,2.849,0,0,1,2.852-2.851,2.849,2.849,0,0,1,2.851,2.851A2.851,2.851,0,0,1-276.721,192.08Zm20.555-7.7h-41.111V119.544h41.111Z" transform="translate(301.245 -110.5)" fill="#434c83"/>
</svg>
