<svg id="online-shopping" xmlns="http://www.w3.org/2000/svg" width="32.946" height="30.2" viewBox="0 0 32.946 30.2">
  <path id="Path_1977" data-name="Path 1977" d="M28.827,1H4.118A4.123,4.123,0,0,0,0,5.118V27.082A4.123,4.123,0,0,0,4.118,31.2H28.827a4.123,4.123,0,0,0,4.118-4.118V5.118A4.123,4.123,0,0,0,28.827,1Zm0,27.455H4.118a1.374,1.374,0,0,1-1.373-1.373V7.864H30.2V27.082A1.374,1.374,0,0,1,28.827,28.455Z" transform="translate(0 -1)" fill="#434c83"/>
  <path id="Path_1978" data-name="Path 1978" d="M18.6,20.354H8.62a1.372,1.372,0,0,1-1.338-1.068L6.034,13.8a1.372,1.372,0,0,1,1.338-1.677h11.6l.8-3.09a1.372,1.372,0,0,1,2.656.69l-2.5,9.609A1.372,1.372,0,0,1,18.6,20.354Z" transform="translate(2.237 1.61)" fill="#434c83"/>
  <path id="Path_1979" data-name="Path 1979" d="M10.373,20.745a1.373,1.373,0,1,1,1.373-1.373A1.374,1.374,0,0,1,10.373,20.745Z" transform="translate(3.355 5.337)" fill="#434c83"/>
  <path id="Path_1980" data-name="Path 1980" d="M14.373,20.745a1.373,1.373,0,1,1,1.373-1.373A1.374,1.374,0,0,1,14.373,20.745Z" transform="translate(4.846 5.337)" fill="#434c83"/>
</svg>
