<svg id="Group_4940" data-name="Group 4940" xmlns="http://www.w3.org/2000/svg" width="32.356" height="32.355" viewBox="0 0 32.356 32.355">
  <g id="Group_4903" data-name="Group 4903" transform="translate(0 0)">
    <path id="Path_1684" data-name="Path 1684" d="M-306.752-72.2a18.5,18.5,0,0,1-5.8-.923,2.487,2.487,0,0,0-2.525.535l-3.673,2.774a20.517,20.517,0,0,1-9.131-9.129l2.7-3.586a2.577,2.577,0,0,0,.632-2.606,18.486,18.486,0,0,1-.93-5.814,2.557,2.557,0,0,0-2.554-2.554H-334a2.557,2.557,0,0,0-2.554,2.554,29.836,29.836,0,0,0,29.8,29.8A2.558,2.558,0,0,0-304.2-63.7v-5.943A2.558,2.558,0,0,0-306.752-72.2Z" transform="translate(336.553 93.5)" fill="#434c83"/>
  </g>
</svg>
