<svg xmlns="http://www.w3.org/2000/svg" xmlns:xlink="http://www.w3.org/1999/xlink" width="687.294" height="504.375" viewBox="0 0 687.294 504.375">
  <defs>
    <linearGradient id="linear-gradient" x1="0.827" y1="-0.157" x2="1.826" y2="-0.157" gradientUnits="objectBoundingBox">
      <stop offset="0" stop-color="#f2bf40"/>
      <stop offset="0.684" stop-color="#f2bf40"/>
      <stop offset="0.866" stop-color="#f6ba40"/>
      <stop offset="1" stop-color="#ffb340"/>
    </linearGradient>
    <linearGradient id="linear-gradient-2" x1="0.828" y1="-0.157" x2="1.827" y2="-0.157" xlink:href="#linear-gradient"/>
    <linearGradient id="linear-gradient-3" x1="0.828" y1="-0.157" x2="1.828" y2="-0.157" xlink:href="#linear-gradient"/>
    <linearGradient id="linear-gradient-4" x1="0.829" y1="-0.159" x2="1.829" y2="-0.159" xlink:href="#linear-gradient"/>
    <linearGradient id="linear-gradient-5" x1="0.83" y1="-0.162" x2="1.829" y2="-0.162" xlink:href="#linear-gradient"/>
    <linearGradient id="linear-gradient-6" x1="-0.126" y1="0.258" x2="0.874" y2="0.258" xlink:href="#linear-gradient"/>
    <linearGradient id="linear-gradient-7" x1="-0.376" y1="0.146" x2="0.622" y2="0.146" xlink:href="#linear-gradient"/>
  </defs>
  <g id="Group_4918" data-name="Group 4918" transform="translate(-424 -250.731)">
    <path id="Path_1686" data-name="Path 1686" d="M4766.4,320.914c.538,2.411-.972,5-3.815,6.55l-12.348,6.788a67.883,67.883,0,0,1-4.686,26.242l9.239,10.646c2.12,2.434,2.649,5.391,1.31,7.474l-4.159,6.5c-1.32,2.066-4.216,2.834-7.323,1.936l-13.481-3.917a68.441,68.441,0,0,1-21.94,15.35l-.972,13.934c-.229,3.211-1.952,5.676-4.363,6.2l-7.525,1.653c-2.412.538-5-.972-6.549-3.815l-6.706-12.179a68.389,68.389,0,0,1-26.553-4.665l-10.419,9.049c-2.434,2.12-5.408,2.649-7.473,1.31l-6.5-4.159c-2.064-1.321-2.834-4.216-1.936-7.322l3.828-13.158a68.289,68.289,0,0,1-15.569-22.279l-13.626-.957c-3.211-.23-5.676-1.952-6.213-4.363l-1.654-7.527c-.519-2.41.991-4.995,3.834-6.549l11.937-6.572a68.349,68.349,0,0,1,4.787-26.82l-8.928-10.285c-2.121-2.434-2.649-5.409-1.311-7.474l4.159-6.5c1.321-2.066,4.217-2.834,7.323-1.936l13.121,3.827a68.139,68.139,0,0,1,22.311-15.459l.962-13.735c.229-3.211,1.953-5.676,4.363-6.213l7.528-1.653c2.41-.519,4.995.99,6.548,3.833l6.655,12.1a68.366,68.366,0,0,1,26.528,4.809l10.494-9.118c2.434-2.12,5.39-2.65,7.474-1.31l6.5,4.159c2.065,1.321,2.835,4.216,1.936,7.322l-3.916,13.463a68.205,68.205,0,0,1,15.24,21.954l14.043.977c3.211.23,5.676,1.952,6.195,4.362Zm-79.183,40.773a26.771,26.771,0,1,0-31.881-20.418A26.787,26.787,0,0,0,4687.214,361.687Z" transform="translate(-3705.003)" fill="#0e99e5"/>
    <path id="Path_1687" data-name="Path 1687" d="M5630.489,1568.769c.927,1.4.592,3.414-.84,5.091l-6.212,7.31A46.245,46.245,0,0,1,5626.81,1599l8.457,4.536c1.938,1.035,2.99,2.788,2.643,4.438l-1.071,5.141c-.341,1.634-2,2.825-4.19,3.005l-9.526.773a46.618,46.618,0,0,1-10.243,15.08l2.757,9.1c.631,2.1.132,4.084-1.276,5l-4.388,2.875c-1.4.926-3.415.592-5.091-.841l-7.217-6.125a46.56,46.56,0,0,1-18.025,3.463l-4.437,8.281c-1.035,1.939-2.8,3-4.437,2.644l-5.14-1.073c-1.635-.34-2.825-2-3.006-4.19l-.75-9.3a46.5,46.5,0,0,1-15.3-10.4l-8.9,2.691c-2.1.632-4.083.132-5.011-1.271l-2.874-4.389c-.916-1.408-.58-3.417.853-5.1l6-7.072a46.541,46.541,0,0,1-3.449-18.224l-8.172-4.382c-1.939-1.035-3-2.8-2.644-4.438l1.072-5.141c.341-1.634,2-2.825,4.191-3.005l9.275-.743a46.4,46.4,0,0,1,10.451-15.24l-2.714-8.972c-.63-2.1-.131-4.084,1.272-5.01l4.388-2.875c1.408-.914,3.418-.58,5.1.853l7.165,6.09a46.544,46.544,0,0,1,18.044-3.365l4.469-8.343c1.035-1.939,2.789-2.992,4.437-2.644l5.142,1.073c1.634.34,2.825,2,3.005,4.19l.768,9.514a46.432,46.432,0,0,1,15.015,10.278l9.173-2.78c2.1-.632,4.083-.132,5,1.275Zm-40.506,45.12a18.226,18.226,0,1,0-25.23-5.27A18.237,18.237,0,0,0,5589.983,1613.889Z" transform="translate(-4526.681 -1145.394)" fill="#0e99e5"/>
    <g id="Group_4908" data-name="Group 4908" transform="translate(424 407.083)">
      <path id="Rectangle_2229" data-name="Rectangle 2229" d="M10.972,0H60.505A10.972,10.972,0,0,1,71.478,10.972v0A10.972,10.972,0,0,1,60.505,21.945H10.972A10.972,10.972,0,0,1,0,10.972v0A10.972,10.972,0,0,1,10.972,0Z" transform="translate(93.423 21.945) rotate(-180)" fill="#0e99e5"/>
      <path id="Rectangle_2230" data-name="Rectangle 2230" d="M10.972,0H60.505A10.972,10.972,0,0,1,71.478,10.972v0A10.972,10.972,0,0,1,60.505,21.945H10.972A10.972,10.972,0,0,1,0,10.972v0A10.972,10.972,0,0,1,10.972,0Z" transform="translate(116.935 55.803) rotate(-180)" fill="#0e99e5"/>
      <path id="Rectangle_2231" data-name="Rectangle 2231" d="M10.972,0h8.151A10.972,10.972,0,0,1,30.1,10.972v0A10.972,10.972,0,0,1,19.123,21.945H10.972A10.972,10.972,0,0,1,0,10.972v0A10.972,10.972,0,0,1,10.972,0Z" transform="translate(30.096 56.43) rotate(180)" fill="#0e99e5"/>
    </g>
    <path id="Path_1688" data-name="Path 1688" d="M924.05,1421.975a55.745,55.745,0,0,0-98.941-38.962,52.932,52.932,0,0,0-84.524,59.758,46.845,46.845,0,0,0-32.388,78.973,101.343,101.343,0,0,0,21.162,22.447c13.333,10.661,29.669,24.141,47.453,23.241,20.24-1.024,40.945-3.831,60.3-9.973,9.344-2.966,18.533-6.7,26.635-12.223,17.134-11.673,28.114-30.353,36.775-49.189,7.211-15.681,21.493-49.4,23.01-66.594a31.564,31.564,0,0,0,.114-3.7C923.814,1424.508,923.961,1423.251,924.05,1421.975Z" transform="translate(-240.983 -986.972)" fill="#0e99e5"/>
    <path id="Path_1689" data-name="Path 1689" d="M481.248,2389.225c-17.921-39.294,15.8-62.025,20.077-64.142a63.049,63.049,0,0,1,38.983-5.48c-.972-19.326,15.38-36.966,34.383-40.617s39.007,4.906,52.326,18.942c10.622,11.194,17.728,27.41,13.1,42.13-3.024,9.615,7.434,49.984-.19,56.577C609.193,2423.208,507.724,2447.277,481.248,2389.225Z" transform="translate(-46.204 -1800.098)" fill="#036089"/>
    <path id="Path_1690" data-name="Path 1690" d="M2252.27,917.557,2015.5,1202.5h113.62l215-284.945Z" transform="translate(-1413.064 -592.062)" fill="#087caf"/>
    <path id="Path_1691" data-name="Path 1691" d="M3301,929.253a11.7,11.7,0,0,0-11.7-11.7h-45.423l-215,284.945h76.97L3301,931.853Z" transform="translate(-2312.823 -592.061)" fill="#087caf"/>
    <path id="Path_1692" data-name="Path 1692" d="M3715.378,1315.713h183.457a11.7,11.7,0,0,0,11.7-11.7V1045.064Z" transform="translate(-2922.349 -705.272)" fill="#087caf"/>
    <path id="Path_1693" data-name="Path 1693" d="M1730.77,917.557l-153.5,176.468v96.782a11.7,11.7,0,0,0,11.7,11.7h37.439l236.766-284.945Z" transform="translate(-1023.969 -592.061)" fill="#087caf"/>
    <path id="Path_1694" data-name="Path 1694" d="M1588.97,917.557a11.7,11.7,0,0,0-11.7,11.7v164.772l153.5-176.468Z" transform="translate(-1023.969 -592.061)" fill="#087caf"/>
    <path id="Path_1695" data-name="Path 1695" d="M2038.824,1021.871H1681.587v243.722h411.485V1021.871Z" transform="translate(-1116.586 -684.68)" fill="#ceebf2"/>
    <path id="Path_1696" data-name="Path 1696" d="M3060.475,1526.692c-.523-.017-.21.171,0,0Z" transform="translate(-2340.619 -1132.899)" fill="#ff9e73"/>
    <path id="Path_1697" data-name="Path 1697" d="M1432.19,3600.561H863a13.7,13.7,0,0,1-13.7-13.7v-6.792h596.591v6.792A13.7,13.7,0,0,1,1432.19,3600.561Z" transform="translate(-377.614 -2956.054)" fill="#087caf"/>
    <path id="Path_1698" data-name="Path 1698" d="M1445.889,3460.363H849.3l86.667-15.116h425.273Z" transform="translate(-377.614 -2836.347)" fill="#0e99e5"/>
    <rect id="Rectangle_2232" data-name="Rectangle 2232" width="34.264" height="10.078" rx="5.039" transform="translate(578.506 589.081)" fill="#67c9ef"/>
    <rect id="Rectangle_2233" data-name="Rectangle 2233" width="42.998" height="5.375" rx="2.687" transform="translate(916.737 592.774)" fill="#0e99e5"/>
    <circle id="Ellipse_120" data-name="Ellipse 120" cx="26.748" cy="26.748" r="26.748" transform="translate(782.144 371.057) rotate(-45)" fill="#bdbdff"/>
    <path id="Path_1699" data-name="Path 1699" d="M3866.74,1161.823v-.02a4.55,4.55,0,0,0-3.617-4.306c-.411-.116-.833-.189-1.241-.311a16.546,16.546,0,0,1-3.167-1.008c-2.58-1.4-2.741-2.348-1.291-4.5a8.077,8.077,0,0,0,2.882-6.295c0-4.3-3.133-7.785-7-7.785s-7,3.486-7,7.785a8.031,8.031,0,0,0,3.152,6.5,8.966,8.966,0,0,1,.676,1.311,1.474,1.474,0,0,1-.343,1.7,5.938,5.938,0,0,1-2.735,1.721c-1.114.32-2.244.589-3.371.865a4.591,4.591,0,0,0-3.66,4.275,1.869,1.869,0,0,0,1.857,2.056h22.994A1.851,1.851,0,0,0,3866.74,1161.823Z" transform="translate(-3033.015 -787.433)" fill="#fff"/>
    <rect id="Rectangle_2234" data-name="Rectangle 2234" width="26.242" height="2.274" transform="translate(807.346 379.12)" fill="#fff"/>
    <rect id="Rectangle_2235" data-name="Rectangle 2235" width="13.383" height="2.274" transform="translate(807.346 383.669)" fill="#fff"/>
    <rect id="Rectangle_2236" data-name="Rectangle 2236" width="21.781" height="2.274" transform="translate(807.346 388.218)" fill="#fff"/>
    <path id="Path_1700" data-name="Path 1700" d="M1681.587,1502.045v92.4h61.974l91.19-109.746c-20.016-30.25-41.064-60.007-57.657-92.45Z" transform="translate(-1116.586 -1013.527)" fill="#fff" opacity="0.28"/>
    <path id="Path_1701" data-name="Path 1701" d="M3097.141,595.248H2994.632v-41h68.756c19.542-.046,33.753,15.112,33.753,33.753Z" transform="translate(-2282.413 -269.483)" fill="#036089"/>
    <path id="Rectangle_2237" data-name="Rectangle 2237" d="M80.417,0h75.625a0,0,0,0,1,0,0V145.221a78.021,78.021,0,0,1-78.021,78.021h0A78.021,78.021,0,0,1,0,145.221v-64.8A80.417,80.417,0,0,1,80.417,0Z" transform="translate(599.454 284.761)" fill="#0e99e5"/>
    <path id="Path_1702" data-name="Path 1702" d="M3405.583,554.325h-25.912v25.912A25.912,25.912,0,0,1,3405.583,554.325Z" transform="translate(-2624.281 -269.555)" fill="#0e99e5"/>
    <rect id="Rectangle_2238" data-name="Rectangle 2238" width="116.177" height="6.264" transform="translate(618.283 365.72)" fill="#fff"/>
    <rect id="Rectangle_2239" data-name="Rectangle 2239" width="47.126" height="6.264" transform="translate(618.283 383.375)" fill="#fff"/>
    <rect id="Rectangle_2240" data-name="Rectangle 2240" width="58.231" height="6.264" transform="translate(676.23 383.375)" fill="#fff"/>
    <rect id="Rectangle_2241" data-name="Rectangle 2241" width="116.177" height="6.264" transform="translate(618.283 401.029)" fill="#fff"/>
    <rect id="Rectangle_2242" data-name="Rectangle 2242" width="27.905" height="6.264" transform="translate(706.555 418.683)" fill="#fff"/>
    <rect id="Rectangle_2243" data-name="Rectangle 2243" width="77.024" height="6.264" transform="translate(618.568 418.683)" fill="#fff"/>
    <rect id="Rectangle_2244" data-name="Rectangle 2244" width="116.177" height="6.264" transform="translate(618.283 436.338)" fill="#fff"/>
    <rect id="Rectangle_2245" data-name="Rectangle 2245" width="31.892" height="6.264" transform="translate(618.283 453.992)" fill="#fff"/>
    <rect id="Rectangle_2246" data-name="Rectangle 2246" width="71.045" height="6.264" transform="translate(663.131 453.992)" fill="#fff"/>
    <path id="Path_1703" data-name="Path 1703" d="M3915.269,1656l-144.146-.057a6.057,6.057,0,0,0-6.06,6.055l-.005,13.114,156.262-.574.005-12.479A6.058,6.058,0,0,0,3915.269,1656Z" transform="translate(-2966.458 -1247.664)" fill="#bdbdff"/>
    <path id="Path_1704" data-name="Path 1704" d="M3921.27,1821.8l-156.262.574L3765,1838.3l156.262.061Z" transform="translate(-2966.409 -1394.923)" fill="#52382f"/>
    <path id="Path_1705" data-name="Path 1705" d="M3764.84,1968.95l-.021,52.436a6.058,6.058,0,0,0,6.056,6.06l144.145.057a6.059,6.059,0,0,0,6.061-6.055l.02-52.436Z" transform="translate(-2966.246 -1525.572)" fill="#bdbdff"/>
    <rect id="Rectangle_2247" data-name="Rectangle 2247" width="58.494" height="4.178" transform="translate(810.28 471.805)" fill="#f3feff"/>
    <rect id="Rectangle_2248" data-name="Rectangle 2248" width="58.494" height="4.178" transform="translate(883.815 471.834)" fill="#f3feff"/>
    <rect id="Rectangle_2249" data-name="Rectangle 2249" width="58.494" height="4.178" transform="translate(810.275 483.504)" fill="#f3feff"/>
    <rect id="Rectangle_2250" data-name="Rectangle 2250" width="58.494" height="4.178" transform="translate(883.81 483.533)" fill="#f3feff"/>
    <g id="Group_4909" data-name="Group 4909" transform="translate(829.716 515.041)">
      <path id="Path_1706" data-name="Path 1706" d="M4060.657,2608.117a18.117,18.117,0,0,0-18.064,18.064v11.287a18.123,18.123,0,0,0,16.083,17.948l54.808-47.3Z" transform="translate(-4042.593 -2608.117)" fill="#087caf"/>
      <path id="Path_1707" data-name="Path 1707" d="M4251.233,2608.117h-10.393l-54.808,47.3a17.956,17.956,0,0,0,1.982.115h63.219a18.116,18.116,0,0,0,18.063-18.064v-11.287A18.116,18.116,0,0,0,4251.233,2608.117Z" transform="translate(-4169.95 -2608.117)" fill="#087caf"/>
    </g>
    <g id="Group_4910" data-name="Group 4910" transform="translate(847.155 524.898)">
      <path id="Path_1708" data-name="Path 1708" d="M4198.125,2724.365V2696.03h10.21a19.129,19.129,0,0,1,5.319.541,7.014,7.014,0,0,1,3.742,2.726,8.3,8.3,0,0,1,1.4,4.89,8.735,8.735,0,0,1-2.277,6.243q-2.278,2.416-7.867,2.416h-6.942v11.519Zm3.584-14.863h7.009a7.483,7.483,0,0,0,4.847-1.285,4.775,4.775,0,0,0,1.532-3.875,5.3,5.3,0,0,0-.755-2.88,4,4,0,0,0-1.825-1.643,11.4,11.4,0,0,0-3.866-.445h-6.942Z" transform="translate(-4198.125 -2696.03)" fill="#fff"/>
      <path id="Path_1709" data-name="Path 1709" d="M4372.217,2724.365l10.45-28.334h3.833l11.1,28.334h-4.1l-3.152-8.582h-11.4l-2.945,8.582Zm7.773-11.635h9.23l-2.816-7.847q-1.307-3.614-1.916-5.875a36.679,36.679,0,0,1-1.484,5.412Z" transform="translate(-4352.698 -2696.03)" fill="#fff"/>
      <path id="Path_1710" data-name="Path 1710" d="M4584.485,2724.365v-12l-10.436-16.332h4.38l5.32,8.552q1.579,2.535,2.774,4.8,1.2-2.225,2.959-5.011l5.262-8.339h4.144l-10.819,16.332v12Z" transform="translate(-4531.9 -2696.03)" fill="#fff"/>
    </g>
    <rect id="Rectangle_2251" data-name="Rectangle 2251" width="78.583" height="4.237" transform="translate(856.682 377.473)" fill="#fff"/>
    <rect id="Rectangle_2252" data-name="Rectangle 2252" width="31.876" height="4.237" transform="translate(856.682 389.414)" fill="#fff"/>
    <rect id="Rectangle_2253" data-name="Rectangle 2253" width="39.388" height="4.237" transform="translate(895.877 389.414)" fill="#fff"/>
    <path id="Path_1711" data-name="Path 1711" d="M3465.745,1021.871H3411.5l-183.9,243.722h75.981l162.166-224.9Z" transform="translate(-2489.259 -684.68)" fill="#fff" opacity="0.28"/>
    <g id="Group_4914" data-name="Group 4914" transform="translate(518.027 543.53)">
      <path id="Path_1712" data-name="Path 1712" d="M1489.508,3381.966l-50.677.273-29.98.162s.045,10.55.047,10.83c.012,2.476,12.748,4.5,30.013,5.014,3.305.1,6.774.144,10.353.126,22.279-.111,40.328-2.593,40.313-5.543C1489.575,3392.549,1489.508,3381.966,1489.508,3381.966Z" transform="translate(-1392.456 -3323.691)" fill="url(#linear-gradient)"/>
      <ellipse id="Ellipse_121" data-name="Ellipse 121" cx="40.34" cy="5.343" rx="40.34" ry="5.343" transform="matrix(1, -0.005, 0.005, 1, 16.391, 53.424)" fill="#ffd65a"/>
      <path id="Path_1713" data-name="Path 1713" d="M1876.256,3437.146c15.121-.727,23.278-2.429,25.685-3.59-.006-1.129-.016-2.709-.024-4.247-3.894,1.5-11.36,2.811-25.683,3.477Z" transform="translate(-1807.438 -3365.727)" fill="#ffd685"/>
      <path id="Path_1714" data-name="Path 1714" d="M1488.942,3268.309l-50.677.274-29.979.162s.045,10.55.047,10.83c.012,2.477,12.748,4.5,30.013,5.015,3.305.1,6.774.145,10.353.126,22.279-.111,40.328-2.593,40.313-5.543C1489.009,3278.893,1488.942,3268.309,1488.942,3268.309Z" transform="translate(-1391.954 -3222.777)" fill="url(#linear-gradient-2)"/>
      <ellipse id="Ellipse_122" data-name="Ellipse 122" cx="40.34" cy="5.343" rx="40.34" ry="5.343" transform="translate(16.327 40.68) rotate(-0.286)" fill="#ffd65a"/>
      <path id="Path_1715" data-name="Path 1715" d="M1875.689,3323.489c15.121-.728,23.278-2.429,25.685-3.59-.006-1.129-.016-2.71-.024-4.247-3.894,1.5-11.361,2.811-25.683,3.476Z" transform="translate(-1806.934 -3264.812)" fill="#ffd685"/>
      <g id="Group_4911" data-name="Group 4911" transform="translate(16.264 27.535)">
        <path id="Path_1716" data-name="Path 1716" d="M1488.375,3154.651l-50.677.273-29.98.162s.045,10.55.047,10.83c.012,2.477,12.748,4.5,30.013,5.015,3.305.1,6.774.145,10.354.126,22.279-.111,40.328-2.593,40.313-5.543C1488.442,3165.234,1488.375,3154.651,1488.375,3154.651Z" transform="translate(-1407.714 -3149.397)" fill="url(#linear-gradient-3)"/>
        <ellipse id="Ellipse_123" data-name="Ellipse 123" cx="40.34" cy="5.343" rx="40.34" ry="5.343" transform="translate(0 0.402) rotate(-0.286)" fill="#ffd65a"/>
        <path id="Path_1717" data-name="Path 1717" d="M1875.134,3211.9c15.121-.728,23.278-2.429,25.685-3.59-.006-1.129-.016-2.71-.024-4.247-3.894,1.5-11.36,2.811-25.683,3.476Z" transform="translate(-1822.704 -3193.269)" fill="#ffd685"/>
      </g>
      <g id="Group_4912" data-name="Group 4912" transform="translate(8.088 12.911)">
        <path id="Path_1718" data-name="Path 1718" d="M1415.456,3024.222l-50.677.274-29.98.161s.045,10.55.047,10.83c.012,2.476,12.748,4.5,30.013,5.014,3.305.1,6.774.145,10.354.127,22.279-.111,40.328-2.592,40.313-5.543C1415.523,3034.805,1415.456,3024.222,1415.456,3024.222Z" transform="translate(-1334.795 -3018.968)" fill="url(#linear-gradient-4)"/>
        <ellipse id="Ellipse_124" data-name="Ellipse 124" cx="40.34" cy="5.343" rx="40.34" ry="5.343" transform="translate(0 0.402) rotate(-0.286)" fill="#ffd65a"/>
        <path id="Path_1719" data-name="Path 1719" d="M1802.214,3081.469c15.121-.728,23.278-2.429,25.685-3.59-.006-1.129-.016-2.71-.024-4.247-3.894,1.5-11.361,2.811-25.683,3.476Z" transform="translate(-1749.784 -3062.839)" fill="#ffd685"/>
      </g>
      <g id="Group_4913" data-name="Group 4913" transform="translate(0 0)">
        <path id="Path_1720" data-name="Path 1720" d="M1343.32,2909.066l-50.677.274-29.979.162s.045,10.55.047,10.83c.012,2.477,12.748,4.5,30.013,5.014,3.305.1,6.774.145,10.353.127,22.279-.111,40.328-2.593,40.313-5.544C1343.387,2919.649,1343.32,2909.066,1343.32,2909.066Z" transform="translate(-1262.659 -2903.812)" fill="url(#linear-gradient-5)"/>
        <ellipse id="Ellipse_125" data-name="Ellipse 125" cx="40.34" cy="5.343" rx="40.34" ry="5.343" transform="matrix(1, -0.005, 0.005, 1, 0, 0.402)" fill="#ffd65a"/>
        <path id="Path_1721" data-name="Path 1721" d="M1343.545,2909.859a1.4,1.4,0,0,1-.745.986,6.461,6.461,0,0,1-1.146.571,18.921,18.921,0,0,1-2.458.754c-1.669.408-3.366.7-5.068.939-3.4.506-6.831.832-10.263,1.083q-10.3.746-20.636.748-10.328.093-20.642-.544c-3.435-.216-6.866-.507-10.273-.979-1.7-.226-3.4-.5-5.077-.889a18.89,18.89,0,0,1-2.466-.729,6.449,6.449,0,0,1-1.151-.56,1.391,1.391,0,0,1-.754-.978,1.423,1.423,0,0,0,.715,1.035,6.541,6.541,0,0,0,1.138.632,18.652,18.652,0,0,0,2.458.838c1.668.461,3.366.8,5.069,1.1,3.411.567,6.849.937,10.289,1.241,6.885.58,13.795.749,20.7.759,6.9-.082,13.812-.316,20.691-.967,3.437-.338,6.87-.742,10.276-1.343,1.7-.313,3.393-.672,5.058-1.15a18.635,18.635,0,0,0,2.45-.862,6.536,6.536,0,0,0,1.131-.642A1.424,1.424,0,0,0,1343.545,2909.859Z" transform="translate(-1262.839 -2904.516)" fill="#ffedca"/>
        <path id="Path_1722" data-name="Path 1722" d="M1730.311,2964.245c15.121-.728,23.278-2.429,25.685-3.59-.006-1.129-.016-2.71-.024-4.247-3.894,1.5-11.36,2.812-25.683,3.477Z" transform="translate(-1677.855 -2945.846)" fill="#ffd685"/>
      </g>
    </g>
    <g id="Group_4917" data-name="Group 4917" transform="translate(593.831 545.531)">
      <circle id="Ellipse_126" data-name="Ellipse 126" cx="36.031" cy="36.031" r="36.031" transform="translate(0)" fill="url(#linear-gradient-6)"/>
      <circle id="Ellipse_127" data-name="Ellipse 127" cx="33.766" cy="33.766" r="33.766" transform="translate(2.265 2.265)" fill="#ffd65a"/>
      <g id="Group_4915" data-name="Group 4915" transform="translate(24.576 12.95)">
        <path id="Path_1723" data-name="Path 1723" d="M2169.443,3043.379l-.1-3.29a17.23,17.23,0,0,1-5.733-1.395,9.914,9.914,0,0,1-3.893-3.524,11.658,11.658,0,0,1-1.59-3.573,2.456,2.456,0,0,1,1.853-3.015h0a2.438,2.438,0,0,1,2.863,1.677,9.083,9.083,0,0,0,1.582,3.264,6.8,6.8,0,0,0,4.8,2.629l-.451-14.843a19.483,19.483,0,0,1-5.948-2.049,8.62,8.62,0,0,1-3.537-3.341,10.979,10.979,0,0,1,1.922-13.126q2.295-2.144,6.917-2.751l-.093-3.065a1.373,1.373,0,0,1,1.331-1.415h0a1.373,1.373,0,0,1,1.414,1.331l.094,3.065a11.517,11.517,0,0,1,6.522,2.187,9.943,9.943,0,0,1,3.038,3.936,2.438,2.438,0,0,1-1.77,3.4h0a2.4,2.4,0,0,1-2.681-1.508,6.492,6.492,0,0,0-1.343-2.254,6.356,6.356,0,0,0-3.646-1.821l.409,13.444a37.04,37.04,0,0,1,4.7,1.231,11.521,11.521,0,0,1,3.62,2.224,9.39,9.39,0,0,1,2.21,3.2,12,12,0,0,1-1.975,12.246,11.313,11.313,0,0,1-7.873,3.713l.1,3.342a1.374,1.374,0,0,1-1.331,1.415h0A1.374,1.374,0,0,1,2169.443,3043.379Zm-1.2-39.451a6.915,6.915,0,0,0-4.221,2.306,6.476,6.476,0,0,0,.015,8.167,9.2,9.2,0,0,0,4.6,2.427Zm3.725,32.14a6.914,6.914,0,0,0,4.423-2.493,7.31,7.31,0,0,0,1.623-5.053,6.259,6.259,0,0,0-1.38-4.042q-1.3-1.5-5.1-2.607Z" transform="translate(-2157.926 -2995.562)" fill="url(#linear-gradient-7)"/>
      </g>
      <g id="Group_4916" data-name="Group 4916" transform="translate(24.501 10.48)">
        <path id="Path_1724" data-name="Path 1724" d="M2168.775,3021.354l-.1-3.29a17.2,17.2,0,0,1-5.733-1.395,9.914,9.914,0,0,1-3.893-3.525,11.632,11.632,0,0,1-1.59-3.572,2.456,2.456,0,0,1,1.853-3.016h0a2.438,2.438,0,0,1,2.863,1.678,9.1,9.1,0,0,0,1.582,3.264,6.8,6.8,0,0,0,4.8,2.629l-.451-14.843a19.47,19.47,0,0,1-5.948-2.049,8.62,8.62,0,0,1-3.537-3.341,10.98,10.98,0,0,1,1.922-13.126q2.294-2.144,6.917-2.751l-.094-3.065a1.375,1.375,0,0,1,1.331-1.415h0a1.374,1.374,0,0,1,1.415,1.331l.093,3.066a11.519,11.519,0,0,1,6.523,2.187,9.953,9.953,0,0,1,3.037,3.936,2.439,2.439,0,0,1-1.77,3.4h0a2.4,2.4,0,0,1-2.681-1.508,6.492,6.492,0,0,0-1.343-2.254,6.36,6.36,0,0,0-3.646-1.821l.408,13.444a37.023,37.023,0,0,1,4.7,1.231,11.524,11.524,0,0,1,3.62,2.224,9.377,9.377,0,0,1,2.21,3.2,12,12,0,0,1-1.974,12.246,11.315,11.315,0,0,1-7.873,3.713l.1,3.342a1.374,1.374,0,0,1-1.331,1.415h0A1.373,1.373,0,0,1,2168.775,3021.354Zm-1.2-39.451a6.915,6.915,0,0,0-4.221,2.306,6.476,6.476,0,0,0,.015,8.167,9.2,9.2,0,0,0,4.6,2.427Zm3.725,32.141a6.917,6.917,0,0,0,4.423-2.493,7.31,7.31,0,0,0,1.623-5.053,6.263,6.263,0,0,0-1.38-4.042q-1.3-1.5-5.1-2.607Z" transform="translate(-2157.257 -2973.536)" fill="#ffedc0"/>
      </g>
    </g>
    <path id="Path_1725" data-name="Path 1725" d="M3254.682,2768.25l-113.7,26.809,40.19,22.338-39.554,43.664,16.12,14.6,42.954-47.417,7.489-8.267,46.441-51.266Z" transform="translate(-2412.353 -2235.255)" fill="#eef"/>
    <path id="Path_1726" data-name="Path 1726" d="M3372.077,2887.712l15.414-115.325-53.929,59.532.018.026-42.949,47.412,16.12,14.6,39.522-43.628Z" transform="translate(-2545.225 -2238.928)" fill="#bdbdff"/>
    <path id="Path_1727" data-name="Path 1727" d="M2876.831,2633.377a3.7,3.7,0,0,1-.494-1.114,110.911,110.911,0,0,1-4.017-16.7c-.618-3.63,0-5.262.927-6.565,2.148-3.021,6.36-5.564,7.53-5.677,1.724-.166-1.291,5.558-.155,6.8,1.066,1.163.061,3.608.247,5.151q.466,3.855.932,7.71a24.008,24.008,0,0,1,.222,5.949C2881.783,2630.787,2879.449,2636.916,2876.831,2633.377Z" transform="translate(-2173.593 -2088.812)" fill="#52382f"/>
    <path id="Path_1728" data-name="Path 1728" d="M2884.273,2846.273l14.073,7.264,4.832-21.438-12.352-4.1Z" transform="translate(-2184.427 -2288.305)" fill="#ea8a63"/>
    <path id="Path_1729" data-name="Path 1729" d="M2915.2,2784a3.016,3.016,0,1,0,2.207-3.65A3.016,3.016,0,0,0,2915.2,2784Z" transform="translate(-2211.809 -2245.925)" fill="#ff9e73"/>
    <path id="Path_1730" data-name="Path 1730" d="M2969.045,4052.508c-.042.847,5.552,15.774,5.5,17.543-.656,22.25-1.169,16.794-.338,31.581.584,10.4,2.434,15.585,4.281,21.448.367,1.167.506,1.5,1.489,1.521l3.829.1a4.486,4.486,0,0,1,1.02.157c.719.18,1,.292.912-1.088-.3-4.954,7.01-44.636,9.188-52.34,1.129-3.995,1.237-4.225.052-9.665C2989.236,4063.417,2974.679,4051.822,2969.045,4052.508Z" transform="translate(-2259.695 -3375.497)" fill="#333c72"/>
    <path id="Path_1731" data-name="Path 1731" d="M2931.326,3544.859c-7.654-12.238-11.176,4.663-12.322,6.179-10.823,14.31,5.783,36.771,3.966,52.5,7.89,1.5,16.888,4.444,24.786,6.493C2944.708,3593.192,2934.987,3550.712,2931.326,3544.859Z" transform="translate(-2211.988 -2920.867)" fill="#333c72"/>
    <path id="Path_1732" data-name="Path 1732" d="M2520.857,4060.349c-1.325,3.18-4.17,5.407-5.272,8.06-1.345,3.237-6.787,4.858-13.9,10.275-9.43,7.186-26.617,33.479-26.617,33.479l4.216,4.645,44.988-32.875c3.385-2.106,8.15-5.956,10.544-9.787.225-.36.783-1.722,1-2.073C2531.045,4067.605,2525.849,4064.317,2520.857,4060.349Z" transform="translate(-1821.106 -3382.484)" fill="#4d5492"/>
    <path id="Path_1733" data-name="Path 1733" d="M2872.448,3516.227a3.567,3.567,0,0,1,.43-.021C2871.668,3513.728,2871.893,3514.631,2872.448,3516.227Z" transform="translate(-2173.529 -2897.986)" fill="#708380"/>
    <path id="Path_1734" data-name="Path 1734" d="M2791.143,3569.343c1.607-12.221,3.7-35.046,4.873-48.755-2.98-1.482-1.407-1.926-8.189-2.1-1.837-.047-5.261-5.271-8.838-5.826,0,0,.291-2.7.553-4.506-3.764-1.683-12.184,2.144-17.372,9.087-2.7,3.607-2.214,14.262-.86,21.617.941,5.111,3.813,14.651,5.731,22.385,1.12,4.516,2.831,13.508,1.536,16.668,6.62,3.009,13.263,2.671,20.513,3.559C2789.9,3577.783,2790.569,3573.708,2791.143,3569.343Z" transform="translate(-2074.282 -2891.853)" fill="#4d5492"/>
    <path id="Path_1735" data-name="Path 1735" d="M2469.448,4511.214c.9,1.235,2.2,2.378,3.224,3.621a31.687,31.687,0,0,0,6.136,5.786,2.994,2.994,0,0,1,.645,3.36c-.143.4-.274.769-.364,1.048-8.011-2.966-22.424-7.379-22.684-7.737-.7-.958,1.3-5.068,2.891-7.061a11.672,11.672,0,0,0,3.709,1.212A14.557,14.557,0,0,0,2469.448,4511.214Z" transform="translate(-1804.405 -3781.924)"/>
    <path id="Path_1736" data-name="Path 1736" d="M3057.632,4656.932c1.136.766,3.986,2.459,5.224,3.2a28.678,28.678,0,0,0,6.931,3.027,2.65,2.65,0,0,1,1.551,2.619c0,.377,0,.724,0,.984-7.677-.115-20.711.71-21.039.487-.877-.6-.618-3.838-.107-7.188a9.817,9.817,0,0,0,3.451.089A5.607,5.607,0,0,0,3057.632,4656.932Z" transform="translate(-2331.331 -3912.178)"/>
    <path id="Path_1737" data-name="Path 1737" d="M2784.223,2932.406a19.684,19.684,0,0,1-11.154-6.016c-.124-.13-1.445-2.206-1.867-2.186a13.9,13.9,0,0,0-5.25,2.323,18.284,18.284,0,0,0-5.73,6.185c-3.93,5.956-8.782,15.872-5.332,39.6-.369,11.448-1.753,26.565.01,31.814h0a12.483,12.483,0,0,1,4.186-.843l31.154-.824c.056-.011-2.647-19.6-2.067-19.25-.419-9.193-.472-16.64-.915-20.5C2787.025,2960.68,2785.078,2932.5,2784.223,2932.406Z" transform="translate(-2068.505 -2373.722)" fill="#ff6e3b"/>
    <path id="Path_1738" data-name="Path 1738" d="M2938.261,2675.75c1.827,8.532,7.551,14.6,13.029,13.495s8.524-8.929,6.8-17.484-1.9-10.987-7.858-10.834C2942.466,2661.126,2935.549,2663.078,2938.261,2675.75Z" transform="translate(-2231.83 -2139.959)" fill="#ff9e73"/>
    <path id="Path_1739" data-name="Path 1739" d="M2902.017,2913.385c-1.1-1.7-6.386-5.575-7.689-6.447a50.432,50.432,0,0,0-4.893-2.918,24.759,24.759,0,0,0-3.43-1.44,1.148,1.148,0,0,1-.606-.333.708.708,0,0,1,.045-.7c.651-1.484.776-1.673,1.427-3.157.312-.711,5.834.93,6.58,1.183a29.79,29.79,0,0,1,7.42,3.523C2905.434,2906.385,2903.588,2909.391,2902.017,2913.385Z" transform="translate(-2185.358 -2350.647)" fill="#ffe4dc"/>
    <path id="Path_1740" data-name="Path 1740" d="M2918.465,2650.525l1.8,2.6c.209.3.469.631.834.648.762.034,2.068-.378,1.978-1.135-.3-2.507-.309-5.64,1.032-7.779a10.209,10.209,0,0,1,5.427-3.559c1.609-.433,5.385-.835,6.979-1.317,1.112-.336.069-.638,1-1.332,3.427-2.551-10.288-6.492-13.1-5.285a14.258,14.258,0,0,0-5.708,3.808C2915.822,2640.767,2915.838,2646.738,2918.465,2650.525Z" transform="translate(-2213.057 -2115.294)" fill="#52382f"/>
    <path id="Path_1741" data-name="Path 1741" d="M2937.255,2591.641a4.749,4.749,0,0,0,.865-5.485,3.863,3.863,0,0,0-5.132-1.474,5.352,5.352,0,0,0-9.628-2.017,8.881,8.881,0,0,0-8.923,2.351,2.386,2.386,0,0,0-.814,2.229,2.5,2.5,0,0,0,.63.91,17.672,17.672,0,0,0,11.271,5.234c2.007.158,3.961-.325,5.945-.2C2933.608,2593.331,2935.632,2593.3,2937.255,2591.641Z" transform="translate(-2210.424 -2068.461)" fill="#52382f"/>
    <path id="Path_1742" data-name="Path 1742" d="M2868.754,3144.247c2.235,3.19,6.053,8.765,13.9,25.155,8.682,1.49,23.951,7.471,30.952,11.57.521.3.435.08.794.565.854,1.153-1.87,2.1-1.9,3.531-2.968-.631-11.228-1.937-16.3-3.07-8.863-1.979-23.946-3.331-26.366-9.138.069-.068-14.743-19.357-17.639-32.07C2856.753,3143.031,2866,3140.3,2868.754,3144.247Z" transform="translate(-2155.949 -2566.027)" fill="#ff9e73"/>
    <path id="Path_1743" data-name="Path 1743" d="M2825.013,3061.83a1.719,1.719,0,0,0,.961-.879,2.85,2.85,0,0,0-.281-1.9c-1.624-4.1-3.63-8.632-7.136-10.219a11.387,11.387,0,0,0-4.432-.757c-3.408-.115-7.22-.039-9.363,2.888a11.875,11.875,0,0,0-1.774,4.744c-.514,2.656-1.086,6.285-.511,9.117.388,1.908.538,1.7,2.232,1.724a41.839,41.839,0,0,0,4.3-.181A44.761,44.761,0,0,0,2825.013,3061.83Z" transform="translate(-2111.589 -2483.68)" fill="#ff6e3b"/>
    <path id="Path_1744" data-name="Path 1744" d="M3361.6,3491.414a5.4,5.4,0,0,1,2.761,3.016,1.712,1.712,0,0,1,.032,1.42,2.3,2.3,0,0,1-1.981.818,10.614,10.614,0,0,1-2.545-.4l-5.588-1.357a1.917,1.917,0,0,1-.784-.318,1.086,1.086,0,0,1-.273-.4C3351.424,3490.317,3357.943,3489.676,3361.6,3491.414Z" transform="translate(-2600.527 -2876.526)" fill="#ff9f73"/>
  </g>
</svg>
