<svg id="Group_5791" data-name="Group 5791" xmlns="http://www.w3.org/2000/svg" width="372.947" height="635.365" viewBox="0 0 372.947 635.365">
  <g id="Background_Complete" data-name="Background Complete" transform="translate(182.03 0)">
    <g id="Group_4976" data-name="Group 4976" transform="translate(0)">
      <g id="Group_4966" data-name="Group 4966" transform="translate(90.568)">
        <g id="Group_4965" data-name="Group 4965">
          <g id="Group_4964" data-name="Group 4964">
            <path id="Path_1983" data-name="Path 1983" d="M349.328,73.812A40.985,40.985,0,0,0,347.9,84.626l-8.951,4.707,4.326,16.162,10.1-.391a40.97,40.97,0,0,0,6.635,8.657l-3,9.654,14.486,8.369,6.865-7.417a40.94,40.94,0,0,0,10.815,1.422l4.707,8.95,16.162-4.323-.391-10.1a41.062,41.062,0,0,0,8.657-6.635l9.654,3,8.371-14.487-7.419-6.865a40.985,40.985,0,0,0,1.422-10.815L439.3,79.8l-4.326-16.162-10.1.391a41.053,41.053,0,0,0-6.634-8.657l3-9.654-14.487-8.369-6.865,7.419a40.934,40.934,0,0,0-10.815-1.424l-4.708-8.95L368.2,38.719l.391,10.1a41.053,41.053,0,0,0-8.657,6.634l-9.654-3-8.371,14.487,7.42,6.866Zm23.88,2.434a17.947,17.947,0,1,1,6.56,24.52A17.946,17.946,0,0,1,373.208,76.246Z" transform="translate(-338.953 -34.394)" fill="#434c83" fill-rule="evenodd"/>
          </g>
        </g>
      </g>
      <g id="Group_4969" data-name="Group 4969" transform="translate(0 45.262)">
        <g id="Group_4968" data-name="Group 4968">
          <g id="Group_4967" data-name="Group 4967">
            <path id="Path_1984" data-name="Path 1984" d="M421.83,95.951a32.5,32.5,0,0,0-1.128,8.568l-7.09,3.729,3.427,12.8,8.005-.309A32.47,32.47,0,0,0,430.3,127.6l-2.376,7.648L439.4,141.88,444.839,136a32.44,32.44,0,0,0,8.568,1.127l3.729,7.09,12.8-3.425-.309-8.007a32.468,32.468,0,0,0,6.859-5.256l7.648,2.376,6.631-11.476-5.877-5.44a32.421,32.421,0,0,0,1.127-8.566l7.092-3.729-3.427-12.8-8.007.309a32.46,32.46,0,0,0-5.256-6.857L478.8,73.7,467.32,67.065l-5.438,5.877a32.442,32.442,0,0,0-8.568-1.128l-3.731-7.09-12.8,3.426.309,8.007a32.45,32.45,0,0,0-6.857,5.255l-7.648-2.376-6.631,11.476,5.877,5.44Zm18.917,1.93a14.219,14.219,0,1,1,5.2,19.425A14.218,14.218,0,0,1,440.747,97.881Z" transform="translate(-413.611 -64.723)" fill="#0e99e5" fill-rule="evenodd"/>
          </g>
        </g>
      </g>
      <g id="Group_4972" data-name="Group 4972" transform="translate(19.293 146.395)">
        <g id="Group_4971" data-name="Group 4971">
          <g id="Group_4970" data-name="Group 4970">
            <path id="Path_1985" data-name="Path 1985" d="M433.342,146.777a14.844,14.844,0,0,0-.516,3.919l-3.244,1.707,1.568,5.858,3.662-.142a14.82,14.82,0,0,0,2.4,3.138l-1.086,3.5,5.252,3.034,2.488-2.689a14.839,14.839,0,0,0,3.92.516l1.706,3.243,5.858-1.567-.142-3.662a14.877,14.877,0,0,0,3.138-2.406l3.5,1.088,3.034-5.252-2.689-2.488a14.848,14.848,0,0,0,.516-3.92l3.243-1.706-1.567-5.859-3.664.142a14.9,14.9,0,0,0-2.4-3.138l1.088-3.5-5.252-3.034-2.488,2.689a14.847,14.847,0,0,0-3.92-.516l-1.706-3.244-5.859,1.568.142,3.662a14.849,14.849,0,0,0-3.137,2.4l-3.5-1.086-3.034,5.25,2.689,2.489Zm8.656.882a6.505,6.505,0,1,1,2.377,8.889A6.5,6.5,0,0,1,442,147.659Z" transform="translate(-429.581 -132.489)" fill="#434c83" fill-rule="evenodd"/>
          </g>
        </g>
      </g>
      <g id="Group_4975" data-name="Group 4975" transform="translate(76.802 115.17)">
        <g id="Group_4974" data-name="Group 4974">
          <g id="Group_4973" data-name="Group 4973">
            <path id="Path_1986" data-name="Path 1986" d="M377.111,138.12a27.658,27.658,0,0,0-.96,7.284l-6.029,3.171,2.915,10.887,6.807-.263a27.56,27.56,0,0,0,4.468,5.832l-2.019,6.5,9.759,5.638,4.625-5a27.606,27.606,0,0,0,7.286.958l3.171,6.029,10.887-2.913-.263-6.807a27.648,27.648,0,0,0,5.831-4.47l6.5,2.021,5.638-9.759-5-4.625a27.617,27.617,0,0,0,.958-7.286l6.029-3.171-2.913-10.887L428,131.53a27.6,27.6,0,0,0-4.468-5.832l2.019-6.5-9.759-5.64-4.625,5a27.532,27.532,0,0,0-7.284-.958l-3.171-6.029-10.887,2.913.263,6.807a27.615,27.615,0,0,0-5.832,4.47l-6.5-2.021-5.638,9.759,5,4.626Zm16.086,1.64a12.09,12.09,0,1,1,4.419,16.518A12.089,12.089,0,0,1,393.2,139.76Z" transform="translate(-370.122 -111.566)" fill="#0e99e5" fill-rule="evenodd"/>
          </g>
        </g>
      </g>
    </g>
    <g id="Group_5112" data-name="Group 5112" transform="translate(87.412 426.855)">
      <g id="Group_5080" data-name="Group 5080" transform="translate(0)">
        <g id="Group_5056" data-name="Group 5056" transform="translate(58.145 77.03)">
          <g id="Group_5055" data-name="Group 5055" transform="translate(0)">
            <g id="Group_5054" data-name="Group 5054">
              <g id="Group_5053" data-name="Group 5053">
                <path id="Path_1998" data-name="Path 1998" d="M30.283,386.133c5.925-3.056,12.9-3.455,19.48-2.367,3.534.584,7.217,1.642,9.623,4.3s2.859,7.326.1,9.608c-1.643,1.357-3.935,1.564-6.067,1.539-5.15-.06-10.863-.967-14.977,2.131-2.348,1.769-3.909,4.707-6.716,5.576-2.744.851-5.843-.769-7.3-3.247A11.341,11.341,0,0,1,23.6,395.3,12.777,12.777,0,0,1,30.283,386.133Z" transform="translate(-23.178 -383.217)" fill="#0e99e5"/>
              </g>
            </g>
          </g>
        </g>
        <g id="Group_5060" data-name="Group 5060" transform="translate(48.254)">
          <g id="Group_5059" data-name="Group 5059">
            <g id="Group_5058" data-name="Group 5058">
              <g id="Group_5057" data-name="Group 5057">
                <path id="Path_1999" data-name="Path 1999" d="M40.317,385.343c3.623,5.174,10.665,3.461,13.93.3s4.644-7.737,5.9-12.1c2.87-9.974,5.764-20.438,3.629-30.6a16.99,16.99,0,0,0-3.907-8.317,8.88,8.88,0,0,0-8.416-2.8c-3.55.939-5.756,4.416-7.351,7.725a72.942,72.942,0,0,0-7.207,31.3c-.018,5.04.576,10.327,3.421,14.489" transform="translate(-36.896 -331.601)" fill="#0e99e5"/>
              </g>
            </g>
          </g>
        </g>
        <g id="Group_5064" data-name="Group 5064" transform="translate(0 16.651)">
          <g id="Group_5063" data-name="Group 5063">
            <g id="Group_5062" data-name="Group 5062">
              <g id="Group_5061" data-name="Group 5061">
                <path id="Path_2000" data-name="Path 2000" d="M98.941,387.274c3.934-4.668,4.68-11.478,2.931-17.327s-5.705-10.824-10.263-14.886a55.247,55.247,0,0,0-18.377-10.844,19.576,19.576,0,0,0-8.265-1.4,8.673,8.673,0,0,0-6.935,4.2c-1.934,3.689-.081,8.163,1.925,11.814a140.13,140.13,0,0,0,12.07,18.38c3.618,4.664,7.762,9.265,13.276,11.372s11.241,1.861,14.163-1.964" transform="translate(-57.216 -342.759)" fill="#0e99e5"/>
              </g>
            </g>
          </g>
        </g>
        <g id="Group_5069" data-name="Group 5069" transform="translate(51.364 84.215)">
          <g id="Group_5068" data-name="Group 5068">
            <g id="Group_5067" data-name="Group 5067">
              <g id="Group_5066" data-name="Group 5066">
                <g id="Group_5065" data-name="Group 5065">
                  <path id="Path_2001" data-name="Path 2001" d="M35.221,435.615a11.317,11.317,0,0,0,.327-2.35c.167-1.712.376-3.861.625-6.417a92.293,92.293,0,0,1,1.443-9.412,72.631,72.631,0,0,1,3.421-11.109,40.918,40.918,0,0,1,5.674-10.051,21.177,21.177,0,0,1,7.171-5.962,20.071,20.071,0,0,1,6.04-1.882,11.255,11.255,0,0,0,2.342-.339,11.015,11.015,0,0,0-2.383-.036,18.28,18.28,0,0,0-6.3,1.639,21.134,21.134,0,0,0-7.565,6.014,40,40,0,0,0-5.88,10.254,67.868,67.868,0,0,0-3.4,11.29,79.639,79.639,0,0,0-1.251,9.532c-.2,2.725-.281,4.931-.318,6.456A10.916,10.916,0,0,0,35.221,435.615Z" transform="translate(-35.154 -388.031)" fill="#0e99e5"/>
                </g>
              </g>
            </g>
          </g>
        </g>
        <g id="Group_5074" data-name="Group 5074" transform="translate(51.363 20.791)">
          <g id="Group_5073" data-name="Group 5073" transform="translate(0)">
            <g id="Group_5072" data-name="Group 5072">
              <g id="Group_5071" data-name="Group 5071">
                <g id="Group_5070" data-name="Group 5070">
                  <path id="Path_2002" data-name="Path 2002" d="M45.432,451.6a4.735,4.735,0,0,0,.063-1.092c0-.819,0-1.852-.007-3.119-.007-2.709-.006-6.626.139-11.464.239-9.677,1.073-20.092,2.682-34.775,1.524-13.806,3.57-29.874,5.728-40.321.463-2.376.93-4.513,1.369-6.386.418-1.876.776-3.494,1.121-4.8.3-1.233.537-2.236.728-3.033a4.585,4.585,0,0,0,.191-1.078,4.712,4.712,0,0,0-.379,1.024c-.237.785-.537,1.774-.906,2.989-.4,1.3-.813,2.9-1.283,4.774-.49,1.864-1,4-1.51,6.369A353.35,353.35,0,0,0,47.344,398.1c-1.613,14.713-2.34,28.11-2.4,37.811-.057,4.85.046,8.778.17,11.487.078,1.267.14,2.3.19,3.118A4.71,4.71,0,0,0,45.432,451.6Z" transform="translate(-44.924 -345.533)" fill="#0e99e5"/>
                </g>
              </g>
            </g>
          </g>
        </g>
        <g id="Group_5079" data-name="Group 5079" transform="translate(17.371 28.693)">
          <g id="Group_5078" data-name="Group 5078">
            <g id="Group_5077" data-name="Group 5077">
              <g id="Group_5076" data-name="Group 5076">
                <g id="Group_5075" data-name="Group 5075">
                  <path id="Path_2003" data-name="Path 2003" d="M87.47,423.156a20.386,20.386,0,0,0-.022-3.258c-.119-2.1-.407-5.122-1-8.83A116.3,116.3,0,0,0,83.578,398.2,105.131,105.131,0,0,0,78.2,382.98c-4.462-10.585-10.524-19.24-15.8-24.6a40.3,40.3,0,0,0-3.716-3.455c-.57-.482-1.075-.963-1.588-1.343l-1.442-.994a20.688,20.688,0,0,0-2.744-1.757c-.155.21,3.888,2.591,8.995,8.023a85.429,85.429,0,0,1,15.4,24.512,120.207,120.207,0,0,1,5.411,15.082,130.829,130.829,0,0,1,3.055,12.737c.673,3.67,1.063,6.668,1.3,8.742A21.049,21.049,0,0,0,87.47,423.156Z" transform="translate(-52.905 -350.828)" fill="#0e99e5"/>
                </g>
              </g>
            </g>
          </g>
        </g>
      </g>
      <g id="Group_5084" data-name="Group 5084" transform="translate(27.797 146.603)">
        <g id="Group_5083" data-name="Group 5083">
          <g id="Group_5082" data-name="Group 5082">
            <g id="Group_5081" data-name="Group 5081">
              <path id="Path_2004" data-name="Path 2004" d="M35.665,429.836l2.589,35.472h45.57l2.589-35.472Z" transform="translate(-35.665 -429.836)" fill="#434c83"/>
            </g>
          </g>
        </g>
      </g>
      <g id="Group_5088" data-name="Group 5088" transform="translate(22.56 132.621)">
        <g id="Group_5087" data-name="Group 5087">
          <g id="Group_5086" data-name="Group 5086">
            <g id="Group_5085" data-name="Group 5085">
              <rect id="Rectangle_2283" data-name="Rectangle 2283" width="60.587" height="13.981" fill="#434c83"/>
            </g>
          </g>
        </g>
      </g>
      <g id="Group_5092" data-name="Group 5092" transform="translate(22.56 180.717)">
        <g id="Group_5091" data-name="Group 5091">
          <g id="Group_5090" data-name="Group 5090">
            <g id="Group_5089" data-name="Group 5089">
              <path id="Path_2005" data-name="Path 2005" d="M32.692,452.695v3.876H92.278v-3.876Z" transform="translate(-32.692 -452.695)" fill="#434c83"/>
            </g>
          </g>
        </g>
      </g>
      <g id="Group_5096" data-name="Group 5096" transform="translate(25.407 184.593)">
        <g id="Group_5095" data-name="Group 5095">
          <g id="Group_5094" data-name="Group 5094">
            <g id="Group_5093" data-name="Group 5093">
              <path id="Path_2006" data-name="Path 2006" d="M36.937,462.113l-2.79-6.821H88.715l-3.255,6.821Z" transform="translate(-34.147 -455.292)" fill="#434c83"/>
            </g>
          </g>
        </g>
      </g>
      <g id="Group_5101" data-name="Group 5101" transform="translate(27.73 153.213)">
        <g id="Group_5100" data-name="Group 5100">
          <g id="Group_5099" data-name="Group 5099">
            <g id="Group_5098" data-name="Group 5098">
              <g id="Group_5097" data-name="Group 5097">
                <path id="Path_2007" data-name="Path 2007" d="M85.365,439.248a1.436,1.436,0,0,1-.212.325l-.681.9-2.655,3.4-.118.151-.115-.158c-1.668-2.307-3.9-5.39-6.522-9.02h.375c-1.94,2.747-4.1,5.807-6.42,9.092l-.2.285-.225-.269-7.616-9.06.44,0-.419.525-6.81,8.536-.227.285-.209-.3c-2.312-3.27-4.471-6.326-6.425-9.089l.373.018-7.911,9.014-.14.16-.107-.181L37.062,439.7l-.636-1.109a1.749,1.749,0,0,1-.194-.4,1.719,1.719,0,0,1,.266.352c.185.279.416.631.7,1.066.633.994,1.506,2.367,2.6,4.086l-.248-.019c2.028-2.376,4.67-5.473,7.784-9.124l.2-.23.178.248,6.481,9.048-.436-.012,6.793-8.548.418-.527.216-.272.224.266L69,443.609l-.427.018,6.486-9.047.19-.266.187.266,6.383,9.118-.231-.007c1.164-1.4,2.088-2.5,2.761-3.31l.74-.857C85.262,439.333,85.354,439.239,85.365,439.248Z" transform="translate(-36.231 -434.265)" fill="#0e99e5"/>
              </g>
            </g>
          </g>
        </g>
      </g>
      <g id="Group_5106" data-name="Group 5106" transform="translate(27.342 146.085)">
        <g id="Group_5105" data-name="Group 5105">
          <g id="Group_5104" data-name="Group 5104">
            <g id="Group_5103" data-name="Group 5103">
              <g id="Group_5102" data-name="Group 5102">
                <path id="Path_2008" data-name="Path 2008" d="M86.242,429.773c0,.157-11.418.284-25.5.284s-25.5-.127-25.5-.284,11.415-.284,25.5-.284S86.242,429.616,86.242,429.773Z" transform="translate(-35.24 -429.489)" fill="#0e99e5"/>
              </g>
            </g>
          </g>
        </g>
      </g>
      <g id="Group_5111" data-name="Group 5111" transform="translate(25.217 184.692)">
        <g id="Group_5110" data-name="Group 5110">
          <g id="Group_5109" data-name="Group 5109">
            <g id="Group_5108" data-name="Group 5108">
              <g id="Group_5107" data-name="Group 5107">
                <path id="Path_2009" data-name="Path 2009" d="M89.127,455.642c0,.157-12.409.284-27.713.284S33.7,455.8,33.7,455.642s12.406-.284,27.716-.284S89.127,455.485,89.127,455.642Z" transform="translate(-33.697 -455.358)" fill="#434c83"/>
              </g>
            </g>
          </g>
        </g>
      </g>
    </g>
  </g>
  <g id="Floor" transform="translate(0 618.269)">
    <g id="Group_5462" data-name="Group 5462">
      <g id="Group_5461" data-name="Group 5461">
        <g id="Group_5460" data-name="Group 5460">
          <path id="Path_2172" data-name="Path 2172" d="M18.38,460.185c0,.215,83.493.389,186.464.389,103.007,0,186.482-.175,186.482-.389s-83.476-.388-186.482-.388C101.873,459.8,18.38,459.972,18.38,460.185Z" transform="translate(-18.38 -459.797)" fill="#263238"/>
        </g>
      </g>
    </g>
  </g>
  <g id="Character" transform="translate(89.909 104.564)">
    <g id="Group_5790" data-name="Group 5790" transform="translate(0)">
      <g id="Group_5474" data-name="Group 5474" transform="translate(97.347 159.323)">
        <g id="Group_5464" data-name="Group 5464">
          <g id="Group_5463" data-name="Group 5463">
            <path id="Path_2173" data-name="Path 2173" d="M70.467,319.787a32.3,32.3,0,0,0,46.565-33.859c-2.177-13.693-12.733-24.4-23.395-33.262S71.263,235.293,65.1,222.875l-23.381-.539,1.558,63.372Z" transform="translate(-41.718 -222.336)" fill="#9b9b9b"/>
          </g>
        </g>
        <g id="Group_5467" data-name="Group 5467" transform="translate(29.246 48.122)">
          <g id="Group_5466" data-name="Group 5466">
            <g id="Group_5465" data-name="Group 5465">
              <path id="Path_2174" data-name="Path 2174" d="M46.278,301.548a2.27,2.27,0,0,0,.67-.078c.433-.087,1.08-.181,1.892-.393a44.782,44.782,0,0,0,6.755-2.218A49.18,49.18,0,0,0,84.8,264.219a44.7,44.7,0,0,0,1.043-7.032c.073-.837.057-1.491.069-1.931a2.223,2.223,0,0,0-.037-.675,20.715,20.715,0,0,0-.333,2.577,54.528,54.528,0,0,1-1.276,6.932,50.5,50.5,0,0,1-28.891,34.263,54.312,54.312,0,0,1-6.617,2.431A20.611,20.611,0,0,0,46.278,301.548Z" transform="translate(-46.278 -254.581)" fill="#fafafa"/>
            </g>
          </g>
        </g>
        <g id="Group_5470" data-name="Group 5470" transform="translate(29.825 53.876)">
          <g id="Group_5469" data-name="Group 5469">
            <g id="Group_5468" data-name="Group 5468">
              <path id="Path_2175" data-name="Path 2175" d="M43.839,302.183a2.191,2.191,0,0,0,.676-.007c.44-.042,1.1-.067,1.927-.2a42.951,42.951,0,0,0,6.956-1.548,47.059,47.059,0,0,0,31.6-32.4,42.89,42.89,0,0,0,1.374-6.992c.11-.834.119-1.489.149-1.931a2.184,2.184,0,0,0-.009-.676,21.017,21.017,0,0,0-.44,2.565,51.666,51.666,0,0,1-1.6,6.878A48.191,48.191,0,0,1,53.23,299.907a51.928,51.928,0,0,1-6.837,1.773A20.982,20.982,0,0,0,43.839,302.183Z" transform="translate(-43.839 -258.437)" fill="#fafafa"/>
            </g>
          </g>
        </g>
        <g id="Group_5473" data-name="Group 5473" transform="translate(28.289 44.461)">
          <g id="Group_5472" data-name="Group 5472">
            <g id="Group_5471" data-name="Group 5471">
              <path id="Path_2176" data-name="Path 2176" d="M48.878,297.356a2.019,2.019,0,0,0,.633-.091c.406-.092,1.013-.2,1.774-.427a42.907,42.907,0,0,0,6.316-2.286,47.467,47.467,0,0,0,27.008-33.31,42.791,42.791,0,0,0,.933-6.653c.063-.789.043-1.407.051-1.824a1.949,1.949,0,0,0-.043-.637,18.574,18.574,0,0,0-.309,2.434,52.869,52.869,0,0,1-1.167,6.556,48.887,48.887,0,0,1-26.7,32.935,53.264,53.264,0,0,1-6.172,2.5A18.128,18.128,0,0,0,48.878,297.356Z" transform="translate(-48.878 -252.128)" fill="#fafafa"/>
            </g>
          </g>
        </g>
      </g>
      <g id="Group_5523" data-name="Group 5523" transform="translate(14.384 466.002)">
        <g id="Group_5508" data-name="Group 5508">
          <g id="Group_5478" data-name="Group 5478">
            <g id="Group_5477" data-name="Group 5477">
              <g id="Group_5476" data-name="Group 5476">
                <g id="Group_5475" data-name="Group 5475">
                  <path id="Path_2177" data-name="Path 2177" d="M136.729,428.813l2.033,30.676s-30.531,10.132-30.709,15.839l59.655.431L166.5,427.833Z" transform="translate(-108.053 -427.833)" fill="#0e99e5"/>
                </g>
              </g>
            </g>
          </g>
          <g id="Group_5483" data-name="Group 5483" transform="translate(46.216 28.429)" opacity="0.6">
            <g id="Group_5482" data-name="Group 5482" transform="translate(0)">
              <g id="Group_5481" data-name="Group 5481">
                <g id="Group_5480" data-name="Group 5480">
                  <g id="Group_5479" data-name="Group 5479">
                    <path id="Path_2178" data-name="Path 2178" d="M116.788,446.97a2.435,2.435,0,0,1,1.767,2.727,2.34,2.34,0,0,1-2.688,1.776,2.568,2.568,0,0,1-1.857-2.9c.361-1.14,1.93-2.07,3-1.537" transform="translate(-113.938 -446.883)" fill="#fff"/>
                  </g>
                </g>
              </g>
            </g>
          </g>
          <g id="Group_5487" data-name="Group 5487" transform="translate(0 43.095)" opacity="0.6">
            <g id="Group_5486" data-name="Group 5486">
              <g id="Group_5485" data-name="Group 5485">
                <g id="Group_5484" data-name="Group 5484">
                  <path id="Path_2179" data-name="Path 2179" d="M167.708,461.541l-.122-4.831-56.857.985a4.669,4.669,0,0,0-2.676,3.415Z" transform="translate(-108.053 -456.71)" fill="#fff"/>
                </g>
              </g>
            </g>
          </g>
          <g id="Group_5492" data-name="Group 5492" transform="translate(29.731 31.084)">
            <g id="Group_5491" data-name="Group 5491">
              <g id="Group_5490" data-name="Group 5490">
                <g id="Group_5489" data-name="Group 5489">
                  <g id="Group_5488" data-name="Group 5488">
                    <path id="Path_2180" data-name="Path 2180" d="M124.4,448.961c.019.291,1.479.378,2.938,1.271,1.485.855,2.262,2.094,2.527,1.97.266-.066-.221-1.792-2.009-2.843S124.328,448.7,124.4,448.961Z" transform="translate(-124.396 -448.661)" fill="#263238"/>
                  </g>
                </g>
              </g>
            </g>
          </g>
          <g id="Group_5497" data-name="Group 5497" transform="translate(23.557 34.03)">
            <g id="Group_5496" data-name="Group 5496" transform="translate(0)">
              <g id="Group_5495" data-name="Group 5495">
                <g id="Group_5494" data-name="Group 5494">
                  <g id="Group_5493" data-name="Group 5493">
                    <path id="Path_2181" data-name="Path 2181" d="M129.515,450.765c-.06.284,1.218.74,2.243,1.942,1.061,1.172,1.351,2.5,1.64,2.474.276.037.425-1.674-.879-3.143S129.512,450.486,129.515,450.765Z" transform="translate(-129.513 -450.636)" fill="#263238"/>
                  </g>
                </g>
              </g>
            </g>
          </g>
          <g id="Group_5502" data-name="Group 5502" transform="translate(17.755 36.793)">
            <g id="Group_5501" data-name="Group 5501" transform="translate(0)">
              <g id="Group_5500" data-name="Group 5500">
                <g id="Group_5499" data-name="Group 5499">
                  <g id="Group_5498" data-name="Group 5498">
                    <path id="Path_2182" data-name="Path 2182" d="M136.733,457.445c.267.054.628-1.413-.167-2.985s-2.177-2.165-2.292-1.919c-.158.245.752,1.073,1.385,2.373C136.323,456.2,136.444,457.424,136.733,457.445Z" transform="translate(-134.256 -452.487)" fill="#263238"/>
                  </g>
                </g>
              </g>
            </g>
          </g>
          <g id="Group_5507" data-name="Group 5507" transform="translate(30.034 23.207)">
            <g id="Group_5506" data-name="Group 5506" transform="translate(0)">
              <g id="Group_5505" data-name="Group 5505">
                <g id="Group_5504" data-name="Group 5504">
                  <g id="Group_5503" data-name="Group 5503">
                    <path id="Path_2183" data-name="Path 2183" d="M123.745,444.517c.13.261,1.454-.181,3.1-.119,1.649.03,2.947.543,3.091.288.163-.215-1.121-1.255-3.064-1.3C124.933,443.325,123.595,444.293,123.745,444.517Z" transform="translate(-123.734 -443.383)" fill="#263238"/>
                  </g>
                </g>
              </g>
            </g>
          </g>
        </g>
        <g id="Group_5512" data-name="Group 5512" transform="translate(29.086 6.438)" opacity="0.3">
          <g id="Group_5511" data-name="Group 5511">
            <g id="Group_5510" data-name="Group 5510">
              <g id="Group_5509" data-name="Group 5509">
                <path id="Path_2184" data-name="Path 2184" d="M108.669,432.765l.355,5.467,29.294-1.153-.112-4.932Z" transform="translate(-108.669 -432.147)"/>
              </g>
            </g>
          </g>
        </g>
        <g id="Group_5517" data-name="Group 5517" transform="translate(29.75 13.113)">
          <g id="Group_5516" data-name="Group 5516" transform="translate(0)">
            <g id="Group_5515" data-name="Group 5515">
              <g id="Group_5514" data-name="Group 5514">
                <g id="Group_5513" data-name="Group 5513">
                  <path id="Path_2185" data-name="Path 2185" d="M122.086,441.651c0,.121,1.155.266,2.985-.106a13.471,13.471,0,0,0,3.1-1.054,14,14,0,0,0,1.686-.963,3.638,3.638,0,0,0,.881-.73,1.267,1.267,0,0,0,.087-1.552,1.6,1.6,0,0,0-1.3-.627,3.9,3.9,0,0,0-1.115.188,10.661,10.661,0,0,0-1.837.694,10.517,10.517,0,0,0-2.7,1.889c-1.345,1.324-1.785,2.425-1.683,2.479.136.091.781-.84,2.156-1.94a11.811,11.811,0,0,1,2.618-1.58,10.964,10.964,0,0,1,1.7-.58c.627-.185,1.164-.206,1.334.07.061.1.07.148-.055.336a3.013,3.013,0,0,1-.648.533,15.692,15.692,0,0,1-1.551.949,16.527,16.527,0,0,1-2.853,1.194A20.425,20.425,0,0,0,122.086,441.651Z" transform="translate(-122.086 -436.62)" fill="#263238"/>
                </g>
              </g>
            </g>
          </g>
        </g>
        <g id="Group_5522" data-name="Group 5522" transform="translate(26.025 9.145)">
          <g id="Group_5521" data-name="Group 5521" transform="translate(0)">
            <g id="Group_5520" data-name="Group 5520">
              <g id="Group_5519" data-name="Group 5519">
                <g id="Group_5518" data-name="Group 5518">
                  <path id="Path_2186" data-name="Path 2186" d="M131.475,443.366c.1.042.651-1.019.7-2.909a9.666,9.666,0,0,0-1.321-5.046,2.469,2.469,0,0,0-1.951-1.451,1.4,1.4,0,0,0-1.222.87,4.051,4.051,0,0,0-.273,1.1,6.671,6.671,0,0,0,.058,2.012,6.887,6.887,0,0,0,1.368,3.046c1.213,1.509,2.439,1.821,2.459,1.721.093-.149-.939-.681-1.876-2.137a6.913,6.913,0,0,1-1.03-2.777,6.208,6.208,0,0,1,0-1.728c.075-.636.3-1.154.536-1.1.3-.013.815.449,1.075.946a9.9,9.9,0,0,1,.788,1.6,10.758,10.758,0,0,1,.669,2.962C131.593,442.227,131.316,443.326,131.475,443.366Z" transform="translate(-127.358 -433.961)" fill="#263238"/>
                </g>
              </g>
            </g>
          </g>
        </g>
      </g>
      <g id="Group_5572" data-name="Group 5572" transform="translate(128.672 467.559)">
        <g id="Group_5557" data-name="Group 5557" transform="translate(0)">
          <g id="Group_5527" data-name="Group 5527" transform="translate(0.17)">
            <g id="Group_5526" data-name="Group 5526">
              <g id="Group_5525" data-name="Group 5525">
                <g id="Group_5524" data-name="Group 5524">
                  <path id="Path_2187" data-name="Path 2187" d="M46.639,438.675l11.07,28.68s-26.133,18.759-24.6,24.26l57.079-17.343-15.413-45.4Z" transform="translate(-33.041 -428.876)" fill="#0e99e5"/>
                </g>
              </g>
            </g>
          </g>
          <g id="Group_5532" data-name="Group 5532" transform="translate(39.254 29.997)" opacity="0.6">
            <g id="Group_5531" data-name="Group 5531" transform="translate(0)">
              <g id="Group_5530" data-name="Group 5530">
                <g id="Group_5529" data-name="Group 5529">
                  <g id="Group_5528" data-name="Group 5528">
                    <path id="Path_2188" data-name="Path 2188" d="M44.177,449a2.436,2.436,0,0,1,2.5,2.077,2.343,2.343,0,0,1-2.039,2.5A2.57,2.57,0,0,1,42,451.355c.007-1.2,1.227-2.55,2.409-2.361" transform="translate(-42.003 -448.976)" fill="#fff"/>
                  </g>
                </g>
              </g>
            </g>
          </g>
          <g id="Group_5536" data-name="Group 5536" transform="translate(0 40.821)" opacity="0.6">
            <g id="Group_5535" data-name="Group 5535">
              <g id="Group_5534" data-name="Group 5534">
                <g id="Group_5533" data-name="Group 5533">
                  <path id="Path_2189" data-name="Path 2189" d="M90.355,460.806,88.8,456.229,34.27,474.9a4.123,4.123,0,0,0-1.155,3.755Z" transform="translate(-33.041 -456.229)" fill="#fff"/>
                </g>
              </g>
            </g>
          </g>
          <g id="Group_5541" data-name="Group 5541" transform="translate(23.815 37.719)">
            <g id="Group_5540" data-name="Group 5540" transform="translate(0)">
              <g id="Group_5539" data-name="Group 5539">
                <g id="Group_5538" data-name="Group 5538">
                  <g id="Group_5537" data-name="Group 5537">
                    <path id="Path_2190" data-name="Path 2190" d="M51.325,454.939c.1.273,1.524-.078,3.185.34,1.671.373,2.782,1.325,3,1.128.236-.14-.743-1.645-2.762-2.115C52.73,453.805,51.179,454.708,51.325,454.939Z" transform="translate(-51.316 -454.15)" fill="#263238"/>
                  </g>
                </g>
              </g>
            </g>
          </g>
          <g id="Group_5546" data-name="Group 5546" transform="translate(18.753 42.67)">
            <g id="Group_5545" data-name="Group 5545">
              <g id="Group_5544" data-name="Group 5544">
                <g id="Group_5543" data-name="Group 5543">
                  <g id="Group_5542" data-name="Group 5542">
                    <path id="Path_2191" data-name="Path 2191" d="M55.46,457.793c.028.29,1.382.345,2.719,1.188,1.363.8,2.033,1.979,2.3,1.873.273-.046-.093-1.725-1.774-2.74S55.375,457.529,55.46,457.793Z" transform="translate(-55.457 -457.468)" fill="#263238"/>
                  </g>
                </g>
              </g>
            </g>
          </g>
          <g id="Group_5551" data-name="Group 5551" transform="translate(14.028 47.171)">
            <g id="Group_5550" data-name="Group 5550" transform="translate(0)">
              <g id="Group_5549" data-name="Group 5549">
                <g id="Group_5548" data-name="Group 5548">
                  <g id="Group_5547" data-name="Group 5547">
                    <path id="Path_2192" data-name="Path 2192" d="M63.219,464.546c.272-.027.179-1.536-1.049-2.8s-2.722-1.419-2.759-1.149c-.076.281,1.039.8,2.03,1.854C62.456,463.481,62.937,464.613,63.219,464.546Z" transform="translate(-59.407 -460.484)" fill="#263238"/>
                  </g>
                </g>
              </g>
            </g>
          </g>
          <g id="Group_5556" data-name="Group 5556" transform="translate(22 29.467)">
            <g id="Group_5555" data-name="Group 5555" transform="translate(0)">
              <g id="Group_5554" data-name="Group 5554">
                <g id="Group_5553" data-name="Group 5553">
                  <g id="Group_5552" data-name="Group 5552">
                    <path id="Path_2193" data-name="Path 2193" d="M52.714,450.846c.2.21,1.333-.6,2.927-1.037,1.583-.464,2.974-.36,3.037-.645.091-.254-1.443-.866-3.313-.33C53.493,449.354,52.5,450.676,52.714,450.846Z" transform="translate(-52.686 -448.621)" fill="#263238"/>
                  </g>
                </g>
              </g>
            </g>
          </g>
        </g>
        <g id="Group_5561" data-name="Group 5561" transform="translate(15.967 6.095)" opacity="0.3">
          <g id="Group_5560" data-name="Group 5560">
            <g id="Group_5559" data-name="Group 5559">
              <g id="Group_5558" data-name="Group 5558">
                <path id="Path_2194" data-name="Path 2194" d="M40.919,442.341l1.966,5.114,27.623-9.82-1.575-4.676Z" transform="translate(-40.919 -432.96)"/>
              </g>
            </g>
          </g>
        </g>
        <g id="Group_5566" data-name="Group 5566" transform="translate(19.899 18.769)">
          <g id="Group_5565" data-name="Group 5565" transform="translate(0)">
            <g id="Group_5564" data-name="Group 5564">
              <g id="Group_5563" data-name="Group 5563">
                <g id="Group_5562" data-name="Group 5562">
                  <path id="Path_2195" data-name="Path 2195" d="M53.078,448.548c.036.115,1.182-.091,2.819-.989a13.483,13.483,0,0,0,2.64-1.927,14.161,14.161,0,0,0,1.325-1.421,3.64,3.64,0,0,0,.622-.96,1.268,1.268,0,0,0-.379-1.507,1.6,1.6,0,0,0-1.424-.213,3.882,3.882,0,0,0-1.009.512,10.77,10.77,0,0,0-1.548,1.209,10.573,10.573,0,0,0-2.013,2.607c-.889,1.664-.982,2.846-.869,2.867.155.048.5-1.034,1.48-2.494a11.962,11.962,0,0,1,2.028-2.288,11.147,11.147,0,0,1,1.449-1.06c.543-.363,1.049-.543,1.3-.33.09.082.11.119.046.337a2.966,2.966,0,0,1-.46.7,16.058,16.058,0,0,1-1.2,1.368,16.518,16.518,0,0,1-2.368,1.988A20.579,20.579,0,0,0,53.078,448.548Z" transform="translate(-53.076 -441.453)" fill="#263238"/>
                </g>
              </g>
            </g>
          </g>
        </g>
        <g id="Group_5571" data-name="Group 5571" transform="translate(14.215 17.865)">
          <g id="Group_5570" data-name="Group 5570" transform="translate(0)">
            <g id="Group_5569" data-name="Group 5569">
              <g id="Group_5568" data-name="Group 5568">
                <g id="Group_5567" data-name="Group 5567">
                  <path id="Path_2196" data-name="Path 2196" d="M63.867,449.118c.113.009.318-1.167-.2-2.985a9.667,9.667,0,0,0-2.764-4.425,2.465,2.465,0,0,0-2.292-.8,1.4,1.4,0,0,0-.907,1.2,4.041,4.041,0,0,0,.067,1.136,6.64,6.64,0,0,0,.655,1.9,6.853,6.853,0,0,0,2.212,2.5c1.607,1.081,2.87,1.013,2.861.912a24.185,24.185,0,0,1-2.427-1.483,6.882,6.882,0,0,1-1.81-2.345,6.136,6.136,0,0,1-.51-1.651c-.119-.628-.061-1.189.184-1.206a1.707,1.707,0,0,1,1.307.584,9.924,9.924,0,0,1,1.228,1.289,10.769,10.769,0,0,1,1.519,2.628C63.642,447.994,63.7,449.127,63.867,449.118Z" transform="translate(-57.687 -440.847)" fill="#263238"/>
                </g>
              </g>
            </g>
          </g>
        </g>
      </g>
      <g id="Group_5578" data-name="Group 5578" transform="translate(0 31.271)">
        <g id="Group_5574" data-name="Group 5574">
          <g id="Group_5573" data-name="Group 5573">
            <path id="Path_2197" data-name="Path 2197" d="M136.1,136.532c-2.683,1.334-2.862,4.676-1.619,7.123s3.5,4.447,4.853,6.854,1.491,5.693-.992,7.278c-2.071,1.321-5.511,1.18-6.638,3.159-1.745,3.062,4.453,5.783,4.2,9.192-.243,3.33-6.395,4.761-6.171,8.1.158,2.352,3.616,4.226,2.84,6.477-1.2,3.5-9.762,1.143-10.663,4.707-.684,2.709,4.617,4.564,4.037,7.29-.412,1.931-3.306,2.431-5.283,3.446a5.769,5.769,0,0,0-3.3,5.568,6.429,6.429,0,0,0,4.45,5.059c-2.448,1.546-4.986,3.18-6.307,5.514a5.112,5.112,0,0,0,1.589,7.046c1.172.67,2.771,1,3.365,2.079,1.043,1.9-1.954,3.526-2.662,5.511-.786,2.2,1.421,4.382,3.689,5.692s4.97,2.461,6,4.611c.6,1.254.534,2.7,1.294,3.891,1.412,2.218,4.992,2.637,7.9,2.228s5.834-1.366,8.739-.855c5.649.992,9.471,7.2,15.133,6.41,3.65-.509,5.71-3.768,6.759-6.763s1.806-6.347,4.656-8.317c1.516-1.049,3.491-1.586,4.876-2.756,2.609-2.2,2.3-5.95.721-8.814s-4.161-5.262-5.841-8.083-2.28-6.495.069-8.9c1.216-1.246,3.2-2.189,3.335-3.811.139-1.7-1.855-2.946-2.68-4.511-1.349-2.555.576-5.356,1.7-7.959s.6-6.505-2.664-6.935" transform="translate(-114.76 -136.532)" fill="#263238"/>
          </g>
        </g>
        <g id="Group_5577" data-name="Group 5577" transform="translate(9.143 28.589)">
          <g id="Group_5576" data-name="Group 5576">
            <g id="Group_5575" data-name="Group 5575">
              <path id="Path_2198" data-name="Path 2198" d="M142.738,226.455a7.961,7.961,0,0,1-2.191-2.437,7.866,7.866,0,0,1-.9-3.688,6.739,6.739,0,0,1,1.716-4.588c.589-.7,1.56-1.119,2.248-2.089a2.587,2.587,0,0,0,.4-1.737,5.223,5.223,0,0,0-.546-1.683,9.116,9.116,0,0,1-1.261-3.092,1.623,1.623,0,0,1,.619-1.321,3.655,3.655,0,0,1,1.6-.576,18.151,18.151,0,0,0,1.939-.387,3.279,3.279,0,0,0,1.794-1.236,3.572,3.572,0,0,0,.6-2.13,13.506,13.506,0,0,0-.231-2.115,12.273,12.273,0,0,1-.331-4.058,3.963,3.963,0,0,1,2.606-2.8,18.209,18.209,0,0,0,3.976-1.989,3.242,3.242,0,0,0,1.157-2.053,3.592,3.592,0,0,0-.5-2.242c-.722-1.289-1.719-2.242-2.309-3.362a4.784,4.784,0,0,1-.346-3.546c.591-2.4,2.227-4.265,3.361-6.265a9.928,9.928,0,0,0,1.23-3.14,7.339,7.339,0,0,0-.152-3.119c-.5-1.915-1.3-3.476-1.674-4.935a7.06,7.06,0,0,1,.021-3.779,3.721,3.721,0,0,1,1.315-1.968c.455-.319.754-.394.737-.436a2.035,2.035,0,0,0-.824.306,3.715,3.715,0,0,0-1.515,2,7.207,7.207,0,0,0-.155,3.98c.352,1.524,1.121,3.124,1.561,4.956a6.824,6.824,0,0,1,.1,2.883,9.351,9.351,0,0,1-1.2,2.925c-1.1,1.913-2.819,3.8-3.5,6.416a5.5,5.5,0,0,0,.384,4.065c.661,1.252,1.671,2.233,2.3,3.379a2.506,2.506,0,0,1-.49,3.344,18.412,18.412,0,0,1-3.806,1.874,6.831,6.831,0,0,0-1.934,1.27,3.9,3.9,0,0,0-1.1,2.085,12.741,12.741,0,0,0,.34,4.334c.225,1.324.458,2.742-.221,3.685-.648,1-2,1.115-3.256,1.345a4.291,4.291,0,0,0-1.9.73,2.318,2.318,0,0,0-.87,1.886,9.232,9.232,0,0,0,1.367,3.362,2.752,2.752,0,0,1,.219,2.806c-.521.789-1.485,1.266-2.149,2.046a7.152,7.152,0,0,0-1.751,4.965,7.987,7.987,0,0,0,1.077,3.834,6.585,6.585,0,0,0,1.688,1.864A3.405,3.405,0,0,0,142.738,226.455Z" transform="translate(-139.206 -155.689)" fill="#455a64"/>
            </g>
          </g>
        </g>
      </g>
      <g id="Group_5586" data-name="Group 5586" transform="translate(22.619 217.314)">
        <g id="Group_5580" data-name="Group 5580" transform="translate(0 2.168)">
          <g id="Group_5579" data-name="Group 5579">
            <path id="Path_2199" data-name="Path 2199" d="M115.294,262.647s-13.16,28.052-13.16,45.965,13.622,208.679,13.622,208.679l46.631-1.686L149.26,262.939Z" transform="translate(-102.134 -262.647)" fill="#263238"/>
          </g>
        </g>
        <g id="Group_5582" data-name="Group 5582" transform="translate(36.404)">
          <g id="Group_5581" data-name="Group 5581">
            <path id="Path_2200" data-name="Path 2200" d="M39.393,302.669c0,3.191,38.717,133.784,38.717,133.784l39.621,93.756,39.145-12.572L119.128,401.2s-8.18-46.832-9.238-68.185c-.86-17.362-2.188-29.331-3.473-36.392a22.627,22.627,0,0,0-3.3-8.316c-3.789-5.816-11.2-17.071-15.533-22.905-6.008-8.086-48.192-2.045-48.192-2.045Z" transform="translate(-39.393 -261.194)" fill="#263238"/>
          </g>
        </g>
        <g id="Group_5585" data-name="Group 5585" transform="translate(35.926 36.211)">
          <g id="Group_5584" data-name="Group 5584">
            <g id="Group_5583" data-name="Group 5583">
              <path id="Path_2201" data-name="Path 2201" d="M131.234,423.185a1.3,1.3,0,0,0-.064-.366c-.07-.282-.157-.628-.264-1.052q-.4-1.473-1.086-4.026c-1-3.549-2.415-8.575-4.156-14.76-3.583-12.5-8.505-29.667-13.942-48.628-5.44-19-10.326-36.2-13.77-48.681-1.685-6.2-3.053-11.235-4.02-14.792-.452-1.7-.809-3.047-1.07-4.029-.119-.421-.218-.764-.3-1.043a1.336,1.336,0,0,0-.127-.349,1.339,1.339,0,0,0,.049.369c.06.284.133.633.222,1.061.227.991.537,2.349.928,4.065.849,3.521,2.131,8.6,3.783,14.863,3.31,12.52,8.114,29.754,13.554,48.751s10.482,36.154,14.163,48.568l4.392,14.691c.518,1.682.928,3.013,1.228,3.985l.337,1.031A1.357,1.357,0,0,0,131.234,423.185Z" transform="translate(-92.432 -285.458)" fill="#455a64"/>
            </g>
          </g>
        </g>
      </g>
      <g id="Group_5621" data-name="Group 5621" transform="translate(4.205 94.969)">
        <g id="Group_5588" data-name="Group 5588" transform="translate(0)">
          <g id="Group_5587" data-name="Group 5587">
            <path id="Path_2202" data-name="Path 2202" d="M123.973,180.18c-1.234.218-13.13,5.216-18.534,7.5a7.741,7.741,0,0,0-3.925,3.7L74.98,244.92,95.5,259.128s5.765,42.485,11.051,44.6c1.973.789,65.517,0,65.517,0s6.708,7.1,9.472,4.341a9.042,9.042,0,0,0,2.367-6.71l.019-91.171,10.242-20.523S150.811,175.444,123.973,180.18Z" transform="translate(-74.98 -179.214)" fill="#0e99e5"/>
          </g>
        </g>
        <g id="Group_5590" data-name="Group 5590" transform="translate(97.578 8.166)">
          <g id="Group_5589" data-name="Group 5589">
            <path id="Path_2203" data-name="Path 2203" d="M65.344,202.051,64.2,245.468l37,3.54c0-.242,6.426-47.038-19.674-64.321Z" transform="translate(-64.204 -184.686)" fill="#0e99e5"/>
          </g>
        </g>
        <g id="Group_5593" data-name="Group 5593" transform="translate(21.913 31.48)">
          <g id="Group_5592" data-name="Group 5592" transform="translate(0)">
            <g id="Group_5591" data-name="Group 5591">
              <path id="Path_2204" data-name="Path 2204" d="M136.346,241.305c.21-1.406.457-3.044.854-5.687.563-3.925,1.291-9,2.1-14.613s1.509-10.693,2.062-14.619q.356-2.61.6-4.434a6.93,6.93,0,0,0,.134-1.643,6.576,6.576,0,0,0-.433,1.591c-.225,1.034-.516,2.537-.848,4.4-.663,3.723-1.48,8.884-2.289,14.6s-1.464,10.893-1.873,14.654c-.2,1.88-.346,3.4-.413,4.462-.033.53-.048.942-.039,1.224l.015.191c.034,0-.057.128.125.063l.015-.067C136.362,241.347,136.359,241.308,136.346,241.305Z" transform="translate(-136.198 -200.308)" fill="#263238"/>
            </g>
          </g>
        </g>
        <g id="Group_5596" data-name="Group 5596" transform="translate(97.181 38.305)">
          <g id="Group_5595" data-name="Group 5595" transform="translate(0)">
            <g id="Group_5594" data-name="Group 5594">
              <path id="Path_2205" data-name="Path 2205" d="M102.066,239.064a17.58,17.58,0,0,0-2.639-.4l-7.223-.815c-6.1-.655-14.536-1.5-23.856-2.4l-3.241-.307.349.391c.216-8.611.372-16.273.448-21.783.021-2.658.037-4.846.051-6.5a14.662,14.662,0,0,0-.081-2.368,14.614,14.614,0,0,0-.2,2.364c-.075,1.652-.172,3.837-.29,6.495-.213,5.507-.461,13.167-.7,21.778l-.01.357.361.034,3.241.313c9.32.891,17.762,1.655,23.877,2.17,2.964.231,5.41.424,7.247.569A17.551,17.551,0,0,0,102.066,239.064Z" transform="translate(-64.673 -204.881)" fill="#263238"/>
            </g>
          </g>
        </g>
        <g id="Group_5599" data-name="Group 5599" transform="translate(34.344 107.872)">
          <g id="Group_5598" data-name="Group 5598">
            <g id="Group_5597" data-name="Group 5597">
              <path id="Path_2206" data-name="Path 2206" d="M144.77,251.5c-.078-.11-1.988,1.251-5.265,3.112a69.055,69.055,0,0,1-27.849,8.751c-3.752.348-6.1.325-6.1.46a6.742,6.742,0,0,0,1.645.151,43.386,43.386,0,0,0,4.5-.063,61.056,61.056,0,0,0,28.085-8.826,43.477,43.477,0,0,0,3.723-2.521A6.643,6.643,0,0,0,144.77,251.5Z" transform="translate(-105.558 -251.496)" fill="#263238"/>
            </g>
          </g>
        </g>
        <g id="Group_5602" data-name="Group 5602" transform="translate(25.315 89.929)" opacity="0.2">
          <g id="Group_5601" data-name="Group 5601">
            <g id="Group_5600" data-name="Group 5600">
              <path id="Path_2207" data-name="Path 2207" d="M85.931,248.095c9.012,2.644,18.889-.7,28.012,1.534a36.445,36.445,0,0,1,11.5,5.543c7.689,5.183,14.5,11.694,22.668,16.074,3.015,1.615,6.362,2.953,9.765,2.6s6.783-2.859,7.092-6.267c-9.157-6.969-20.411-11.812-30.162-17.92-3.664-2.294-13.063-8.317-13.063-8.317s-4.9-.391-8.942-.673l-15.646-1.094c-2.506-.176-5.216-.3-7.32,1.073-2.807,1.833-3.822,5.905-6.96,7.084" transform="translate(-82.875 -239.473)"/>
            </g>
          </g>
        </g>
        <g id="Group_5605" data-name="Group 5605" transform="translate(90.118 24.047)">
          <g id="Group_5604" data-name="Group 5604" transform="translate(0)">
            <g id="Group_5603" data-name="Group 5603">
              <path id="Path_2208" data-name="Path 2208" d="M91.146,195.327a13.738,13.738,0,0,0-.579,2.286c-.343,1.479-.718,3.646-1.107,6.334a93.113,93.113,0,0,0-.516,21.2,86.34,86.34,0,0,0,1.9,11.545,76.831,76.831,0,0,0,2.828,9.124c.455,1.28.957,2.4,1.386,3.394s.816,1.836,1.169,2.51a13.7,13.7,0,0,0,1.133,2.068,13.773,13.773,0,0,0-.857-2.2c-.31-.689-.667-1.543-1.043-2.55s-.854-2.131-1.272-3.416a86.6,86.6,0,0,1-2.647-9.1,92.973,92.973,0,0,1-1.827-11.454A103.513,103.513,0,0,1,90,204.016c.318-2.683.61-4.855.86-6.349A13.763,13.763,0,0,0,91.146,195.327Z" transform="translate(-88.56 -195.327)" fill="#455a64"/>
            </g>
          </g>
        </g>
        <g id="Group_5608" data-name="Group 5608" transform="translate(27.314 5.438)">
          <g id="Group_5607" data-name="Group 5607">
            <g id="Group_5606" data-name="Group 5606">
              <path id="Path_2209" data-name="Path 2209" d="M140.074,182.858a9.692,9.692,0,0,0-.815,1.791c-.485,1.169-1.11,2.889-1.821,5.037a153.814,153.814,0,0,0-4.459,17.091c-1.379,6.762-2.3,12.94-2.877,17.421-.288,2.24-.494,4.056-.612,5.314a9.514,9.514,0,0,0-.107,1.962,9.474,9.474,0,0,0,.407-1.922c.227-1.4.513-3.167.857-5.276.713-4.455,1.721-10.6,3.1-17.344s2.928-12.767,4.22-17.082c.64-2.159,1.186-3.9,1.582-5.1A9.538,9.538,0,0,0,140.074,182.858Z" transform="translate(-129.36 -182.858)" fill="#455a64"/>
            </g>
          </g>
        </g>
        <g id="Group_5611" data-name="Group 5611" transform="translate(100.011 30.136)">
          <g id="Group_5610" data-name="Group 5610" transform="translate(0)">
            <g id="Group_5609" data-name="Group 5609">
              <path id="Path_2210" data-name="Path 2210" d="M67.6,212.843c.088.2,6.917-2.652,15.252-6.358s15.025-6.872,14.939-7.068-6.916,2.649-15.254,6.358S67.516,212.646,67.6,212.843Z" transform="translate(-67.601 -199.408)" fill="#fafafa"/>
            </g>
          </g>
        </g>
        <g id="Group_5614" data-name="Group 5614" transform="translate(49.572 40.832)">
          <g id="Group_5613" data-name="Group 5613">
            <g id="Group_5612" data-name="Group 5612">
              <path id="Path_2211" data-name="Path 2211" d="M88.781,223.424c.069.2,11.1-3.4,24.636-8.053s24.457-8.586,24.387-8.789-11.1,3.4-24.639,8.054S88.711,223.221,88.781,223.424Z" transform="translate(-88.781 -206.575)" fill="#fafafa"/>
            </g>
          </g>
        </g>
        <g id="Group_5617" data-name="Group 5617" transform="translate(27.325 37.078)">
          <g id="Group_5616" data-name="Group 5616">
            <g id="Group_5615" data-name="Group 5615">
              <path id="Path_2212" data-name="Path 2212" d="M121.3,204.062a21.852,21.852,0,0,0,2.833,3.471,104.755,104.755,0,0,0,16.133,14.36,21.884,21.884,0,0,0,3.776,2.412,30.633,30.633,0,0,0-3.446-2.85c-2.159-1.71-5.111-4.113-8.251-6.905s-5.864-5.447-7.814-7.395A30.841,30.841,0,0,0,121.3,204.062Z" transform="translate(-121.295 -204.059)" fill="#fafafa"/>
            </g>
          </g>
        </g>
        <g id="Group_5620" data-name="Group 5620" transform="translate(17.918 30.009)">
          <g id="Group_5619" data-name="Group 5619">
            <g id="Group_5618" data-name="Group 5618">
              <path id="Path_2213" data-name="Path 2213" d="M137.226,199.326c-.173.125,1.56,2.821,3.873,6.02s4.328,5.692,4.5,5.567-1.56-2.821-3.871-6.022S137.4,199.2,137.226,199.326Z" transform="translate(-137.214 -199.322)" fill="#fafafa"/>
            </g>
          </g>
        </g>
      </g>
      <g id="Group_5772" data-name="Group 5772" transform="translate(11.6)">
        <g id="Group_5623" data-name="Group 5623" transform="translate(53.411 23.336)">
          <g id="Group_5622" data-name="Group 5622">
            <path id="Path_2214" data-name="Path 2214" d="M77.883,131.3c2.006-.521,3.747,1.448,4.708,3.283s2.006,4.02,4.038,4.428c1.646.33,3.443-.685,4.983-.015,2.636,1.145,1.692,5.631,4.019,7.313,2.288,1.655,5.743-.7,8.247.6,3.007,1.563,2.285,7.046,5.484,8.159,1.551.539,3.491-.26,4.786.746,2.243,1.742-.692,5.552.521,8.12,1.467,3.1,7.283,1.546,8.7,4.671,1.273,2.81-2.647,6.189-1.1,8.859,1.363,2.355,5.855,1.789,6.481,4.437.478,2.021-2.019,3.891-1.482,5.9.763,2.855,6.455,2.3,6.5,5.253.03,1.883-2.639,3.106-2.343,4.967.24,1.506,2.128,1.951,3.444,2.721a5.07,5.07,0,0,1-2.531,9.448,38.535,38.535,0,0,0-18.959-11.635c-6.578-1.718-13.467-1.655-20.24-2.251s-13.763-1.979-19.176-6.093-8.754-11.593-6.287-17.928" transform="translate(-66.85 -131.215)" fill="#263238"/>
          </g>
        </g>
        <g id="Group_5740" data-name="Group 5740" transform="translate(0 14.716)">
          <g id="Group_5739" data-name="Group 5739">
            <g id="Group_5738" data-name="Group 5738">
              <g id="Group_5626" data-name="Group 5626">
                <g id="Group_5625" data-name="Group 5625">
                  <g id="Group_5624" data-name="Group 5624">
                    <path id="Path_2215" data-name="Path 2215" d="M163.57,131.392c-2.082-7.893-11.62-5.8-15.873-2.568-3.5-2.841-5.81-4.129-11.8-2.947-4.408.87-10.448,4.789-12.63,10.036a16.3,16.3,0,0,0,2.346,16.077c1.172,1.469,2.661,2.865,2.93,4.725.389,2.691-1.885,4.928-3.1,7.36a10.312,10.312,0,0,0,2.752,12.32c2.265,1.786,5.349,2.647,6.938,5.055,1.33,2.018,1.266,4.625,2.019,6.92,1.386,4.219,5.631,7.119,10.041,7.639a18.611,18.611,0,0,0,12.53-3.586" transform="translate(-122.111 -125.439)" fill="#263238"/>
                  </g>
                </g>
              </g>
              <g id="Group_5731" data-name="Group 5731" transform="translate(13.257 12.226)">
                <g id="Group_5730" data-name="Group 5730">
                  <g id="Group_5729" data-name="Group 5729">
                    <g id="Group_5728" data-name="Group 5728">
                      <g id="Group_5709" data-name="Group 5709">
                        <g id="Group_5708" data-name="Group 5708">
                          <g id="Group_5707" data-name="Group 5707">
                            <g id="Group_5628" data-name="Group 5628">
                              <g id="Group_5627" data-name="Group 5627">
                                <path id="Path_2216" data-name="Path 2216" d="M144.5,138.307l-1.222-4.676-29.428,2.583C104.979,137.74,98.108,149,100.006,157.8c2.11,9.771,5.071,21.619,8.235,28.46,6.359,13.758,17.919,12.469,17.919,12.469l2.064,6.044a17.019,17.019,0,0,0,21.76,10.553h0a17.02,17.02,0,0,0,10.7-20.76Z" transform="translate(-99.689 -133.631)" fill="#a36957"/>
                              </g>
                            </g>
                            <g id="Group_5648" data-name="Group 5648" transform="translate(4.53 26.391)">
                              <g id="Group_5637" data-name="Group 5637" transform="translate(3.693 4.378)">
                                <g id="Group_5636" data-name="Group 5636">
                                  <g id="Group_5635" data-name="Group 5635">
                                    <g id="Group_5634" data-name="Group 5634">
                                      <g id="Group_5633" data-name="Group 5633">
                                        <g id="Group_5632" data-name="Group 5632">
                                          <g id="Group_5631" data-name="Group 5631">
                                            <g id="Group_5630" data-name="Group 5630">
                                              <g id="Group_5629" data-name="Group 5629">
                                                <path id="Path_2217" data-name="Path 2217" d="M132.975,156.5a1.921,1.921,0,0,0,2.309,1.361,1.836,1.836,0,0,0,1.433-2.2,1.922,1.922,0,0,0-2.306-1.363A1.838,1.838,0,0,0,132.975,156.5Z" transform="translate(-132.924 -154.248)" fill="#263238"/>
                                              </g>
                                            </g>
                                          </g>
                                        </g>
                                      </g>
                                    </g>
                                  </g>
                                </g>
                              </g>
                              <g id="Group_5647" data-name="Group 5647" transform="translate(0)">
                                <g id="Group_5646" data-name="Group 5646">
                                  <g id="Group_5645" data-name="Group 5645">
                                    <g id="Group_5644" data-name="Group 5644">
                                      <g id="Group_5643" data-name="Group 5643">
                                        <g id="Group_5642" data-name="Group 5642">
                                          <g id="Group_5641" data-name="Group 5641">
                                            <g id="Group_5640" data-name="Group 5640">
                                              <g id="Group_5639" data-name="Group 5639">
                                                <g id="Group_5638" data-name="Group 5638">
                                                  <path id="Path_2218" data-name="Path 2218" d="M133.118,154.479c.3.176,1.4-1.255,3.394-1.812,1.979-.585,3.726.025,3.874-.279.075-.137-.281-.507-1.048-.789a5.267,5.267,0,0,0-3.185-.075,5.057,5.057,0,0,0-2.616,1.743C133.058,153.909,132.975,154.4,133.118,154.479Z" transform="translate(-133.055 -151.315)" fill="#263238"/>
                                                </g>
                                              </g>
                                            </g>
                                          </g>
                                        </g>
                                      </g>
                                    </g>
                                  </g>
                                </g>
                              </g>
                            </g>
                            <g id="Group_5668" data-name="Group 5668" transform="translate(24.176 21.236)">
                              <g id="Group_5657" data-name="Group 5657" transform="translate(2.715 4.638)">
                                <g id="Group_5656" data-name="Group 5656">
                                  <g id="Group_5655" data-name="Group 5655">
                                    <g id="Group_5654" data-name="Group 5654">
                                      <g id="Group_5653" data-name="Group 5653">
                                        <g id="Group_5652" data-name="Group 5652">
                                          <g id="Group_5651" data-name="Group 5651">
                                            <g id="Group_5650" data-name="Group 5650">
                                              <g id="Group_5649" data-name="Group 5649">
                                                <path id="Path_2219" data-name="Path 2219" d="M120.466,153.223a1.92,1.92,0,0,0,2.309,1.361,1.836,1.836,0,0,0,1.433-2.2,1.92,1.92,0,0,0-2.307-1.361A1.836,1.836,0,0,0,120.466,153.223Z" transform="translate(-120.415 -150.969)" fill="#263238"/>
                                              </g>
                                            </g>
                                          </g>
                                        </g>
                                      </g>
                                    </g>
                                  </g>
                                </g>
                              </g>
                              <g id="Group_5667" data-name="Group 5667" transform="translate(0)">
                                <g id="Group_5666" data-name="Group 5666">
                                  <g id="Group_5665" data-name="Group 5665">
                                    <g id="Group_5664" data-name="Group 5664">
                                      <g id="Group_5663" data-name="Group 5663">
                                        <g id="Group_5662" data-name="Group 5662">
                                          <g id="Group_5661" data-name="Group 5661">
                                            <g id="Group_5660" data-name="Group 5660">
                                              <g id="Group_5659" data-name="Group 5659">
                                                <g id="Group_5658" data-name="Group 5658">
                                                  <path id="Path_2220" data-name="Path 2220" d="M119.954,151.025c.3.176,1.406-1.255,3.394-1.812,1.979-.584,3.726.025,3.874-.279.075-.137-.279-.507-1.048-.789a5.268,5.268,0,0,0-3.185-.075,5.057,5.057,0,0,0-2.616,1.743C119.9,150.455,119.81,150.95,119.954,151.025Z" transform="translate(-119.89 -147.861)" fill="#263238"/>
                                                </g>
                                              </g>
                                            </g>
                                          </g>
                                        </g>
                                      </g>
                                    </g>
                                  </g>
                                </g>
                              </g>
                            </g>
                            <g id="Group_5678" data-name="Group 5678" transform="translate(15.634 24.363)">
                              <g id="Group_5677" data-name="Group 5677" transform="translate(0)">
                                <g id="Group_5676" data-name="Group 5676">
                                  <g id="Group_5675" data-name="Group 5675">
                                    <g id="Group_5674" data-name="Group 5674">
                                      <g id="Group_5673" data-name="Group 5673">
                                        <g id="Group_5672" data-name="Group 5672">
                                          <g id="Group_5671" data-name="Group 5671">
                                            <g id="Group_5670" data-name="Group 5670">
                                              <g id="Group_5669" data-name="Group 5669">
                                                <path id="Path_2221" data-name="Path 2221" d="M132.366,166.777a13.59,13.59,0,0,0-3.394.33c-.522.091-1.031.127-1.215-.2a2.684,2.684,0,0,1-.087-1.6q.195-2.044.409-4.289c.528-6.093.757-11.045.512-11.064s-.873,4.9-1.4,11q-.177,2.248-.339,4.3a3.047,3.047,0,0,0,.3,2.067,1.323,1.323,0,0,0,1.045.506,3.6,3.6,0,0,0,.9-.124A13.455,13.455,0,0,0,132.366,166.777Z" transform="translate(-126.808 -149.956)" fill="#263238"/>
                                              </g>
                                            </g>
                                          </g>
                                        </g>
                                      </g>
                                    </g>
                                  </g>
                                </g>
                              </g>
                            </g>
                            <g id="Group_5687" data-name="Group 5687" transform="translate(26.471 54.494)">
                              <g id="Group_5686" data-name="Group 5686">
                                <g id="Group_5685" data-name="Group 5685">
                                  <g id="Group_5684" data-name="Group 5684">
                                    <g id="Group_5683" data-name="Group 5683">
                                      <g id="Group_5682" data-name="Group 5682">
                                        <g id="Group_5681" data-name="Group 5681">
                                          <g id="Group_5680" data-name="Group 5680">
                                            <g id="Group_5679" data-name="Group 5679">
                                              <path id="Path_2222" data-name="Path 2222" d="M111.32,180.746a38.078,38.078,0,0,0,17.835-10.6s-1.673,11.87-16.471,14.6Z" transform="translate(-111.32 -170.146)" fill="#7c3b29"/>
                                            </g>
                                          </g>
                                        </g>
                                      </g>
                                    </g>
                                  </g>
                                </g>
                              </g>
                            </g>
                            <g id="Group_5696" data-name="Group 5696" transform="translate(23.279 43.446)">
                              <g id="Group_5695" data-name="Group 5695" transform="translate(0)">
                                <g id="Group_5694" data-name="Group 5694">
                                  <g id="Group_5693" data-name="Group 5693">
                                    <g id="Group_5692" data-name="Group 5692">
                                      <g id="Group_5691" data-name="Group 5691">
                                        <g id="Group_5690" data-name="Group 5690">
                                          <g id="Group_5689" data-name="Group 5689">
                                            <g id="Group_5688" data-name="Group 5688">
                                              <path id="Path_2223" data-name="Path 2223" d="M121.186,165.034a3.72,3.72,0,0,1,2.834-2.239,3.4,3.4,0,0,1,2.6.573,2.155,2.155,0,0,1,.828,2.325,2.5,2.5,0,0,1-2.421,1.4,7.828,7.828,0,0,1-2.97-.8,2.325,2.325,0,0,1-.734-.427.7.7,0,0,1-.206-.742" transform="translate(-121.077 -162.743)" fill="#7c3b29"/>
                                            </g>
                                          </g>
                                        </g>
                                      </g>
                                    </g>
                                  </g>
                                </g>
                              </g>
                            </g>
                            <g id="Group_5706" data-name="Group 5706" transform="translate(22.584 40.9)">
                              <g id="Group_5705" data-name="Group 5705" transform="translate(0)">
                                <g id="Group_5704" data-name="Group 5704">
                                  <g id="Group_5703" data-name="Group 5703">
                                    <g id="Group_5702" data-name="Group 5702">
                                      <g id="Group_5701" data-name="Group 5701">
                                        <g id="Group_5700" data-name="Group 5700">
                                          <g id="Group_5699" data-name="Group 5699">
                                            <g id="Group_5698" data-name="Group 5698">
                                              <g id="Group_5697" data-name="Group 5697">
                                                <path id="Path_2224" data-name="Path 2224" d="M126.954,161.042c-.328.072.278,2.231-1.136,4.285s-3.779,2.465-3.71,2.773c.009.143.631.275,1.609.025a5.576,5.576,0,0,0,3.131-2.191,4.861,4.861,0,0,0,.815-3.555C127.491,161.453,127.1,160.986,126.954,161.042Z" transform="translate(-122.107 -161.037)" fill="#263238"/>
                                              </g>
                                            </g>
                                          </g>
                                        </g>
                                      </g>
                                    </g>
                                  </g>
                                </g>
                              </g>
                            </g>
                          </g>
                        </g>
                      </g>
                      <g id="Group_5718" data-name="Group 5718" transform="translate(21.483 13.859)">
                        <g id="Group_5717" data-name="Group 5717">
                          <g id="Group_5716" data-name="Group 5716">
                            <g id="Group_5715" data-name="Group 5715">
                              <g id="Group_5714" data-name="Group 5714">
                                <g id="Group_5713" data-name="Group 5713">
                                  <g id="Group_5712" data-name="Group 5712">
                                    <g id="Group_5711" data-name="Group 5711">
                                      <g id="Group_5710" data-name="Group 5710">
                                        <path id="Path_2225" data-name="Path 2225" d="M120.375,145.815c.349.485,2.261-.333,4.673-.712,2.4-.425,4.477-.275,4.65-.848.072-.27-.4-.686-1.307-1a8.216,8.216,0,0,0-7.1,1.188C120.528,145.034,120.218,145.582,120.375,145.815Z" transform="translate(-120.335 -142.918)" fill="#263238"/>
                                      </g>
                                    </g>
                                  </g>
                                </g>
                              </g>
                            </g>
                          </g>
                        </g>
                      </g>
                      <g id="Group_5727" data-name="Group 5727" transform="translate(3.577 20.359)">
                        <g id="Group_5726" data-name="Group 5726">
                          <g id="Group_5725" data-name="Group 5725">
                            <g id="Group_5724" data-name="Group 5724">
                              <g id="Group_5723" data-name="Group 5723">
                                <g id="Group_5722" data-name="Group 5722">
                                  <g id="Group_5721" data-name="Group 5721">
                                    <g id="Group_5720" data-name="Group 5720">
                                      <g id="Group_5719" data-name="Group 5719">
                                        <path id="Path_2226" data-name="Path 2226" d="M134.176,150.51c.478.352,1.715-.5,3.355-.991,1.624-.546,3.127-.557,3.315-1.121.075-.269-.272-.658-1-.913a5.067,5.067,0,0,0-5.373,1.7C134.02,149.813,133.96,150.333,134.176,150.51Z" transform="translate(-134.055 -147.273)" fill="#263238"/>
                                      </g>
                                    </g>
                                  </g>
                                </g>
                              </g>
                            </g>
                          </g>
                        </g>
                      </g>
                    </g>
                  </g>
                </g>
              </g>
              <g id="Group_5734" data-name="Group 5734" transform="translate(5.115 4.428)">
                <g id="Group_5733" data-name="Group 5733">
                  <g id="Group_5732" data-name="Group 5732">
                    <path id="Path_2227" data-name="Path 2227" d="M110.718,143.772c3.559,4.529,10.623,10.845,16.33,10.059a16.916,16.916,0,0,0,13.06-10.1c1.925,3.9,7.077,4.885,11.409,4.471a17.1,17.1,0,0,0,8.636-2.913,9.061,9.061,0,0,0,3.871-7.923c-.33-3.058-6.419-9.18-9.487-8.956" transform="translate(-110.718 -128.406)" fill="#263238"/>
                  </g>
                </g>
              </g>
              <g id="Group_5737" data-name="Group 5737" transform="translate(38.959 1.589)">
                <g id="Group_5736" data-name="Group 5736">
                  <g id="Group_5735" data-name="Group 5735">
                    <path id="Path_2228" data-name="Path 2228" d="M106.923,144.928a9.293,9.293,0,0,0,7.595,10.672c-1.374,3.076-.792,6.76.819,9.72a26.242,26.242,0,0,0,6.747,7.438s-3.08,8.511,8.326,11.126c0,0,6.458-4.034.522-13.806a3.235,3.235,0,0,1-.484-2.34,4.065,4.065,0,0,1,1.38-1.83,11.9,11.9,0,0,0,.451-16.716,7.666,7.666,0,0,1-1.546-1.919c-.518-1.136-2.243-4.006-2.131-5.247.585-6.5-4.128-13.148-12.057-14.976-6.362-1.466-13.481-.107-16.53,5.665" transform="translate(-100.016 -126.504)" fill="#263238"/>
                  </g>
                </g>
              </g>
            </g>
          </g>
        </g>
        <g id="Group_5742" data-name="Group 5742" transform="translate(58.485 47.662)">
          <g id="Group_5741" data-name="Group 5741">
            <path id="Path_2229" data-name="Path 2229" d="M67.394,147.515c-1.5,3.033-1.089,7.841.373,9.88s3.088,4.732,1.725,6.838c-.521.8-1.424,1.363-1.737,2.267-.5,1.448.74,2.9,2.013,3.758s2.8,1.625,3.292,3.076c1,2.93-2.946,5.39-3.046,8.484-.081,2.477,2.3,4.356,2.849,6.771.776,3.392-2.186,6.592-2.186,10.071a6.128,6.128,0,0,0,2.277,4.723c1.722,1.37,4.089,1.728,5.79,3.127s2.473,3.612,3.192,5.7,1.557,4.289,3.334,5.6,4.783,1.164,5.735-.827c.515,2.864,1.3,5.855,3.364,7.9s5.8,2.668,7.819.575c1.773-1.836,2.219-5.42,4.765-5.6,1.9-.133,3.583,2.007,5.393,1.425,2.022-.652,1.894-3.925,3.771-4.919,1.907-1.01,4.8.919,6.195-.725,1.371-1.613-.785-4.511.634-6.083,1.492-1.652,4.561.589,6.381-.689,1.742-1.225,4.126-7.7,2.753-9.33C115.756,180.2,94.292,165.892,75.2,149.288" transform="translate(-66.45 -147.515)" fill="#263238"/>
          </g>
        </g>
        <g id="Group_5744" data-name="Group 5744" transform="translate(52.976)">
          <g id="Group_5743" data-name="Group 5743">
            <path id="Path_2230" data-name="Path 2230" d="M93.332,134.1c-1.5-3.394-3.025-6.952-2.8-10.654s2.816-7.545,6.513-7.848c3.892-.319,7.31,4.176,5.961,7.841,2.692-1.81,5.465-3.653,8.627-4.37s6.851-.064,8.911,2.442,1.56,6.978-1.407,8.29c2.755-.127,5.826,1.143,6.756,3.74,1.136,3.176-1.573,6.668-4.788,7.695s-6.689.319-10.011-.272-6.908-1.025-9.935.466-4.929,5.67-2.913,8.375" transform="translate(-90.508 -115.578)" fill="#263238"/>
          </g>
        </g>
        <g id="Group_5747" data-name="Group 5747" transform="translate(55.129 16.76)">
          <g id="Group_5746" data-name="Group 5746" transform="translate(0)">
            <g id="Group_5745" data-name="Group 5745">
              <path id="Path_2231" data-name="Path 2231" d="M117.291,134.529a5.056,5.056,0,0,0-1.124-2.074,14.439,14.439,0,0,0-9.7-5.574,5.039,5.039,0,0,0-2.358.073c-.031.245,3.634.213,7.38,2.412C115.277,131.5,117.1,134.678,117.291,134.529Z" transform="translate(-104.113 -126.809)" fill="#e8505b"/>
            </g>
          </g>
        </g>
        <g id="Group_5750" data-name="Group 5750" transform="translate(37.519 19.769)">
          <g id="Group_5749" data-name="Group 5749">
            <g id="Group_5748" data-name="Group 5748">
              <path id="Path_2232" data-name="Path 2232" d="M133.151,128.828a14.539,14.539,0,0,0-3.059,3.668c-1.7,2.38-3.574,6.122-7.054,8.814a10.894,10.894,0,0,1-5.628,2.168,19.668,19.668,0,0,1-5.055-.254c-2.873-.5-4.638-.977-4.671-.851a3.992,3.992,0,0,0,1.194.482,32.916,32.916,0,0,0,3.377.909,18.44,18.44,0,0,0,5.217.427,11.274,11.274,0,0,0,6.031-2.259,19.731,19.731,0,0,0,4.316-4.744c1.1-1.628,1.964-3.147,2.734-4.394C132.063,130.286,133.233,128.9,133.151,128.828Z" transform="translate(-107.683 -128.825)" fill="#455a64"/>
            </g>
          </g>
        </g>
        <g id="Group_5753" data-name="Group 5753" transform="translate(49.763 22.231)">
          <g id="Group_5752" data-name="Group 5752" transform="translate(0)">
            <g id="Group_5751" data-name="Group 5751">
              <path id="Path_2233" data-name="Path 2233" d="M121.06,130.475c-.157.019.252,1.657.278,4.259a7.588,7.588,0,0,1-1.219,4.226,9.973,9.973,0,0,1-1.939,1.83,4.868,4.868,0,0,0-1.439,2.779,8.069,8.069,0,0,1-.9,2.674,6.636,6.636,0,0,1-1.766,1.9,9.857,9.857,0,0,1-4.146,1.679c-2.579.419-4.25.327-4.246.472a3.179,3.179,0,0,0,1.154.164,17.277,17.277,0,0,0,3.177-.092,9.863,9.863,0,0,0,4.479-1.642,7.162,7.162,0,0,0,2-2.079,8.609,8.609,0,0,0,1-2.9,4.143,4.143,0,0,1,1.2-2.4,10.143,10.143,0,0,0,2.01-1.982,7.844,7.844,0,0,0,1.18-4.638,15.892,15.892,0,0,0-.467-3.147A3.262,3.262,0,0,0,121.06,130.475Z" transform="translate(-105.688 -130.475)" fill="#455a64"/>
            </g>
          </g>
        </g>
        <g id="Group_5756" data-name="Group 5756" transform="translate(7.047 15.609)">
          <g id="Group_5755" data-name="Group 5755">
            <g id="Group_5754" data-name="Group 5754">
              <path id="Path_2234" data-name="Path 2234" d="M140.807,126.041a4.007,4.007,0,0,0-1.352.679,11.237,11.237,0,0,0-2.936,2.909,13.067,13.067,0,0,0-2.209,5.731,14.283,14.283,0,0,0,1.11,7.432,16.662,16.662,0,0,0,4.465,6.041,19.353,19.353,0,0,0,5.237,3.174,20.219,20.219,0,0,0,3.947,1.158,4.687,4.687,0,0,0,1.5.143,53.725,53.725,0,0,1-5.229-1.806,20.156,20.156,0,0,1-4.983-3.21,16.517,16.517,0,0,1-4.223-5.807,14,14,0,0,1-1.113-7.04,13.089,13.089,0,0,1,1.955-5.511A15.606,15.606,0,0,1,140.807,126.041Z" transform="translate(-134.2 -126.037)" fill="#455a64"/>
            </g>
          </g>
        </g>
        <g id="Group_5759" data-name="Group 5759" transform="translate(20.276 16.553)">
          <g id="Group_5758" data-name="Group 5758">
            <g id="Group_5757" data-name="Group 5757">
              <path id="Path_2235" data-name="Path 2235" d="M137.961,126.675a3.157,3.157,0,0,0-1.049.6,12.891,12.891,0,0,0-2.4,2.246,14.762,14.762,0,0,0,.755,19.971,12.874,12.874,0,0,0,2.565,2.06,3.157,3.157,0,0,0,1.089.513,35.538,35.538,0,0,1-3.252-2.946,14.9,14.9,0,0,1-.728-19.255A35.431,35.431,0,0,1,137.961,126.675Z" transform="translate(-130.986 -126.67)" fill="#455a64"/>
            </g>
          </g>
        </g>
        <g id="Group_5762" data-name="Group 5762" transform="translate(63.062 5.164)">
          <g id="Group_5761" data-name="Group 5761" transform="translate(0)">
            <g id="Group_5760" data-name="Group 5760">
              <path id="Path_2236" data-name="Path 2236" d="M111.956,119.039a18.838,18.838,0,0,1-.321,3.009,11.075,11.075,0,0,1-4.043,5.825,24.609,24.609,0,0,1-6.541,3.271,14.039,14.039,0,0,0-2.877,1.146,11.032,11.032,0,0,0,3.046-.622,20.591,20.591,0,0,0,6.843-3.177,10.692,10.692,0,0,0,4.11-6.325A4.806,4.806,0,0,0,111.956,119.039Z" transform="translate(-98.173 -119.038)" fill="#455a64"/>
            </g>
          </g>
        </g>
        <g id="Group_5765" data-name="Group 5765" transform="translate(65.368 16.695)">
          <g id="Group_5764" data-name="Group 5764" transform="translate(0)">
            <g id="Group_5763" data-name="Group 5763">
              <path id="Path_2237" data-name="Path 2237" d="M113.4,126.768a7.733,7.733,0,0,1-2.388,2.367c-1.785,1.11-4.729,1.634-7.974,1.933-6.517.619-11.793-.47-11.826-.231a11.328,11.328,0,0,0,3.418.8,36.477,36.477,0,0,0,8.478.2c3.28-.3,6.343-.922,8.2-2.243C113.225,128.313,113.48,126.737,113.4,126.768Z" transform="translate(-91.215 -126.765)" fill="#455a64"/>
            </g>
          </g>
        </g>
        <g id="Group_5768" data-name="Group 5768" transform="translate(59.019 39.585)">
          <g id="Group_5767" data-name="Group 5767">
            <g id="Group_5766" data-name="Group 5766">
              <path id="Path_2238" data-name="Path 2238" d="M121.536,224.206a4.473,4.473,0,0,1-1,.336,3.354,3.354,0,0,1-2.691-1.086,3.9,3.9,0,0,1-1.06-1.842,7.027,7.027,0,0,1-.082-2.58c.206-1.868,1.145-3.925,1.131-6.443a5.207,5.207,0,0,0-1.354-3.665,15.29,15.29,0,0,0-3.582-2.131,4.511,4.511,0,0,1-1.488-1.336,2.1,2.1,0,0,1-.384-1.819,2.925,2.925,0,0,1,1.389-1.457,7.391,7.391,0,0,0,1.97-1.494,2.477,2.477,0,0,0,.273-2.653,4.882,4.882,0,0,0-1.806-1.942c-1.557-.958-3.325-1.077-4.705-1.96a3.236,3.236,0,0,1-1.439-1.8,4.7,4.7,0,0,1,.006-2.437c.361-1.682,1.41-3.17,2.176-4.907a7.7,7.7,0,0,0,.721-2.78,4.029,4.029,0,0,0-.173-1.455c-.076-.233-.128-.475-.225-.7l-.342-.643a11.6,11.6,0,0,0-4.165-3.48,19.387,19.387,0,0,1-4.117-2.827,4.326,4.326,0,0,1-1.218-4.167c.3-1.506,1.016-2.927,1.233-4.514a4.052,4.052,0,0,0-.334-2.368,4.161,4.161,0,0,0-1.589-1.674,37.235,37.235,0,0,1-3.538-2,3.65,3.65,0,0,1-1.286-3.14c.009-1.171.251-2.312.234-3.432a10.245,10.245,0,0,0-.478-3.092,10.945,10.945,0,0,0-2.512-4.273,9.409,9.409,0,0,0-2.48-1.91,5.935,5.935,0,0,0-.736-.346c-.17-.069-.26-.1-.264-.085a13,13,0,0,1,3.256,2.546,10.875,10.875,0,0,1,2.321,4.2,9.927,9.927,0,0,1,.4,2.959c0,1.058-.258,2.185-.29,3.429a5.375,5.375,0,0,0,.257,1.927,3.914,3.914,0,0,0,1.2,1.683,34.511,34.511,0,0,0,3.57,2.08,3.229,3.229,0,0,1,1.6,3.415c-.2,1.422-.915,2.836-1.257,4.461a5.066,5.066,0,0,0,1.385,4.822,19.75,19.75,0,0,0,4.264,2.968,10.967,10.967,0,0,1,3.892,3.228l.293.546c.081.188.121.393.187.588a3.272,3.272,0,0,1,.148,1.228,6.961,6.961,0,0,1-.66,2.5c-.706,1.627-1.809,3.183-2.216,5.044a5.436,5.436,0,0,0,.015,2.838,4,4,0,0,0,1.767,2.215c1.588.979,3.412,1.113,4.711,1.94A4.192,4.192,0,0,1,114,198.343a1.745,1.745,0,0,1-.178,1.907,6.946,6.946,0,0,1-1.779,1.342,3.555,3.555,0,0,0-1.666,1.843,2.764,2.764,0,0,0,.487,2.4,5.136,5.136,0,0,0,1.716,1.519,15.285,15.285,0,0,1,3.476,2,4.657,4.657,0,0,1,1.23,3.255c.057,2.352-.831,4.428-1.013,6.377a7.346,7.346,0,0,0,.154,2.725,4.185,4.185,0,0,0,1.209,1.967,3.467,3.467,0,0,0,2.927,1.024A1.8,1.8,0,0,0,121.536,224.206Z" transform="translate(-87.615 -142.103)" fill="#455a64"/>
            </g>
          </g>
        </g>
        <g id="Group_5771" data-name="Group 5771" transform="translate(61.773 34.117)">
          <g id="Group_5770" data-name="Group 5770" transform="translate(0)">
            <g id="Group_5769" data-name="Group 5769">
              <path id="Path_2239" data-name="Path 2239" d="M125.2,186.355a2.587,2.587,0,0,0,.264-.8,4.918,4.918,0,0,0-.161-2.407,9.463,9.463,0,0,0-1.909-3.3,30.867,30.867,0,0,0-3.7-3.4,11.332,11.332,0,0,1-3.589-4.577,10.127,10.127,0,0,1-.391-3.23,7.617,7.617,0,0,0-.687-3.644,3.822,3.822,0,0,0-3.51-1.764c-1.345-.015-2.636.3-3.919.355a3.222,3.222,0,0,1-3.2-1.289c-.643-1.048-.578-2.486-.76-3.907a6.074,6.074,0,0,0-.612-2.152,3.762,3.762,0,0,0-1.664-1.558,8.22,8.22,0,0,0-4.192-.446,15.479,15.479,0,0,1-3.822.175,3.6,3.6,0,0,1-2.876-1.579c-.543-.948-.3-2.14-.2-3.3A4.833,4.833,0,0,0,89.5,146.1a6.45,6.45,0,0,0-2.555-2.037,13.345,13.345,0,0,0-2.8-.955c-1.846-.407-3.507-.478-4.913-.861a10.183,10.183,0,0,1-3.409-1.389,5.551,5.551,0,0,1-1.952-2.418,2.665,2.665,0,0,0,.239.8,4.607,4.607,0,0,0,1.537,1.858,10.065,10.065,0,0,0,3.476,1.565c1.428.431,3.136.548,4.9.975a13.006,13.006,0,0,1,2.665.958,5.871,5.871,0,0,1,2.291,1.867,4.167,4.167,0,0,1,.633,3c-.09,1.092-.436,2.436.246,3.707a4.308,4.308,0,0,0,3.412,1.974A16,16,0,0,0,97.25,155a7.543,7.543,0,0,1,3.788.387,2.988,2.988,0,0,1,1.319,1.234,5.383,5.383,0,0,1,.519,1.874c.193,1.34.067,2.85.872,4.214a3.407,3.407,0,0,0,1.764,1.413,5.421,5.421,0,0,0,2.133.231c1.377-.069,2.655-.385,3.877-.373a3.088,3.088,0,0,1,2.9,1.385c1.061,1.991.246,4.555,1.086,6.723a11.747,11.747,0,0,0,3.843,4.785,32.315,32.315,0,0,1,3.723,3.265,9.5,9.5,0,0,1,1.949,3.112A5.932,5.932,0,0,1,125.2,186.355Z" transform="translate(-73.87 -138.439)" fill="#455a64"/>
            </g>
          </g>
        </g>
      </g>
      <g id="Group_5789" data-name="Group 5789" transform="translate(13.86 149.057)">
        <g id="Group_5786" data-name="Group 5786" transform="translate(0)">
          <g id="Group_5774" data-name="Group 5774">
            <g id="Group_5773" data-name="Group 5773">
              <path id="Path_2240" data-name="Path 2240" d="M151.627,228.541l-4.9-12.388a1.1,1.1,0,0,0-1.021-.7H121.918a1.1,1.1,0,0,0-1.031,1.479l14.01,37.993a1.1,1.1,0,0,0,1.03.718h24.92a1.1,1.1,0,0,0,1.019-1.506Z" transform="translate(-120.818 -215.457)" fill="#263238"/>
            </g>
          </g>
          <g id="Group_5776" data-name="Group 5776" transform="translate(1.722 11.988)">
            <g id="Group_5775" data-name="Group 5775">
              <path id="Path_2241" data-name="Path 2241" d="M128.061,258.719l-2.007-24.5L128.1,223.49l3.294,8.933v3.607c1.213-.316,12.506-9.893,15.539-7.831s10.8,13.372,10.8,13.372-13.654,13.333-15.839,14.336c0,0,2.483,9.839,3.261,13.454s1.534,14.055-3.261,15.661-17.647-9.836-15.839-17.067C127.258,263.137,128.061,258.719,128.061,258.719Z" transform="translate(-125.881 -223.49)" fill="#a36957"/>
            </g>
          </g>
          <g id="Group_5785" data-name="Group 5785" transform="translate(12.002 9.978)">
            <g id="Group_5778" data-name="Group 5778" transform="translate(0.537 0.322)">
              <g id="Group_5777" data-name="Group 5777">
                <path id="Path_2242" data-name="Path 2242" d="M147.069,227.741l-1.194,14.33-34.481-12.609-15.355-7.1-6.719,1.688s-21.113,1.383-21.305,2.727-1.152,2.5,0,2.688,17.85.96,17.85.96-18.006,1.152-18.408,2.5.175,3.455,1.134,3.455H88.168s-18.426,1.152-18.617,1.919-1.536,2.112.191,2.688,18.619,1.151,18.619,1.151l-15.931,2.88s-.576,2.5.767,2.5,36.086,2.3,36.086,2.3,40.69,25.952,48.369,27.831c7.817,1.915,14.4-7,15.342-13.278,1.428-9.471,2.752-34.244,2.752-34.244Z" transform="translate(-67.327 -222.359)" fill="#a36957"/>
              </g>
            </g>
            <g id="Group_5781" data-name="Group 5781" transform="translate(0)">
              <g id="Group_5780" data-name="Group 5780">
                <g id="Group_5779" data-name="Group 5779">
                  <path id="Path_2243" data-name="Path 2243" d="M129.834,249.913a4.614,4.614,0,0,0-.7-.087l-2.071-.173-7.96-.585c-3.468-.242-7.689-.534-12.578-.873l-7.844-.531-4.279-.287a3.176,3.176,0,0,1-1.922-.5c-.331-.348.191-1.1.694-1.546l-.137.066c4.852-.866,10.23-1.824,15.939-2.84a.33.33,0,0,0,.266-.381.333.333,0,0,0-.313-.27l-9.438-.416-4.923-.3c-.828-.058-1.665-.121-2.5-.209-.816-.112-1.745-.106-2.194-.558-.47-.39-.213-1.364.287-1.658a8.07,8.07,0,0,1,1.152-.2l1.294-.154,5.274-.546,10.878-1.015a.381.381,0,0,0-.034-.76l-11.876-.006H89.237c-.258.045-.564-.319-.758-.715a1.686,1.686,0,0,1,.394-2.249,10.787,10.787,0,0,1,2.073-.455l2.237-.315,4.465-.534,8.805-.912a.383.383,0,0,0,.346-.419.387.387,0,0,0-.364-.346L95.072,229.6l-5.519-.313a3.913,3.913,0,0,1-1.166-.169.858.858,0,0,1-.3-.84,1.578,1.578,0,0,1,.5-.945,2.47,2.47,0,0,1,1.072-.418c3.444-.713,6.96-1.048,10.335-1.443q5.082-.551,9.9-.979l.054-.009,6.714-1.7-.213-.021,15.374,7.062.021.009,25.273,9.109,6.884,2.439,1.8.615a4.168,4.168,0,0,0,.621.185,3.834,3.834,0,0,0-.594-.261l-1.77-.688-6.834-2.579-25.188-9.342.021.009q-7.063-3.291-15.337-7.143a.321.321,0,0,0-.213-.019q-3.277.815-6.722,1.674l.054-.009q-4.829.416-9.924.948c-3.4.39-6.868.7-10.433,1.433a3.085,3.085,0,0,0-1.389.584,2.3,2.3,0,0,0-.739,1.4,1.585,1.585,0,0,0,.636,1.561,3.773,3.773,0,0,0,1.506.282l5.534.325,11.366.561-.018-.766-8.82.906-4.479.534-2.256.318a9.636,9.636,0,0,0-2.352.557,2.093,2.093,0,0,0-1,1.533,3.24,3.24,0,0,0,.3,1.716,2.779,2.779,0,0,0,.507.739,1.471,1.471,0,0,0,.412.3,1.139,1.139,0,0,0,.54.116h7.607l11.876-.006-.033-.76L97.8,237.131l-5.283.558-1.3.158a6.408,6.408,0,0,0-1.4.281,1.928,1.928,0,0,0-.881,1.3,1.627,1.627,0,0,0,.424,1.513,2.433,2.433,0,0,0,1.346.6c.434.06.863.121,1.285.157.849.087,1.688.146,2.522.2l4.938.281,9.451.382-.048-.651-15.924,2.919-.009,0a.273.273,0,0,0-.13.064,3.877,3.877,0,0,0-.785.972,1.207,1.207,0,0,0,.046,1.382,3.45,3.45,0,0,0,2.285.672l4.285.26,7.854.47,12.6.734,7.974.433,2.077.091A4.326,4.326,0,0,0,129.834,249.913Z" transform="translate(-87.342 -222.143)" fill="#7c3b29"/>
                </g>
              </g>
            </g>
            <g id="Group_5784" data-name="Group 5784" transform="translate(79.079 20.024)">
              <g id="Group_5783" data-name="Group 5783" transform="translate(0)">
                <g id="Group_5782" data-name="Group 5782">
                  <path id="Path_2244" data-name="Path 2244" d="M90.926,251.861a8.6,8.6,0,0,0-.261-3.016,19.176,19.176,0,0,0-2.753-6.786,18.466,18.466,0,0,0-5.223-5.135,8.387,8.387,0,0,0-2.707-1.354c-.193.246,4.158,2.259,7.284,6.92a22.782,22.782,0,0,1,2.865,6.481A18.325,18.325,0,0,0,90.926,251.861Z" transform="translate(-79.974 -235.561)" fill="#7c3b29"/>
                </g>
              </g>
            </g>
          </g>
        </g>
        <g id="Group_5788" data-name="Group 5788" transform="translate(12.445 7.673)">
          <g id="Group_5787" data-name="Group 5787" transform="translate(0)">
            <path id="Path_2245" data-name="Path 2245" d="M138.26,220.966a1.84,1.84,0,1,0,2.455.316A1.756,1.756,0,0,0,138.26,220.966Z" transform="translate(-137.711 -220.598)" fill="#fafafa"/>
          </g>
        </g>
      </g>
    </g>
  </g>
</svg>
