<svg id="shop" xmlns="http://www.w3.org/2000/svg" width="32.946" height="32.943" viewBox="0 0 32.946 32.943">
  <path id="Path_1968" data-name="Path 1968" d="M32.464.02H.482A.483.483,0,0,0,0,.5V1.986a.483.483,0,0,0,.482.482H32.464a.483.483,0,0,0,.482-.482V.5A.483.483,0,0,0,32.464.02Z" transform="translate(0 -0.02)" fill="#434c83"/>
  <path id="Path_1969" data-name="Path 1969" d="M65.708,163.14a3.892,3.892,0,0,1-5.865,0,3.891,3.891,0,0,1-5.863,0,3.892,3.892,0,0,1-5.864,0,3.891,3.891,0,0,1-4.9.8v21a.643.643,0,0,0,.643.643h3.715V171.429a2.412,2.412,0,0,1,2.412-2.412H63.832a2.412,2.412,0,0,1,2.412,2.412v14.158H69.96a.643.643,0,0,0,.643-.643v-21A3.89,3.89,0,0,1,65.708,163.14Z" transform="translate(-40.439 -152.644)" fill="#434c83"/>
  <path id="Path_1970" data-name="Path 1970" d="M140.96,284.952V299.11H147.4V284.47h-5.955A.483.483,0,0,0,140.96,284.952Z" transform="translate(-131.89 -266.166)" fill="#434c83"/>
  <path id="Path_1971" data-name="Path 1971" d="M276.955,284.47H271v14.64h6.437V284.952A.483.483,0,0,0,276.955,284.47Z" transform="translate(-253.562 -266.166)" fill="#434c83"/>
  <path id="Path_1972" data-name="Path 1972" d="M45.143,73.562A1.969,1.969,0,0,0,47.111,71.6V68.04H43.177c0,3.842,0,3.589,0,3.656A1.969,1.969,0,0,0,45.143,73.562Z" transform="translate(-40.398 -63.663)" fill="#434c83"/>
  <path id="Path_1973" data-name="Path 1973" d="M138.244,71.6V68.04H134.31V71.6a1.967,1.967,0,0,0,3.934,0Z" transform="translate(-125.668 -63.663)" fill="#434c83"/>
  <path id="Path_1974" data-name="Path 1974" d="M229.373,71.6V68.04H225.44V71.6a1.966,1.966,0,0,0,3.933,0Z" transform="translate(-210.934 -63.663)" fill="#434c83"/>
  <path id="Path_1975" data-name="Path 1975" d="M320.494,71.6V68.04H316.56V71.6a1.967,1.967,0,0,0,3.934,0Z" transform="translate(-296.19 -63.663)" fill="#434c83"/>
  <path id="Path_1976" data-name="Path 1976" d="M411.621,68.04H407.69V71.6a1.967,1.967,0,0,0,3.934,0V68.041h0Z" transform="translate(-381.456 -63.663)" fill="#434c83"/>
</svg>
