<svg xmlns="http://www.w3.org/2000/svg" width="649.802" height="650.357" viewBox="0 0 649.802 650.357">
  <g id="Group_5880" data-name="Group 5880" transform="translate(-117 -2444)">
    <circle id="Ellipse_28" data-name="Ellipse 28" cx="60" cy="60" r="60" transform="matrix(0.966, -0.259, 0.259, 0.966, 117, 2514.038)" fill="rgba(2,2,72,0.05)"/>
    <g id="Successful_purchase-pana" data-name="Successful purchase-pana" transform="translate(88.41 2410.39)">
      <g id="freepik--background-complete--inject-2" transform="translate(133.004 33.61)">
        <path id="Path_1745" data-name="Path 1745" d="M108.546,275.357s-13.532,3.577-2.146,32.788,19.822,43.966,19.822,43.966,1.863,6.707-3.666,7.154-17.3-2.653-20.388,3.756,1.148,13.637,10.731,20.358,30.016,22.236,31.864,23.637,3.443,4.59-.283,5.5-30.9,1.013-30.076,13.905,30.582,27.244,33.8,28.883,3.875,3.13,3.428,4.933-9.6,1-17.333,1.341-16.632,2.1-15.53,9.494,17.884,24.412,61.85,33.22l20.656,2.757,13.041-16.394c25.753-36.737,26.171-60.613,21.864-66.724s-11.923-1.252-17.81,3.83-11.923,11.923-13.413,11-2.146-2.548-.939-5.961,12.862-34.278,4.561-44.219-28.049,8.778-31.372,10.671-4.352-1.49-3.994-3.786,4.471-27.616,6.766-39.092.611-19.539-6.289-22.147c-6.647-2.5-13.026,7.869-17.348,11.357s-7.586-2.653-7.586-2.653-4.069-16.5-15.977-45.5S108.322,275.4,108.322,275.4" transform="translate(-100.355 84.595)" fill="#ebebeb"/>
        <path id="Path_1746" data-name="Path 1746" d="M196.092,503.2c-8.659-21.327-23.443-59.51-36.275-92.224s-24.487-62.3-33.041-83.669c-4.292-10.656-7.75-19.375-10.164-25.336l-2.757-6.885-.7-1.789a5.955,5.955,0,0,1-.224-.626s.1.194.283.6.432,1.013.76,1.774l2.876,6.841c2.474,5.961,5.961,14.561,10.343,25.232,8.659,21.327,20.388,50.9,33.235,83.609s27.527,70.911,36.1,92.283" transform="translate(-94.589 93.423)" fill="#e0e0e0"/>
        <path id="Path_1747" data-name="Path 1747" d="M112.77,337.31a6.83,6.83,0,0,1,1.4.551c.894.388,2.161.984,3.711,1.729,3.115,1.49,7.362,3.711,12.012,6.23l11.923,6.468,3.607,1.923a6.929,6.929,0,0,1,1.3.775,9.129,9.129,0,0,1-1.416-.537c-.879-.387-2.146-1-3.7-1.759-3.1-1.49-7.318-3.8-11.923-6.3l-11.923-6.379-3.607-1.923A5.8,5.8,0,0,1,112.77,337.31Z" transform="translate(-94.668 115.313)" fill="#e0e0e0"/>
        <path id="Path_1748" data-name="Path 1748" d="M136.552,361.443c-.164-.075,3.979-9.032,9.255-20s9.672-19.807,9.836-19.732-3.979,9.046-9.255,20.016S136.715,361.533,136.552,361.443Z" transform="translate(-83.009 107.663)" fill="#e0e0e0"/>
        <path id="Path_1749" data-name="Path 1749" d="M148.26,392.561a7.455,7.455,0,0,1,.969-1.192l2.8-3.115c2.355-2.623,5.589-6.274,8.942-10.433s6.409-8,8.54-10.82c1.013-1.312,1.848-2.429,2.534-3.324a6.63,6.63,0,0,1,.984-1.177,6.32,6.32,0,0,1-.775,1.326c-.551.82-1.341,2.012-2.37,3.458-2.042,2.876-4.963,6.8-8.406,10.954s-6.736,7.78-9.181,10.328c-1.222,1.267-2.221,2.3-2.981,2.981a6.9,6.9,0,0,1-1.058,1.013Z" transform="translate(-77.265 127.665)" fill="#e0e0e0"/>
        <path id="Path_1750" data-name="Path 1750" d="M124.55,377.4a5.845,5.845,0,0,1,1.49.164l3.8.686c3.2.611,7.631,1.49,12.5,2.519s9.27,1.982,12.459,2.7l3.756.894a5.958,5.958,0,0,1,1.371.417,5.8,5.8,0,0,1-1.49-.164l-3.8-.7c-3.219-.611-7.631-1.49-12.5-2.5s-9.285-1.982-12.459-2.712l-3.771-.879a5.646,5.646,0,0,1-1.356-.417Z" transform="translate(-88.891 134.971)" fill="#e0e0e0"/>
        <path id="Path_1751" data-name="Path 1751" d="M131,409a9.945,9.945,0,0,1,1.818.238l4.874.864c4.113.76,9.792,1.848,16.036,3.085s11.923,2.414,16.021,3.294l4.829,1.058a9.584,9.584,0,0,1,1.759.477,8.944,8.944,0,0,1-1.8-.223l-4.873-.864c-4.113-.76-9.792-1.848-16.051-3.1s-11.923-2.414-16.007-3.279l-4.844-1.073A10.663,10.663,0,0,1,131,409Z" transform="translate(-85.729 150.467)" fill="#e0e0e0"/>
        <path id="Path_1752" data-name="Path 1752" d="M160.78,427.493a10.522,10.522,0,0,1,1.177-1.49l3.4-4.069c2.876-3.443,6.811-8.212,11.014-13.607s7.884-10.343,10.522-13.965l3.13-4.292a12.159,12.159,0,0,1,1.207-1.49,9.79,9.79,0,0,1-1,1.669c-.686,1.058-1.684,2.563-2.981,4.471-2.549,3.681-6.17,8.7-10.433,14.1s-8.212,10.12-11.163,13.5c-1.49,1.669-2.7,2.981-3.562,3.935a11.442,11.442,0,0,1-1.311,1.237Z" transform="translate(-71.126 140.454)" fill="#e0e0e0"/>
        <rect id="Rectangle_2254" data-name="Rectangle 2254" width="144.744" height="222.586" rx="7.54" transform="translate(306.394 457.096) rotate(-31.14)" fill="#ebebeb"/>
        <path id="Path_1753" data-name="Path 1753" d="M443.523,420.152a15.351,15.351,0,1,1,6.971-9.466A15.366,15.366,0,0,1,443.523,420.152Z" transform="translate(56.085 141.953)" fill="#fff"/>
        <path id="Path_1754" data-name="Path 1754" d="M442.258,433.9a15.591,15.591,0,0,1-3.875-.477,15.977,15.977,0,1,1,3.875.477Zm0-30.731a14.606,14.606,0,1,0,7.452,27.169h0a14.62,14.62,0,0,0-4.069-26.707,14.111,14.111,0,0,0-3.487-.462Z" transform="translate(59.065 147.01)" fill="#fff"/>
        <path id="Path_1755" data-name="Path 1755" d="M346.7,334.8l-10.582,6.379-.656-1.073,9.613-5.812-1.49-2.489.969-.581Z" transform="translate(14.531 112.327)" fill="#fff"/>
        <path id="Path_1756" data-name="Path 1756" d="M342.79,349l-.969.581-4.471-7.452.76-.477,6.96,1.8a4.068,4.068,0,0,0,3.473-.164c1.222-.745,1.49-2.057.492-3.666a4.247,4.247,0,0,0-2.981-2.176l.194-1.177a5.559,5.559,0,0,1,3.771,2.832c1.3,2.146,1.028,4.173-.73,5.231a5.1,5.1,0,0,1-4.367.268l-5.708-1.49Z" transform="translate(15.458 114.803)" fill="#fff"/>
        <path id="Path_1757" data-name="Path 1757" d="M348.559,354.723l-1.282-2.116-2.787,1.669-.656-1.088,2.772-1.669L343,345.557l.79-.477,10.433,1.371.73,1.207-10.09-1.282,2.772,4.59,2.444-1.49.641,1.058-2.444,1.49,1.282,2.116Z" transform="translate(18.228 119.123)" fill="#fff"/>
        <path id="Path_1758" data-name="Path 1758" d="M355.124,365.593l-1.282-2.116-2.772,1.684-.656-1.088,2.772-1.684-3.607-5.961.79-.477,10.432,1.371.73,1.207-10.09-1.282,2.772,4.59,2.459-1.49.626,1.058-2.444,1.49,1.312,2.072Z" transform="translate(21.455 124.453)" fill="#fff"/>
        <path id="Path_1759" data-name="Path 1759" d="M359.425,372.045c-1.788,1.088-3.964.671-5.514-1.908a6.409,6.409,0,0,1-.939-4.605h1.177a5.38,5.38,0,0,0,.745,3.994c1.088,1.788,2.534,2.221,3.815,1.49s1.7-2.176,0-4.873l-1.356-2.25,5.634-2.653,3.487,5.783-.969.581-2.981-4.829-3.577,1.669.82,1.356C361.825,368.945,361.3,370.912,359.425,372.045Z" transform="translate(23.071 127.047)" fill="#fff"/>
        <path id="Path_1760" data-name="Path 1760" d="M363.59,378.9a3.845,3.845,0,0,1-5.425-1.639c-1.7-2.817-.671-5.514,2.668-7.541,3.592-2.161,6.647-1.326,8.376,1.49a5.722,5.722,0,0,1,.954,2.862l-1.148.089a4.322,4.322,0,0,0-.745-2.355c-1.371-2.28-3.726-2.862-6.587-1.133a9.238,9.238,0,0,0-.835.566,3.92,3.92,0,0,1,3.756,2.146,3.726,3.726,0,0,1-1.013,5.514Zm-.686-1.043a2.7,2.7,0,1,0-2.158.228,2.713,2.713,0,0,0,2.158-.228Z" transform="translate(25.269 130.608)" fill="#fff"/>
        <path id="Path_1761" data-name="Path 1761" d="M369.452,389.089c-1.759,1.073-3.89.611-5.44-1.952a6.364,6.364,0,0,1-.939-4.62h1.177a5.411,5.411,0,0,0,.76,4.024c1.058,1.759,2.459,2.221,3.771,1.49s1.565-2.161.373-4.128l-.447-.745.79-.492,5.44.715-3.264-5.41.969-.581,4.113,6.8-.775.462-5.574-.715C371.658,386.213,371.151,388.076,369.452,389.089Z" transform="translate(28.022 134.967)" fill="#fff"/>
        <path id="Path_1762" data-name="Path 1762" d="M373.75,395.736a3.845,3.845,0,0,1-5.425-1.654c-1.7-2.8-.671-5.514,2.668-7.526,3.592-2.176,6.662-1.341,8.391,1.49a5.753,5.753,0,0,1,.939,2.846l-1.133.089a4.472,4.472,0,0,0-.745-2.355c-1.386-2.28-3.726-2.862-6.6-1.118-.238.134-.536.343-.835.551a3.994,3.994,0,0,1,3.771,2.146,3.741,3.741,0,0,1-1.028,5.529Zm-.671-1.058a2.712,2.712,0,1,0-2.161.235A2.713,2.713,0,0,0,373.08,394.678Z" transform="translate(30.251 138.857)" fill="#fff"/>
        <path id="Path_1763" data-name="Path 1763" d="M385.21,398.4l-.76.462-12.489,1.49-.7-1.177,12.236-1.49-3.294-5.44-1.967,1.192-.656-1.073,2.981-1.773Z" transform="translate(32.086 141.44)" fill="#fff"/>
        <path id="Path_1764" data-name="Path 1764" d="M391.34,408.57l-.76.462-12.489,1.49-.7-1.177,12.236-1.49-3.294-5.44-1.982,1.207-.641-1.073,2.981-1.788Z" transform="translate(35.092 146.427)" fill="#fff"/>
        <path id="Path_1765" data-name="Path 1765" d="M387.994,419.763c-1.863,1.133-3.994.238-5.514-2.28s-1.3-4.784.566-5.961a3.1,3.1,0,0,1,3.845.477,2.772,2.772,0,0,1,1.312-3.07c1.729-1.043,3.681-.224,5.037,2.012s1.177,4.382-.537,5.425a2.832,2.832,0,0,1-3.353-.283A3.13,3.13,0,0,1,387.994,419.763Zm-.656-1.133c1.3-.79,1.49-2.4.313-4.262s-2.623-2.489-3.92-1.7-1.49,2.385-.328,4.262S386.027,419.42,387.339,418.63Zm1.163-4.784c1,1.639,2.34,2.176,3.487,1.49s1.282-2.206.328-3.8-2.31-2.161-3.487-1.49S387.517,412.236,388.5,413.846Z" transform="translate(37.096 150.212)" fill="#fff"/>
        <path id="Path_1766" data-name="Path 1766" d="M394.72,425.185c-3.592,2.176-6.662,1.341-8.391-1.49a5.843,5.843,0,0,1-.939-2.861l1.133-.089a4.472,4.472,0,0,0,.745,2.355c1.386,2.28,3.726,2.861,6.6,1.133.238-.149.536-.343.835-.566a3.979,3.979,0,0,1-3.771-2.146,3.726,3.726,0,0,1,1.028-5.47,3.83,3.83,0,0,1,5.425,1.639C399.086,420.4,398.058,423.1,394.72,425.185Zm1.192-2.757a2.877,2.877,0,0,0,.581-4.173,2.7,2.7,0,1,0-4.471,2.847,2.847,2.847,0,0,0,3.89,1.252Z" transform="translate(39.015 153.657)" fill="#fff"/>
        <path id="Path_1767" data-name="Path 1767" d="M403.172,428.177l-10.567,6.394-.656-1.088,9.6-5.812-1.49-2.489.969-.581Z" transform="translate(42.232 158.117)" fill="#fff"/>
        <path id="Path_1768" data-name="Path 1768" d="M399.24,442.408l-.969.6-4.471-7.452.775-.462,6.96,1.788a4.083,4.083,0,0,0,3.472-.164c1.222-.73,1.49-2.057.477-3.666a4.188,4.188,0,0,0-2.981-2.176l.194-1.162a5.529,5.529,0,0,1,3.785,2.832c1.3,2.146,1.028,4.158-.745,5.231a5.068,5.068,0,0,1-4.352.253l-5.708-1.49Z" transform="translate(43.139 160.623)" fill="#fff"/>
        <path id="Path_1769" data-name="Path 1769" d="M404.812,447.609c-1.773,1.073-3.9.611-5.44-1.952a6.364,6.364,0,0,1-.939-4.62h1.177a5.41,5.41,0,0,0,.76,4.024c1.058,1.744,2.459,2.221,3.771,1.49s1.49-2.161.373-4.128l-.462-.76.8-.477,5.44.715-3.264-5.41.969-.581,4.1,6.8-.76.462-5.574-.715C407.018,444.733,406.511,446.581,404.812,447.609Z" transform="translate(45.361 163.663)" fill="#fff"/>
        <rect id="Rectangle_2255" data-name="Rectangle 2255" width="5.392" height="99.469" transform="matrix(0.856, -0.517, 0.517, 0.856, 389.538, 540.115)" fill="#fff"/>
        <rect id="Rectangle_2256" data-name="Rectangle 2256" width="5.365" height="50.762" transform="translate(401.322 586.126) rotate(-31.14)" fill="#fff"/>
        <rect id="Rectangle_2257" data-name="Rectangle 2257" width="41.522" height="31.029" rx="4.96" transform="translate(393.004 419.028) rotate(58.86)" fill="#e0e0e0"/>
        <path id="Path_1770" data-name="Path 1770" d="M351.43,324.737l1.7-1.028,11.073,18.3a4.473,4.473,0,0,0,7.661-4.62l-11.059-18.3,1.7-1.028,11.059,18.3a6.459,6.459,0,0,1-11.059,6.677Z" transform="translate(22.362 105.874)" fill="#ebebeb"/>
        <rect id="Rectangle_2258" data-name="Rectangle 2258" width="2.007" height="14.753" transform="matrix(0.856, -0.517, 0.517, 0.856, 396.159, 450.584)" fill="#ebebeb"/>
        <rect id="Rectangle_2259" data-name="Rectangle 2259" width="106.799" height="9.166" transform="translate(417.411 410.027) rotate(58.86)" fill="#fff"/>
        <path id="Path_1771" data-name="Path 1771" d="M262.591,33.61c-1.133,16.1,0,46.082-5.857,61.1s-13.682,30.523-28.317,37.259c-18.063,8.286-39.286,4.769-58.556,9.628-30.195,7.6-52.043,35.307-61.358,65.025s-8.286,61.552-7.169,92.671l154.1,21.372s.8-62.6,14.248-79.72,77.305-32.49,98.364-79.3C387.036,119.515,392.759,52.7,392.759,52.7Z" transform="translate(-100.624 -33.61)" fill="#f5f5f5"/>
        <path id="Path_1772" data-name="Path 1772" d="M236.924,65.737l-2-3.681a5.5,5.5,0,0,1-.835,0l-2.832-.343-.417,3.338-1.1-.134,1.3-10.537,3.935.492c2.683.328,4.128,1.893,3.86,4.143A3.294,3.294,0,0,1,236.014,62l2.116,3.92Zm.79-6.915c.209-1.684-.79-2.787-2.891-2.981l-2.8-.343-.641,5.276,2.787.343c2.116.149,3.413-.626,3.547-2.28Z" transform="translate(-37.31 -23.425)" fill="#e0e0e0"/>
        <path id="Path_1773" data-name="Path 1773" d="M244.591,65.737l-.119.954-7.452-.909,1.3-10.522,7.213.879-.119.969-6.081-.745-.462,3.756,5.44.671-.119.939-5.44-.671-.492,3.9Z" transform="translate(-33.74 -22.994)" fill="#e0e0e0"/>
        <path id="Path_1774" data-name="Path 1774" d="M243.556,61.1a5.336,5.336,0,0,1,6.185-4.68,5.142,5.142,0,0,1,3.651,2.012l-.79.626a4.158,4.158,0,0,0-2.981-1.639,4.4,4.4,0,1,0-1.088,8.719,4.143,4.143,0,0,0,3.279-.879l.611.8a5.186,5.186,0,0,1-4.054,1.058,5.335,5.335,0,0,1-4.814-6.021Z" transform="translate(-30.559 -22.459)" fill="#e0e0e0"/>
        <path id="Path_1775" data-name="Path 1775" d="M258.541,67.462l-.119.969L251,67.462l1.3-10.522,7.213.894-.119.954-6.111-.745-.462,3.741,5.44.671-.1.954-5.44-.671-.492,3.9Z" transform="translate(-26.885 -22.17)" fill="#e0e0e0"/>
        <path id="Path_1776" data-name="Path 1776" d="M259.042,57.81l1.1.149-1.3,10.567-1.118-.149Z" transform="translate(-23.585 -21.743)" fill="#e0e0e0"/>
        <path id="Path_1777" data-name="Path 1777" d="M269.871,62.81c-.283,2.25-2.072,3.4-4.739,3.07l-2.832-.358-.4,3.324-1.118-.134,1.3-10.522,3.935.492C268.694,59.01,270.154,60.56,269.871,62.81Zm-1.118-.134c.209-1.684-.775-2.772-2.891-2.981l-2.787-.343-.656,5.261,2.8.343C267.323,65.165,268.56,64.33,268.753,62.676Z" transform="translate(-22.089 -21.557)" fill="#e0e0e0"/>
        <path id="Path_1778" data-name="Path 1778" d="M271.066,60.326l-3.7-.462.119-.954L276,59.953l-.119.969-3.7-.388L271.006,70.1l-1.118-.149Z" transform="translate(-18.858 -21.204)" fill="#e0e0e0"/>
        <path id="Path_1779" data-name="Path 1779" d="M279.3,82.059c0,.224-14.084-1.49-31.372-3.875s-31.3-4.471-31.3-4.65,14.069,1.49,31.3,3.875S279.315,81.851,279.3,82.059Z" transform="translate(-43.739 -14.039)" fill="#e0e0e0"/>
        <path id="Path_1780" data-name="Path 1780" d="M278.135,90.479c0,.224-14.069-1.49-31.3-3.875s-31.3-4.471-31.3-4.65,14.069,1.49,31.3,3.875S278.165,90.271,278.135,90.479Z" transform="translate(-44.273 -9.91)" fill="#e0e0e0"/>
        <path id="Path_1781" data-name="Path 1781" d="M274.285,99.075c0,.209-14.069-1.49-31.3-3.875s-31.3-4.471-31.3-4.665,14.054,1.49,31.3,3.89S274.315,98.866,274.285,99.075Z" transform="translate(-46.161 -5.704)" fill="#e0e0e0"/>
        <path id="Path_1782" data-name="Path 1782" d="M267.3,107.729c0,.224-14.069-1.49-31.372-3.875s-31.3-4.471-31.3-4.65,14.069,1.49,31.372,3.875S267.33,107.521,267.3,107.729Z" transform="translate(-49.623 -1.451)" fill="#e0e0e0"/>
        <path id="Path_1783" data-name="Path 1783" d="M256.105,116.384c0,.209-14.069-1.49-31.3-3.89s-31.3-4.471-31.3-4.65,14.069,1.49,31.3,3.89S256.135,116.161,256.105,116.384Z" transform="translate(-55.076 2.785)" fill="#e0e0e0"/>
        <path id="Path_1784" data-name="Path 1784" d="M282.541,82.879A78.184,78.184,0,0,1,267.25,80.39a39.644,39.644,0,0,1,7.72.864A38.838,38.838,0,0,1,282.541,82.879Z" transform="translate(-18.917 -10.671)" fill="#e0e0e0"/>
        <path id="Path_1785" data-name="Path 1785" d="M282.166,90.384a39.644,39.644,0,0,1-7.675-.85,38.841,38.841,0,0,1-7.571-1.625,37.035,37.035,0,0,1,7.705.864,39.511,39.511,0,0,1,7.541,1.61Z" transform="translate(-19.078 -6.983)" fill="#e0e0e0"/>
        <path id="Path_1786" data-name="Path 1786" d="M279.631,100.847a39.912,39.912,0,0,1-7.72-.894,47.321,47.321,0,0,1-7.571-1.595c0-.268,3.487.134,7.705.82A38.749,38.749,0,0,1,279.631,100.847Z" transform="translate(-20.344 -1.901)" fill="#e0e0e0"/>
        <path id="Path_1787" data-name="Path 1787" d="M275.951,109.6a39.917,39.917,0,0,1-7.72-.894,47.811,47.811,0,0,1-7.571-1.595c0-.268,3.487.134,7.705.82a38.435,38.435,0,0,1,7.586,1.669Z" transform="translate(-22.148 2.389)" fill="#e0e0e0"/>
        <path id="Path_1788" data-name="Path 1788" d="M268.031,117.946a39.805,39.805,0,0,1-7.72-.894,45.443,45.443,0,0,1-7.571-1.595c0-.268,3.487.134,7.69.835a39.449,39.449,0,0,1,7.6,1.654Z" transform="translate(-26.032 6.484)" fill="#e0e0e0"/>
        <path id="Path_1789" data-name="Path 1789" d="M256.942,128.513c0,.209-21.1-2.593-47.066-6.274S162.87,115.412,162.9,115.2s21.1,2.593,47.081,6.274S256.942,128.319,256.942,128.513Z" transform="translate(-70.086 6.395)" fill="#e0e0e0"/>
        <path id="Path_1790" data-name="Path 1790" d="M252.01,138.291a9.044,9.044,0,0,1-1.043-.089l-2.981-.388-10.88-1.595-35.858-5.514c-13.995-2.206-26.648-4.262-35.769-5.8l-10.835-1.863c-1.282-.238-2.265-.417-2.981-.566a4.6,4.6,0,0,1-1.013-.268,6.646,6.646,0,0,1,1.043.119l2.981.417,10.88,1.624,35.858,5.559,35.769,5.753,10.835,1.833,2.981.536a4.174,4.174,0,0,1,1.013.238Z" transform="translate(-76.093 9.836)" fill="#e0e0e0"/>
        <path id="Path_1791" data-name="Path 1791" d="M238.172,146.121a17.5,17.5,0,0,1-3.875-.343c-2.519-.328-6.17-.835-10.686-1.49-9.017-1.3-21.461-3.189-35.187-5.335s-26.171-4.158-35.158-5.648l-10.641-1.788-2.876-.537a4.545,4.545,0,0,1-1-.238,4.308,4.308,0,0,1,1.013.089l2.906.373,10.686,1.49,35.187,5.41,35.158,5.574Z" transform="translate(-81.928 14.018)" fill="#e0e0e0"/>
        <path id="Path_1792" data-name="Path 1792" d="M254.821,129.847a39.912,39.912,0,0,1-7.72-.894,47.807,47.807,0,0,1-7.571-1.595c0-.268,3.487.134,7.705.82a38.109,38.109,0,0,1,7.586,1.669Z" transform="translate(-32.51 12.319)" fill="#e0e0e0"/>
        <path id="Path_1793" data-name="Path 1793" d="M244.631,135.507a39.917,39.917,0,0,1-7.72-.894,47.808,47.808,0,0,1-7.571-1.595c0-.268,3.487.134,7.705.82a38.111,38.111,0,0,1,7.586,1.669Z" transform="translate(-37.506 15.095)" fill="#e0e0e0"/>
        <path id="Path_1794" data-name="Path 1794" d="M230.911,145.056a39.911,39.911,0,0,1-7.72-.894,45.888,45.888,0,0,1-7.571-1.595c0-.268,3.487.134,7.705.835A38.753,38.753,0,0,1,230.911,145.056Z" transform="translate(-44.234 19.778)" fill="#e0e0e0"/>
        <path id="Path_1795" data-name="Path 1795" d="M237.908,165.177c0,.224-26.1-3.622-58.124-8.555s-58.124-9.121-58.124-9.33,26.081,3.622,58.124,8.57S237.938,164.968,237.908,165.177Z" transform="translate(-90.309 22.132)" fill="#e0e0e0"/>
        <path id="Path_1796" data-name="Path 1796" d="M201.7,180.253c0,.209-8.585-1-19.077-2.7s-18.987-3.249-18.957-3.458,8.584,1,19.077,2.7S201.734,180.029,201.7,180.253Z" transform="translate(-69.708 35.268)" fill="#e0e0e0"/>
      </g>
      <g id="freepik--Floor--inject-2" transform="translate(34.59 674.287)">
        <path id="Path_1797" data-name="Path 1797" d="M676.668,463.878c0,.224-143.745.387-321.024.387S34.59,464.1,34.59,463.878s143.716-.388,321.054-.388S676.668,463.669,676.668,463.878Z" transform="translate(-34.59 -463.49)" fill="#263238"/>
      </g>
      <g id="freepik--Character--inject-2" transform="translate(38.308 142.009)">
        <path id="Path_1798" data-name="Path 1798" d="M148.375,124.52l.119,5.961s2.429,46.2,2.28,53.146S127.45,230.2,127.45,230.2l14.233,23.2,33.98-61.1-8.137-65.576-.209-1.624" transform="translate(7.227 -97.431)" fill="#ffbe9d"/>
        <path id="Path_1799" data-name="Path 1799" d="M160.46,125.266l-4.575-16.826L138,118.783c0,1.49,5.35,13.622,5.35,13.622l3.1,3.219s15.545-1.639,15.872-1.8S160.46,125.266,160.46,125.266Z" transform="translate(12.401 -105.316)" fill="#ffbe9d"/>
        <path id="Path_1800" data-name="Path 1800" d="M151.921,109.986a1.3,1.3,0,0,1,.179.358c.686,1.818,2.683,10.03,1.774,10.641s-3.979.76-4.471-.268-2.191-10.433-2.191-10.433-.179-1.49,2.176-2.489C150.848,107.229,151.921,109.986,151.921,109.986Z" transform="translate(16.916 -105.669)" fill="#ffbe9d"/>
        <path id="Path_1801" data-name="Path 1801" d="M148.12,108.867a1.347,1.347,0,0,1,.179.343c.686,1.833,2.683,10.03,1.774,10.641s-3.979.76-4.471-.268-2.191-10.433-2.191-10.433-.164-1.49,2.176-2.474C147.047,106.1,148.12,108.867,148.12,108.867Z" transform="translate(15.053 -106.22)" fill="#ffbe9d"/>
        <path id="Path_1802" data-name="Path 1802" d="M144.656,108.747a.865.865,0,0,1,.179.358c.686,1.818,2.668,10.03,1.759,10.641s-3.964.76-4.471-.268-2.191-10.433-2.191-10.433-.179-1.49,2.176-2.474C143.582,105.93,144.656,108.747,144.656,108.747Z" transform="translate(13.346 -106.279)" fill="#ffbe9d"/>
        <path id="Path_1803" data-name="Path 1803" d="M141.215,108.6a.864.864,0,0,1,.179.358c.686,1.818,2.668,10.03,1.759,10.641s-3.979.76-4.471-.268-2.191-10.433-2.191-10.433-.179-1.49,2.176-2.474C140.142,105.832,141.215,108.6,141.215,108.6Z" transform="translate(11.659 -106.344)" fill="#ffbe9d"/>
        <path id="Path_1804" data-name="Path 1804" d="M148.834,117.468a16.053,16.053,0,0,0-.641-4.084,16.139,16.139,0,0,0-1.133-3.9,16.052,16.052,0,0,0,.641,4.084A16.139,16.139,0,0,0,148.834,117.468Z" transform="translate(16.843 -104.806)" fill="#eb996e"/>
        <path id="Path_1805" data-name="Path 1805" d="M145.819,119.451a31.1,31.1,0,0,0-1-5.768,30.475,30.475,0,0,0-1.49-5.663,34.66,34.66,0,0,0,1,5.768,34.051,34.051,0,0,0,1.49,5.663Z" transform="translate(15.014 -105.522)" fill="#eb996e"/>
        <g id="Group_4920" data-name="Group 4920" transform="translate(153.381 3.348)" opacity="0.78">
          <path id="Path_1806" data-name="Path 1806" d="M142.489,120.036a34.715,34.715,0,0,0-1-5.783A34.057,34.057,0,0,0,140,108.59a31.3,31.3,0,0,0,1,5.783A30.924,30.924,0,0,0,142.489,120.036Z" transform="translate(-140 -108.59)" fill="#eb996e"/>
        </g>
        <path id="Path_1807" data-name="Path 1807" d="M147.57,129.246l-5.425-4.382a11.818,11.818,0,0,1-4.307-7.705l-.3-2.31,16.394-3.309s0,6.1-4.62,6.17l5.768,2.981Z" transform="translate(12.175 -103.796)" fill="#ffbe9d"/>
        <path id="Path_1808" data-name="Path 1808" d="M154.257,122.045a16.97,16.97,0,0,0-1.416-1.58,7.6,7.6,0,0,0-4.978-2.012h-1.759l1.654-.611,3.786-1.4h0a4.471,4.471,0,0,0,2.355-4.233,2.23,2.23,0,0,0-.075-.388l.462.253c-4.575,1.133-8.719,2.087-11.744,2.608-1.49.268-2.742.432-3.607.537a4.724,4.724,0,0,1-1.326,0,47.6,47.6,0,0,1,4.814-1.133c2.981-.641,7.094-1.684,11.67-2.817l.358-.089.1.343a3.711,3.711,0,0,1,.119.522,4.6,4.6,0,0,1-.7,2.981,6.513,6.513,0,0,1-2.042,1.952h0l-3.83,1.312-.1-.626a7.616,7.616,0,0,1,5.246,2.4,3.979,3.979,0,0,1,1.013,1.982Z" transform="translate(12.209 -103.972)" fill="#eb996e"/>
        <path id="Path_1809" data-name="Path 1809" d="M148.117,115.7c.134,0,.4.745,1.237,1.49a1.4,1.4,0,0,0,1.625.238,2.131,2.131,0,0,0,.73-2.027c-.194-1.848-.3-3.577-.462-4.769a8.043,8.043,0,0,1-.253-2c.119-.045.462.656.79,1.893a36.711,36.711,0,0,1,.7,4.829,2.742,2.742,0,0,1-1.133,2.683,1.982,1.982,0,0,1-2.37-.432,3.577,3.577,0,0,1-.775-1.341C148.1,115.929,148.072,115.735,148.117,115.7Z" transform="translate(17.351 -105.218)" fill="#eb996e"/>
        <path id="Path_1810" data-name="Path 1810" d="M115.133,149.665c3.964-.238,7.646,2.176,10.433,5.067s4.844,6.319,7.69,9.106c2.116,2.072,4.68,3.86,5.961,6.528,2.042,4.262.328,9.762,2.981,13.726,1.49,2.221,4.009,3.532,5.514,5.723,1.863,2.757,1.729,6.364,1.312,9.672a11.282,11.282,0,0,1-2.34,6.409,11.029,11.029,0,0,1-4.695,2.593,67.066,67.066,0,0,1-40.24.864" transform="translate(-5.375 -85.108)" fill="#263238"/>
        <path id="Path_1811" data-name="Path 1811" d="M92.452,175.062a20.492,20.492,0,0,1,18.406-22.952A20.865,20.865,0,0,1,133.124,170a214.6,214.6,0,0,1,2.623,22.594c-.134,10.522-6.289,14.606-8.778,15.843a13.41,13.41,0,0,1-2.772.686h0v.075l2.34,12.072c1.058,7.914-3.353,14.9-11.252,16.111s-14.114-4.918-15.321-12.832Z" transform="translate(-10.012 -83.932)" fill="#ffbe9d"/>
        <path id="Path_1812" data-name="Path 1812" d="M120.637,168.7c-.164.238-1.49-.507-3.338-.238s-2.981,1.341-3.174,1.148,0-.492.551-1a4.635,4.635,0,0,1,2.5-1.192,4.471,4.471,0,0,1,2.7.462C120.488,168.22,120.726,168.577,120.637,168.7Z" transform="translate(0.657 -76.419)" fill="#263238"/>
        <path id="Path_1813" data-name="Path 1813" d="M110.024,170.994c-.179.238-1.49-.507-3.338-.238s-2.981,1.341-3.189,1.162,0-.507.551-1a4.471,4.471,0,0,1,2.519-1.192,4.337,4.337,0,0,1,2.7.447C109.86,170.517,110.113,170.875,110.024,170.994Z" transform="translate(-4.558 -75.289)" fill="#263238"/>
        <path id="Path_1814" data-name="Path 1814" d="M112.981,181.04a12.654,12.654,0,0,1,2.817-.939c.447-.119.864-.268.894-.581a2.4,2.4,0,0,0-.507-1.312l-1.848-3.264A61.594,61.594,0,0,1,110,166.33a59.007,59.007,0,0,1,5.023,8.242c.626,1.148,1.222,2.25,1.8,3.294a2.727,2.727,0,0,1,.492,1.759,1.192,1.192,0,0,1-.656.775,3.34,3.34,0,0,1-.745.209,10.954,10.954,0,0,1-2.936.432Z" transform="translate(-1.33 -76.929)" fill="#263238"/>
        <path id="Path_1815" data-name="Path 1815" d="M118.956,191.165s-6.781,1.565-16.126-2.355c0,0,4.024,8.689,16.767,5.6Z" transform="translate(-4.845 -65.905)" fill="#eb996e"/>
        <path id="Path_1816" data-name="Path 1816" d="M113.568,179.432a3.234,3.234,0,0,0-2.981-.76,2.981,2.981,0,0,0-1.863,1.371,1.908,1.908,0,0,0,.164,2.146,2.221,2.221,0,0,0,2.429.253,7.064,7.064,0,0,0,2.072-1.7,2.1,2.1,0,0,0,.432-.6.581.581,0,0,0-.1-.656" transform="translate(-2.08 -70.924)" fill="#eb996e"/>
        <path id="Path_1817" data-name="Path 1817" d="M108.65,177.54c.283,0,.566,1.878,2.414,2.981s3.89.611,3.935.879-.4.447-1.267.6a4.829,4.829,0,0,1-3.264-.641,4.173,4.173,0,0,1-1.908-2.534C108.367,178.062,108.516,177.555,108.65,177.54Z" transform="translate(-2.081 -71.432)" fill="#263238"/>
        <path id="Path_1818" data-name="Path 1818" d="M109.641,166.966c-.1.522-1.923.537-3.979,1.1s-3.651,1.371-3.994.969c-.149-.179,0-.686.686-1.252a7.168,7.168,0,0,1,6.066-1.58C109.283,166.4,109.715,166.728,109.641,166.966Z" transform="translate(-5.441 -77.058)" fill="#263238"/>
        <path id="Path_1819" data-name="Path 1819" d="M119.271,165.058c-.253.447-1.49.209-2.981.4s-2.683.671-2.981.283,0-.626.462-1.088a4.366,4.366,0,0,1,2.355-1.013,4.143,4.143,0,0,1,2.519.462C119.137,164.447,119.375,164.834,119.271,165.058Z" transform="translate(0.235 -78.265)" fill="#263238"/>
        <path id="Path_1820" data-name="Path 1820" d="M133.112,169.749c-2.176,3.323-9.076,1.267-13.249-1.013a9.9,9.9,0,0,1-13.532-2.787c-2.385,2.981-7.228,2.042-8.942-1.386s-.775-8.137,1.654-11.133a15.515,15.515,0,0,1,9.479-5.157,21.983,21.983,0,0,1,22.355,9.2c2.3,3.473,3.681,8.137,2.31,12.3" transform="translate(-7.943 -85.981)" fill="#263238"/>
        <path id="Path_1821" data-name="Path 1821" d="M107.146,151.491c-7.824-1.49-15.366,6.3-16.156,11.923-1.356,9.687,0,10.895-1.818,15.53-1.148,2.981-5.127,6.11-6.692,9.225-1.7,3.338-1.684,8.942-.507,12.549C82.958,203.7,87,212.089,87,212.089s11.625-.373,17.571-1.893a9.941,9.941,0,0,0,4.2-1.967c1.133-1.028-1.207-4.575-.984-6.081.611-4.292,3.815-6.781,2.981-11.014-1.222-5.619-5.648-5.961-5.559-11.67,0-2.981,4.605-7.452,5.023-10.433s2.176-13.562-2.981-17.467" transform="translate(-15.481 -84.296)" fill="#263238"/>
        <path id="Path_1822" data-name="Path 1822" d="M92.139,208.816s-.566-.656-1.49-1.848a25.725,25.725,0,0,1-3.458-5.5,18.2,18.2,0,0,1-1.7-9.33A14.784,14.784,0,0,1,90.649,182c1.61-1.3,3.443-2.28,5.008-3.592a9.852,9.852,0,0,0,3.264-4.859,32.206,32.206,0,0,0,.969-5.172,23.847,23.847,0,0,1,.879-4.4,7.675,7.675,0,0,1,3.92-4.8,6.425,6.425,0,0,1,2.31-.477,1.729,1.729,0,0,0-.626-.089,4.635,4.635,0,0,0-1.788.328,7.705,7.705,0,0,0-4.322,4.873,22.428,22.428,0,0,0-1,4.471,30.941,30.941,0,0,1-1.013,5.052,9.031,9.031,0,0,1-3.085,4.471c-1.49,1.252-3.338,2.221-5.023,3.592A15.261,15.261,0,0,0,84.807,192a18.5,18.5,0,0,0,1.878,9.6,23.846,23.846,0,0,0,3.7,5.47c.522.566.969,1,1.267,1.267A2.43,2.43,0,0,0,92.139,208.816Z" transform="translate(-13.708 -80.71)" fill="#455a64"/>
        <path id="Path_1823" data-name="Path 1823" d="M132.107,203.621a3.5,3.5,0,0,0,.3-.417,13.108,13.108,0,0,0,.656-1.312,14.009,14.009,0,0,0,1.013-5.276,14.248,14.248,0,0,0-2.191-7.66,33.446,33.446,0,0,0-2.981-3.681,9.821,9.821,0,0,1-2.325-4.2c-.7-3.264.373-6.558.149-9.6a16.066,16.066,0,0,0-2.146-7.675,13.264,13.264,0,0,0-3.637-3.949,12.778,12.778,0,0,0-1.252-.76l-.462-.209a18.53,18.53,0,0,0,1.49,1.177,13.7,13.7,0,0,1,3.383,3.994,15.962,15.962,0,0,1,1.923,7.452,29.433,29.433,0,0,1-.283,4.62,15.887,15.887,0,0,0,.1,5.1,10.432,10.432,0,0,0,2.474,4.471,35.562,35.562,0,0,1,2.981,3.592,13.89,13.89,0,0,1,2.236,7.318,14.9,14.9,0,0,1-.775,5.186C132.39,202.98,132.047,203.591,132.107,203.621Z" transform="translate(3.196 -80.582)" fill="#455a64"/>
        <path id="Path_1824" data-name="Path 1824" d="M105.66,149.022a36.378,36.378,0,0,1,5.037.283,18.347,18.347,0,0,1,10.433,5.634,22.818,22.818,0,0,1,5.023,10.865,28.987,28.987,0,0,1,.253,5.052,4.679,4.679,0,0,0,.283-1.356,16.126,16.126,0,0,0,0-3.756,21.789,21.789,0,0,0-4.993-11.267,18.033,18.033,0,0,0-10.88-5.648,15.456,15.456,0,0,0-3.771,0A4.471,4.471,0,0,0,105.66,149.022Z" transform="translate(-3.458 -85.568)" fill="#455a64"/>
        <path id="Path_1825" data-name="Path 1825" d="M120.071,164.164a3.8,3.8,0,0,0,.164-1.177,11.923,11.923,0,0,0-.343-3.249,13.413,13.413,0,0,0-16.767-9.866,12.027,12.027,0,0,0-2.981,1.267c-.656.417-.984.686-.954.73a23.147,23.147,0,0,1,4.069-1.49,13.324,13.324,0,0,1,16.185,9.523,25.948,25.948,0,0,1,.626,4.262Z" transform="translate(-6.631 -85.254)" fill="#455a64"/>
        <path id="Path_1826" data-name="Path 1826" d="M98.4,270.04s5.157,11.744,4.859,17.3-5.619,23.622-5.619,23.622l63.027,5.887.283-14.576-1.893-59.957L194.2,188.86l-26.588-15.41-25.858,35.1-6.543-2.534L106.9,209.591v4.918l-.8.089a57.975,57.975,0,0,0-17.616,6.9,29.509,29.509,0,0,0-13.5,29.912c1.148,7.154,3.383,15.843,7.675,20.865C90.905,281.9,98.4,270.04,98.4,270.04Z" transform="translate(-18.704 -73.437)" fill="#0e99e5"/>
        <path id="Path_1827" data-name="Path 1827" d="M85.377,228.149s-3.219-18.3-2.325-19.628c1.1-1.565,14.352-7.258,14.546-6.677l2.906,20.12Z" transform="translate(-14.621 -59.534)" fill="#fafafa"/>
        <path id="Path_1828" data-name="Path 1828" d="M121.1,220.16l-1.505,35.1h13.249v-35.1Z" transform="translate(3.373 -50.532)" fill="#fafafa"/>
        <path id="Path_1829" data-name="Path 1829" d="M106.518,231.984a3.277,3.277,0,0,1,.745,0h2.28l8.719-.134h.253v.268c.089,8.421.134,21.014.134,35.1v.387H104.61v-.387c.492-10.12.939-18.913,1.252-25.336.179-2.981.313-5.47.417-7.258a17.493,17.493,0,0,1,.134-1.923,2.518,2.518,0,0,1,0-.626,5.518,5.518,0,0,1,0,.715v2c0,1.818-.119,4.292-.209,7.362-.224,6.3-.537,15.008-.894,25.038l-.373-.387h13.249l-.387.387c0-14.084,0-26.677.134-35.1l.253.253-8.525-.268h-2.34Z" transform="translate(-3.973 -44.8)" fill="#fafafa"/>
        <path id="Path_1830" data-name="Path 1830" d="M144.78,214.4l-13.98-8.838,12.281-17.929,14.322,8.316Z" transform="translate(8.87 -66.484)" fill="#fafafa"/>
        <g id="Group_4921" data-name="Group 4921" transform="translate(98.64 148.986)" opacity="0.4">
          <rect id="Rectangle_2260" data-name="Rectangle 2260" width="41.03" height="13.309" fill="#fff"/>
        </g>
        <path id="Path_1831" data-name="Path 1831" d="M131.351,240.673a3.488,3.488,0,0,1,0-1.222c.1-.79.238-1.923.358-3.309a61.745,61.745,0,0,0,0-10.939,60.748,60.748,0,0,0-2-10.76c-.745-2.7-1.356-4.337-1.237-4.382s.253.358.566,1.088a32.266,32.266,0,0,1,1.207,3.13,50.166,50.166,0,0,1,2.236,10.85,48.631,48.631,0,0,1-.224,11.073,31.4,31.4,0,0,1-.611,3.294,3.845,3.845,0,0,1-.3,1.177Z" transform="translate(7.723 -55.486)" fill="#263238"/>
        <path id="Path_1832" data-name="Path 1832" d="M150.1,177.36a19.928,19.928,0,0,1-2.4,3.085c-1.49,1.833-3.741,4.337-6.2,7.079l-2.623,2.891-.224.253-.268-.179c-2.25-1.49-4.173-2.876-5.514-3.845a10.223,10.223,0,0,1-2.072-1.669,12.548,12.548,0,0,1,2.325,1.282c1.416.864,3.4,2.116,5.678,3.607h-.477l2.593-2.981c2.459-2.742,4.71-5.172,6.364-6.915A20.67,20.67,0,0,1,150.1,177.36Z" transform="translate(8.87 -71.52)" fill="#fafafa"/>
        <path id="Path_1833" data-name="Path 1833" d="M162.468,190.715a25.474,25.474,0,0,1-4.128-1.908c-2.519-1.267-5.961-3.085-9.732-5.112s-7.169-3.92-9.613-5.306a27.947,27.947,0,0,1-3.875-2.4,25.886,25.886,0,0,1,4.143,1.908c2.5,1.282,5.961,3.085,9.717,5.112s7.169,3.92,9.613,5.306a26.826,26.826,0,0,1,3.875,2.4Z" transform="translate(10.988 -72.192)" fill="#263238"/>
        <path id="Path_1834" data-name="Path 1834" d="M64.753,431.12,58,461.643l-12.31,22.624a3.2,3.2,0,0,0,1.49,4.471h0a3.19,3.19,0,0,0,2.981-.134c5.723-3.309,26.722-15.589,27.095-17.884.432-2.623,9.27-31.745,9.27-31.745Z" transform="translate(-33.06 52.914)" fill="#0e99e5"/>
        <g id="Group_4922" data-name="Group 4922" transform="translate(14.107 521.592)" opacity="0.6">
          <path id="Path_1835" data-name="Path 1835" d="M46.55,476.35l30.478-20.03-.313,1.282a4.9,4.9,0,0,1-1.8,2.712c-2.489,1.788-9.449,6.6-25.336,15.872a3.2,3.2,0,0,1-2.981.1Z" transform="translate(-46.55 -456.32)" fill="#fff"/>
        </g>
        <g id="Group_4923" data-name="Group 4923" transform="translate(39.617 510.172)" opacity="0.6">
          <path id="Path_1836" data-name="Path 1836" d="M64.864,448.75a1.937,1.937,0,0,0-1.118,2.34,1.848,1.848,0,0,0,2.3,1.118,2.042,2.042,0,0,0,1.177-2.474,1.952,1.952,0,0,0-2.534-.909" transform="translate(-63.666 -448.658)" fill="#fff"/>
        </g>
        <path id="Path_1837" data-name="Path 1837" d="M55.17,463.527a9.538,9.538,0,0,0-2.072-2.981,9.719,9.719,0,0,0-3.338-1.49c0-.089.432-.224,1.177-.149a5.022,5.022,0,0,1,2.593,1.148,4.9,4.9,0,0,1,1.595,2.37C55.319,463.05,55.259,463.527,55.17,463.527Z" transform="translate(-30.869 66.53)" fill="#263238"/>
        <path id="Path_1838" data-name="Path 1838" d="M52.991,465.439c-.179.089-.909-1.133-2.37-1.967a24.018,24.018,0,0,0-2.861-1.1,3.562,3.562,0,0,1,3.219.507C52.589,463.845,53.17,465.395,52.991,465.439Z" transform="translate(-31.85 68.15)" fill="#263238"/>
        <path id="Path_1839" data-name="Path 1839" d="M59.535,460.95a34.3,34.3,0,0,0-3.458-3.279,32.578,32.578,0,0,0-4.248-2.161,8.793,8.793,0,0,1,7.705,5.44Z" transform="translate(-29.854 64.874)" fill="#263238"/>
        <path id="Path_1840" data-name="Path 1840" d="M61.429,453.924c-.119.164-1.624-.954-3.786-1.565s-4.024-.522-4.054-.715a6.186,6.186,0,0,1,4.248,0,6.125,6.125,0,0,1,3.592,2.28Z" transform="translate(-28.991 62.794)" fill="#263238"/>
        <path id="Path_1841" data-name="Path 1841" d="M63.037,447.923a15.7,15.7,0,0,0-3.92-1.744,15.793,15.793,0,0,0-4.277,0c0-.075.4-.373,1.192-.611a6.945,6.945,0,0,1,3.234-.09,7.11,7.11,0,0,1,2.981,1.371C62.828,447.417,63.1,447.819,63.037,447.923Z" transform="translate(-28.378 59.883)" fill="#263238"/>
        <path id="Path_1842" data-name="Path 1842" d="M59.3,446.7a2.429,2.429,0,0,1,.238-1.148,8.167,8.167,0,0,1,1.654-2.787,3.592,3.592,0,0,1,1.937-1.326,1.311,1.311,0,0,1,1.341.626,2.161,2.161,0,0,1,.134,1.49,4.471,4.471,0,0,1-4.844,3.13,5.261,5.261,0,0,1-4.367-3.9,1.878,1.878,0,0,1,.283-1.49,1.237,1.237,0,0,1,1.49-.328,4.546,4.546,0,0,1,1.744,1.49,9.316,9.316,0,0,1,1.49,2.876,2.653,2.653,0,0,1,.209,1.163,14.055,14.055,0,0,0-2.087-3.726,3.949,3.949,0,0,0-1.49-1.3.641.641,0,0,0-.79.179,1.192,1.192,0,0,0-.119.984,4.68,4.68,0,0,0,3.815,3.338,3.92,3.92,0,0,0,4.158-2.593,1.49,1.49,0,0,0,0-1.043.685.685,0,0,0-.73-.358,3.234,3.234,0,0,0-1.654,1.088A12.1,12.1,0,0,0,59.3,446.7Z" transform="translate(-28.129 57.68)" fill="#263238"/>
        <g id="Group_4924" data-name="Group 4924" transform="translate(29.994 484.035)" opacity="0.3">
          <path id="Path_1843" data-name="Path 1843" d="M58.119,434.429l-.909,4.352L78.776,445.1l1.848-6.111L58.909,431.12Z" transform="translate(-57.21 -431.12)"/>
        </g>
        <path id="Path_1844" data-name="Path 1844" d="M132.868,439.024l-1.833,24.4s24.189,10.045,24.293,14.591l-47.438-1.833,1.282-38.138Z" transform="translate(-2.364 56.308)" fill="#0e99e5"/>
        <g id="Group_4925" data-name="Group 4925" transform="translate(112.643 517.106)" opacity="0.6">
          <path id="Path_1845" data-name="Path 1845" d="M114.1,453.31a1.937,1.937,0,0,0-1.416,2.161,1.863,1.863,0,0,0,2.116,1.49,2.042,2.042,0,0,0,1.49-2.3,1.952,1.952,0,0,0-2.385-1.252" transform="translate(-112.665 -453.31)" fill="#fff"/>
        </g>
        <g id="Group_4926" data-name="Group 4926" transform="translate(105.526 528.641)" opacity="0.6">
          <path id="Path_1846" data-name="Path 1846" d="M107.89,464.9l.283-3.845,45.382,3.2s2.072,1,1.774,2.474Z" transform="translate(-107.89 -461.05)" fill="#fff"/>
        </g>
        <path id="Path_1847" data-name="Path 1847" d="M125.394,455c0,.224-1.177.283-2.34.984s-1.818,1.654-2.027,1.565.194-1.49,1.624-2.251S125.483,454.792,125.394,455Z" transform="translate(4.052 64.52)" fill="#263238"/>
        <path id="Path_1848" data-name="Path 1848" d="M128.309,456.476c0,.224-.969.581-1.8,1.49s-1.088,1.967-1.326,1.952-.313-1.341.73-2.489S128.309,456.253,128.309,456.476Z" transform="translate(6.04 65.294)" fill="#263238"/>
        <path id="Path_1849" data-name="Path 1849" d="M129.081,461.8c-.209,0-.492-1.133.149-2.37s1.759-1.714,1.848-1.49-.611.85-1.118,1.878S129.275,461.783,129.081,461.8Z" transform="translate(7.906 66.039)" fill="#263238"/>
        <path id="Path_1850" data-name="Path 1850" d="M125.436,451.474c-.1.209-1.162-.164-2.474-.119s-2.34.417-2.459.209.894-1,2.444-1.013S125.555,451.3,125.436,451.474Z" transform="translate(3.816 62.442)" fill="#263238"/>
        <g id="Group_4927" data-name="Group 4927" transform="translate(106.509 498.372)" opacity="0.3">
          <path id="Path_1851" data-name="Path 1851" d="M132.172,442.528l-.313,4.352-23.309-1.118.149-5.023Z" transform="translate(-108.55 -440.74)"/>
        </g>
        <path id="Path_1852" data-name="Path 1852" d="M126.331,449.194a4.47,4.47,0,0,1-2.385-.1,10.875,10.875,0,0,1-2.459-.864,11.29,11.29,0,0,1-1.326-.775,2.685,2.685,0,0,1-.7-.581,1,1,0,0,1,0-1.237,1.252,1.252,0,0,1,1.043-.492,2.981,2.981,0,0,1,.879.149,8.493,8.493,0,0,1,1.49.566,8.257,8.257,0,0,1,2.131,1.49c1.058,1.073,1.4,1.952,1.326,2s-.611-.686-1.7-1.565a10.043,10.043,0,0,0-2.086-1.282,8.934,8.934,0,0,0-1.341-.462c-.492-.164-.924-.179-1.058,0s0,.119,0,.268a2.162,2.162,0,0,0,.507.417,11.089,11.089,0,0,0,1.222.775,13.711,13.711,0,0,0,2.265.969A15.969,15.969,0,0,1,126.331,449.194Z" transform="translate(3.204 59.789)" fill="#263238"/>
        <path id="Path_1853" data-name="Path 1853" d="M123.961,450.527a3.8,3.8,0,0,1-.537-2.31,7.914,7.914,0,0,1,.432-2.593,7.454,7.454,0,0,1,.656-1.416A2,2,0,0,1,126,443.06a1.117,1.117,0,0,1,.969.7,3.1,3.1,0,0,1,.209.879,5.754,5.754,0,0,1,0,1.61,5.589,5.589,0,0,1-1.118,2.414c-.969,1.192-1.952,1.49-1.967,1.356a11.924,11.924,0,0,0,1.49-1.7,5.826,5.826,0,0,0,.835-2.206,4.7,4.7,0,0,0,0-1.371c0-.507-.224-.924-.417-.879a1.723,1.723,0,0,0-.85.745,7.23,7.23,0,0,0-.641,1.267,8.719,8.719,0,0,0-.551,2.355C123.887,449.618,124.1,450.5,123.961,450.527Z" transform="translate(5.246 58.769)" fill="#263238"/>
        <path id="Path_1854" data-name="Path 1854" d="M88.518,251.165l12.266.686a61.507,61.507,0,0,0,3.473,10.06c9.881-17.154,17.542-40.121,19.449-49.361-.283-.924-.611-1.937-1.013-3.085a12.981,12.981,0,0,1,.149-5.186c.343-2.057.909-4.829,1.088-6.111.522-3.9,1.148-4.471,2.519-4.069,1.848.6-.76,10.954.745,11.178.82.119,1.818-3.428,2.1-6.334s1.61-11.923,2.578-12.474c1.49-.879,2.638.507,2.28,3.413s-.82,11.684.73,11.8,2.787-14.74,2.787-14.74-.238-3.219,1.49-3.145c3.219.134.7,15.8.432,17.273-.194,1.028,1.49,1.222,1.624.1s.924-14.9,4.2-14.74c2.5.089-1.952,12.907-.537,15.872s2.385-10.09,4.784-9.911c.894,0,1.49.238-.089,7.631a165.661,165.661,0,0,1-5.738,17.333c-3.8,20.492-20.478,86.054-46.619,74.056C82.586,284.7,75.76,251.448,75.76,251.448Z" transform="translate(-18.12 -68.362)" fill="#ffbe9d"/>
        <path id="Path_1855" data-name="Path 1855" d="M128.579,217.519a1.878,1.878,0,0,1,.134-.447c.1-.328.253-.76.432-1.282.4-1.192.984-2.847,1.714-4.948s1.624-4.784,2.519-7.884a51.384,51.384,0,0,0,1.162-5.023c.164-.894.343-1.818.447-2.772a8.944,8.944,0,0,0,0-1.416c0-.492-.1-.879-.492-.894s-.671.224-.939.641a7.838,7.838,0,0,0-.626,1.386c-.343.984-.626,2.027-.894,3.1s-.522,2.176-.85,3.294a5.067,5.067,0,0,1-.745,1.729.6.6,0,0,1-.82.1,1.49,1.49,0,0,1-.343-.477,3.817,3.817,0,0,1-.268-.954,31.7,31.7,0,0,1,.745-7.452c.224-1.252.447-2.519.611-3.8a16.954,16.954,0,0,0,.149-1.937c0-.581,0-1.386-.343-1.49s-.894.238-1.192.775a7.724,7.724,0,0,0-.82,1.774,28.425,28.425,0,0,0-.969,3.994c-.238,1.386-.417,2.787-.581,4.2a19.4,19.4,0,0,1-.209,2.146l-.089,1.088a1.625,1.625,0,0,1-.492,1.252,1.252,1.252,0,0,1-1.49,0,1.073,1.073,0,0,1-.462-.7,1.192,1.192,0,0,1,0-.4v-.268c.1-.73.224-1.49.328-2.191q.313-2.236.537-4.471t.268-4.471a15.112,15.112,0,0,0-.447-4.471,1.49,1.49,0,0,0-.626-.909.79.79,0,0,0-.85.268,4.113,4.113,0,0,0-.462,2.429h0c-.268,2.981-.6,5.827-1.013,8.659a40.636,40.636,0,0,1-.8,4.218,9.356,9.356,0,0,1-.328,1.043,2.146,2.146,0,0,1-.7,1.073.775.775,0,0,1-.924-.194,1.73,1.73,0,0,1-.328-.566,5.216,5.216,0,0,1-.283-1.073,39.745,39.745,0,0,1-.075-8.2,22.744,22.744,0,0,0,.194-3.83,2.072,2.072,0,0,0-.686-1.416.76.76,0,0,0-.641-.1,1.222,1.222,0,0,0-.358.149.507.507,0,0,0-.179.209,18.183,18.183,0,0,0-.984,3.487c-.238,1.192-.447,2.385-.641,3.562s-.358,2.325-.507,3.473-.238,2.28-.462,3.4a16.989,16.989,0,0,1-.879,3.234,4.366,4.366,0,0,1-.358.76c-.179.238-.268.551-.745.7a.641.641,0,0,1-.641-.268,1.921,1.921,0,0,1-.194-.462,5.8,5.8,0,0,1-.1-.835c0-2.131.3-4.084.4-5.961a13.7,13.7,0,0,0,0-2.712.941.941,0,0,0-1.431-.969,3.607,3.607,0,0,0-.924,2.042c-.179.775-.253,1.49-.4,2.28-.522,2.981-1.073,5.5-1.326,7.571a9.6,9.6,0,0,0,0,2.757c.179.745.432,1.416.566,1.937l.358,1.222a1.222,1.222,0,0,1,.1.417,1.49,1.49,0,0,1-.164-.4l-.432-1.177c-.179-.537-.432-1.148-.656-1.967a9.791,9.791,0,0,1,0-2.817c.224-2.116.73-4.635,1.207-7.6.134-.73.209-1.49.388-2.31a7.274,7.274,0,0,1,.328-1.207,2.146,2.146,0,0,1,.775-1.148,1.61,1.61,0,0,1,1.49,0c.6.343.611.909.715,1.341a14.9,14.9,0,0,1,0,2.817c-.089,1.908-.388,3.9-.343,5.961a5.219,5.219,0,0,0,.089.715c0,.238.179.328.149.283s.238-.209.343-.4a7.319,7.319,0,0,0,.328-.686,18.516,18.516,0,0,0,.82-3.13c.209-1.073.268-2.206.432-3.353s.3-2.325.492-3.5.388-2.385.626-3.592a17.108,17.108,0,0,1,1.058-3.7,1.1,1.1,0,0,1,.432-.477,2.3,2.3,0,0,1,.522-.224,1.491,1.491,0,0,1,1.192.194,2.757,2.757,0,0,1,1.028,1.908,7.794,7.794,0,0,1,0,2.042c0,.641-.119,1.3-.164,1.952a39.929,39.929,0,0,0,0,8,5.577,5.577,0,0,0,.238.924,1.267,1.267,0,0,0,.194.328h0v.015a2.444,2.444,0,0,0,.358-.686c.1-.313.209-.641.3-.969.328-1.326.566-2.727.775-4.128.417-2.817.73-5.693,1-8.614h0a4.844,4.844,0,0,1,.626-2.981,1.49,1.49,0,0,1,1.744-.507,2.131,2.131,0,0,1,1.073,1.371,15.514,15.514,0,0,1,.492,4.71c0,1.49-.134,3.07-.283,4.59s-.328,2.981-.537,4.471c-.1.745-.224,1.49-.328,2.206a1.068,1.068,0,0,0,0,.626.551.551,0,0,0,.581,0c.164-.1.179-.328.209-.73l.1-1.088c0-.715.149-1.49.209-2.146.164-1.49.358-2.862.6-4.248a29.558,29.558,0,0,1,1-4.113,8.825,8.825,0,0,1,.909-1.937,2.98,2.98,0,0,1,.8-.835,1.192,1.192,0,0,1,1.982.924,6.423,6.423,0,0,1,.075,1.058,17.707,17.707,0,0,1-.179,2.012c-.164,1.312-.4,2.578-.626,3.83a31.16,31.16,0,0,0-.775,7.243,2.369,2.369,0,0,0,.209.76,1.118,1.118,0,0,0,.149.253h0v-.075a4.992,4.992,0,0,0,.611-1.49c.328-1.088.581-2.191.864-3.264s.566-2.131.939-3.145a8.391,8.391,0,0,1,.686-1.49,2.146,2.146,0,0,1,.566-.656,1.147,1.147,0,0,1,.447-.224,1.266,1.266,0,0,1,.477,0,.954.954,0,0,1,.79.581,2.428,2.428,0,0,1,.164.82,8.256,8.256,0,0,1-.089,1.49c-.1.984-.3,1.908-.477,2.817a47.918,47.918,0,0,1-1.237,5.037c-.924,3.1-1.863,5.723-2.638,7.854s-1.49,3.8-1.848,4.9c-.209.522-.388.939-.507,1.267A1.184,1.184,0,0,0,128.579,217.519Z" transform="translate(-2.815 -68.533)" fill="#eb996e"/>
        <path id="Path_1856" data-name="Path 1856" d="M75.7,233.684c2.37,8.376,7,21.312,11.923,34.964a2.37,2.37,0,0,0,4.367.209L104.211,243s-2.981-21.238-2.7-20.492S76.3,225.263,76.3,225.263Z" transform="translate(-18.149 -49.391)" fill="#0e99e5"/>
        <path id="Path_1857" data-name="Path 1857" d="M100.955,236.65a2.862,2.862,0,0,0-.939-.417,2.325,2.325,0,0,0-2.37.626l-.313.358-.194-.462c-.656-1.669-1.49-3.83-2.325-6.215a74,74,0,0,1-3.2-10.06,69.688,69.688,0,0,1,3.935,9.807c.864,2.37,1.61,4.561,2.161,6.26l-.507-.089a2.563,2.563,0,0,1,1.624-.76,2.7,2.7,0,0,1,1.312.209C100.806,236.159,100.984,236.621,100.955,236.65Z" transform="translate(-10.347 -50.375)" fill="#263238"/>
        <path id="Path_1858" data-name="Path 1858" d="M86.25,255.759a19.793,19.793,0,0,1,1.774-3.666c1.177-2.206,2.847-5.246,4.754-8.57s3.651-6.319,4.948-8.465a21.564,21.564,0,0,1,2.25-3.4,21.3,21.3,0,0,1-1.774,3.666c-1.177,2.221-2.861,5.246-4.754,8.585S89.8,250.23,88.5,252.376A22.162,22.162,0,0,1,86.25,255.759Z" transform="translate(-12.976 -44.893)" fill="#263238"/>
        <path id="Path_1859" data-name="Path 1859" d="M83.472,254.831a13.832,13.832,0,0,1,2.131-1.49c1.386-.894,3.4-2.146,5.842-3.637l-.134.4c-1.356-3.174-2.981-6.885-4.65-10.88-2.116-5.023-4.009-9.643-5.4-13.085l.417.134c-1.937,1.058-3.517,1.893-4.605,2.459a8.853,8.853,0,0,1-1.759.8,8.389,8.389,0,0,1,1.595-1.088c1.058-.656,2.578-1.565,4.471-2.668l.268-.164.134.3c1.49,3.4,3.458,7.973,5.574,13.011,1.669,4.009,3.2,7.735,4.471,10.924l.1.268-.238.134c-2.474,1.49-4.471,2.608-5.961,3.4A12.7,12.7,0,0,1,83.472,254.831Z" transform="translate(-18.335 -47.855)" fill="#fafafa"/>
        <path id="Path_1860" data-name="Path 1860" d="M168.528,533.449a8.748,8.748,0,0,0,8.48-8.212c2.549-41.253,14.024-228.9,11.729-234.792-2.593-6.617-9.4-29.628-9.4-29.628L118.481,258s-15.142,23.846-17.318,33.056c-1.967,8.212-57.1,181.929-63.951,218.815a7.556,7.556,0,0,0,5.261,8.614Z" transform="translate(-37.085 -31.977)" fill="#263238"/>
        <path id="Path_1861" data-name="Path 1861" d="M128.025,258.87s-.075.224-.268.656l-.864,1.878-3.4,7.184c-.671,1.595-1.4,3.368-2.221,5.291s-1.714,4.039-2.519,6.349-1.788,4.754-2.7,7.377-1.759,5.425-2.712,8.361l-2.7,9.3c-.879,3.249-1.714,6.647-2.638,10.164s-1.654,7.184-2.534,10.954-1.669,7.66-2.429,11.67c-1.639,7.988-3.249,16.394-4.948,25.128S94.581,380.916,92.45,390.1c-1.028,4.59-2.221,9.061-3.324,13.532s-2.4,8.793-3.711,13.041c-2.578,8.51-5.41,16.618-8.3,24.248-5.842,15.276-11.923,28.7-17.139,39.867s-9.792,20.075-12.921,26.23l-3.622,7.109c-.4.775-.73,1.386-.969,1.818a5.536,5.536,0,0,1-.343.611,5.54,5.54,0,0,1,.283-.641c.209-.447.507-1.073.894-1.863.82-1.669,2-4.069,3.517-7.139,2.981-6.185,7.452-15.142,12.683-26.335s11.178-24.621,16.975-39.882c2.861-7.631,5.678-15.723,8.257-24.218,1.3-4.233,2.459-8.6,3.681-13.011s2.3-8.942,3.294-13.547c2.131-9.166,3.92-18.2,5.663-26.9s3.324-17.124,4.993-25.113c.79-4.009,1.684-7.9,2.489-11.67s1.744-7.452,2.563-10.969S109.2,308.35,110.1,305.1s1.878-6.334,2.757-9.3l2.742-8.421c.924-2.623,1.893-5.067,2.757-7.362s1.744-4.471,2.593-6.334,1.595-3.7,2.28-5.276c1.49-3.115,2.712-5.514,3.517-7.139l.939-1.833Z" transform="translate(-34.615 -31.55)" fill="#455a64"/>
        <path id="Path_1862" data-name="Path 1862" d="M63.71,521.711a2.411,2.411,0,0,1,.149-.671c.149-.447.313-1.148.537-1.982l2.116-7.6c1.833-6.647,4.471-16.185,7.75-27.959s7.049-25.888,11.148-41.551c2.027-7.839,4.143-16.066,6.349-24.591s4.337-17.407,6.6-26.469,4.322-17.884,6.394-26.528,3.92-16.856,5.768-24.74c3.592-15.783,6.751-30.031,9.33-42s4.62-21.64,6.066-28.317c.7-3.324,1.252-5.961,1.639-7.72.194-.849.343-1.49.447-2a4.358,4.358,0,0,1,.179-.685,6.176,6.176,0,0,1-.1.7c-.089.477-.209,1.148-.373,2.012-.343,1.8-.85,4.471-1.49,7.75l-2.459,12.191c-1,4.769-2.116,10.194-3.368,16.185-2.5,11.923-5.6,26.23-9.181,42.043-1.8,7.884-3.681,16.185-5.723,24.755s-4.188,17.452-6.364,26.543-4.471,17.884-6.632,26.454S88.152,434.3,86.11,442.125c-4.158,15.664-8,29.807-11.312,41.521l-4.471,15.9c-1.356,4.665-2.534,8.689-3.487,11.923s-1.729,5.8-2.25,7.571c-.253.835-.462,1.49-.6,1.952A3.42,3.42,0,0,1,63.71,521.711Z" transform="translate(-24.028 -31.536)" fill="#455a64"/>
        <path id="Path_1863" data-name="Path 1863" d="M127.517,259a3.533,3.533,0,0,0,.1.686l.253,2.057c.1.909.238,2.027.387,3.324s.194,2.862.3,4.575c0,.864.1,1.773.149,2.727s0,1.967,0,2.981v3.279c0,1.133-.1,2.325-.149,3.547s-.119,2.489-.194,3.786-.238,2.653-.373,4.039c-.194,2.772-.671,5.663-1.043,8.733-.924,6.1-2.146,12.728-3.711,19.807s-3.4,14.591-5.306,22.5-3.89,16.23-5.529,24.919-2.981,17.75-4.2,27.065-2.1,18.391-3.145,27.2-1.937,17.3-2.981,25.336l-1.61,11.8c-.626,3.8-1.177,7.452-1.8,11.088s-1.267,7-1.967,10.3-1.4,6.438-2.1,9.434-1.49,5.827-2.236,8.51-1.58,5.157-2.3,7.452c-.373,1.162-.7,2.3-1.088,3.368s-.775,2.1-1.133,3.085c-.73,1.952-1.4,3.756-2.012,5.365-1.312,3.189-2.459,5.6-3.174,7.273l-.864,1.878c-.194.417-.313.626-.313.626a1.582,1.582,0,0,1,.238-.671c.238-.432.462-1.088.79-1.908.686-1.669,1.774-4.113,2.981-7.3l1.923-5.4,1.118-3.07c.373-1.073.686-2.221,1.043-3.383.7-2.34,1.49-4.829,2.236-7.452l2.176-8.5,2.057-9.434c.671-3.294,1.252-6.736,1.923-10.3s1.148-7.273,1.744-11.073,1.043-7.75,1.58-11.789c1-8.078,1.967-16.558,2.981-25.336s1.952-17.884,3.145-27.259,2.593-18.406,4.233-27.125,3.651-17.035,5.574-24.934,3.8-15.425,5.38-22.475,2.832-13.682,3.8-19.762c.387-2.981.879-5.961,1.088-8.7.149-1.371.268-2.712.4-4.009s.149-2.563.224-3.786.164-2.385.179-3.532,0-2.221,0-3.264v-2.981c0-.939-.089-1.848-.119-2.712-.089-1.714-.089-3.249-.224-4.561s-.224-2.429-.313-3.338-.134-1.565-.179-2.057a4.947,4.947,0,0,1,.06-.641Z" transform="translate(-15.315 -31.487)" fill="#455a64"/>
        <path id="Path_1864" data-name="Path 1864" d="M108.966,530.582a6.074,6.074,0,0,1-.164-.686c-.089-.492-.224-1.163-.388-2.027s-.358-2.012-.6-3.324-.551-2.8-.7-4.471-.417-3.622-.671-5.708-.3-4.382-.477-6.826c0-1.222-.149-2.5-.194-3.8s0-2.668,0-4.069v-4.292c0-1.475.119-2.981.164-4.471s.134-3.13.194-4.739.268-3.264.388-4.948c.224-3.368.656-6.841,1.073-10.433s1.013-7.318,1.49-11.148,1.252-7.75,2.027-11.759c2.981-16.081,7-33.563,10.731-52.014a522.382,522.382,0,0,0,7.824-52.476c1.61-16.245,2.221-30.925,2.429-43.221V283.524c0-4.888-.209-9.121-.358-12.579s-.283-6.125-.358-7.944v-2.072c0,.462.089,1.192.164,2.072.119,1.8.343,4.471.492,7.929s.358,7.675.492,12.579.179,10.433.149,16.662c-.134,12.355-.7,27.065-2.265,43.325a514.781,514.781,0,0,1-7.78,52.565c-3.726,18.481-7.824,35.948-10.79,52-.775,3.994-1.386,7.929-2.057,11.729s-1.177,7.526-1.565,11.133-.879,7.064-1.1,10.432c-.149,1.669-.283,3.309-.417,4.918s-.149,3.189-.224,4.724-.119,3.055-.194,4.471V503.8c0,1.3.119,2.563.179,3.786.149,2.444.149,4.739.4,6.811s.417,3.994.6,5.723.432,3.219.626,4.471l.537,3.323c.134.864.224,1.49.313,2.042S108.966,530.582,108.966,530.582Z" transform="translate(-3.41 -30.884)" fill="#455a64"/>
        <path id="Path_1865" data-name="Path 1865" d="M135.312,259.79s.075.224.209.671l.581,1.967.909,3.234a45.055,45.055,0,0,1,1.043,4.471c.328,1.684.79,3.547,1.118,5.619s.611,4.322.954,6.751.4,5.037.626,7.81.224,5.693.164,8.778a186.925,186.925,0,0,1-1.3,20.075c-.79,7.2-2.027,14.829-3.458,22.817l-4.68,25.068c-1.639,8.689-3.07,17.72-4.367,27.005s-2.355,18.361-3.219,27.154-1.49,17.3-2,25.411-.82,15.813-.969,23.041-.238,13.95-.209,20.09.119,11.7.268,16.573.328,9.076.462,12.5.3,6.066.387,7.9a18.023,18.023,0,0,0,.089,2.057v.715a4.145,4.145,0,0,0-.089-.7l-.164-2.057c-.119-1.8-.328-4.471-.522-7.9s-.447-7.631-.6-12.5-.313-10.433-.388-16.588,0-12.877.119-20.105.462-14.9.894-23.071,1.073-16.632,1.952-25.44,1.893-17.884,3.219-27.2,2.727-18.331,4.382-27.02l4.724-25.053c1.49-7.988,2.638-15.619,3.517-22.773a186.731,186.731,0,0,0,1.386-20.016c0-3.07-.089-5.961-.1-8.748s-.388-5.35-.566-7.78-.611-4.665-.879-6.736-.745-3.92-1.043-5.619a43.74,43.74,0,0,0-.984-4.471c-.373-1.3-.611-2.34-.835-3.234s-.387-1.49-.507-2A5.448,5.448,0,0,1,135.312,259.79Z" transform="translate(3.643 -31.099)" fill="#455a64"/>
      </g>
      <g id="freepik--Icons--inject-2" transform="translate(451.7 139.016)">
        <rect id="Rectangle_2261" data-name="Rectangle 2261" width="170.825" height="162.017" rx="6.79" transform="translate(0 23.892) rotate(-8.04)" fill="#0e99e5"/>
        <path id="Path_1866" data-name="Path 1866" d="M428.983,195.034a6.648,6.648,0,0,1-1.133.238l-3.264.537-12.161,1.863-40.672,5.961h-.328l-.089-.328c-.611-2.116-1.267-4.337-1.923-6.6-5.529-19.375-10.432-36.618-13.7-47.9l.268.164-10.85,1.49-2.891.358a6.48,6.48,0,0,1-1.013,0,5.708,5.708,0,0,1,.984-.209l2.876-.477,10.82-1.669h.209v.194l13.98,47.826,1.908,6.617-.417-.283,40.836-5.663,12.132-1.624,3.294-.4A7.208,7.208,0,0,1,428.983,195.034Z" transform="translate(-301.335 -82.698)" fill="#ebebeb"/>
        <path id="Path_1867" data-name="Path 1867" d="M362.7,192.023h.283l.835-.164,3.264-.522,12.236-1.878,42.207-6.2-.328.358c.238-7.288.492-15.172.745-23.324.134-4.188.268-8.316.4-12.251l.432.4-49.793,7.02-14.74,2-3.979.507-1.043.119h-.358a1.207,1.207,0,0,1,.358-.089l1.013-.179,3.964-.641,14.725-2.236,49.748-7.273h.447v.462c-.119,3.935-.253,8.048-.388,12.251-.268,8.152-.537,16.036-.775,23.324v.224h-.313l-42.252,5.961-12.251,1.654-3.279.417-.85.089Z" transform="translate(-295.633 -83.085)" fill="#ebebeb"/>
        <path id="Path_1868" data-name="Path 1868" d="M376.727,196.021c-.074,0-.149-.507-.522-1.312a5.753,5.753,0,0,0-2.519-2.668,5.429,5.429,0,1,0-3.785,10.045,5.529,5.529,0,0,0,5.022-1.49,5.678,5.678,0,0,0,1.669-3.279c.134-.879,0-1.4.134-1.4a2.981,2.981,0,0,1,.179,1.49,5.783,5.783,0,0,1-1.595,3.636,6.1,6.1,0,1,1-1.371-9.538,5.783,5.783,0,0,1,2.548,2.981A3.1,3.1,0,0,1,376.727,196.021Z" transform="translate(-289.767 -61.985)" fill="#ebebeb"/>
        <path id="Path_1869" data-name="Path 1869" d="M401.437,192.437a10.616,10.616,0,0,0-.522-1.312,5.709,5.709,0,0,0-2.534-2.668,5.44,5.44,0,1,0,1.252,8.659,5.678,5.678,0,0,0,1.669-3.279c.134-.879,0-1.4.134-1.4a2.98,2.98,0,0,1,.164,1.49,5.693,5.693,0,0,1-1.58,3.636,6.1,6.1,0,1,1-1.371-9.538,5.783,5.783,0,0,1,2.548,2.981,3.1,3.1,0,0,1,.239,1.431Z" transform="translate(-277.65 -63.692)" fill="#ebebeb"/>
        <circle id="Ellipse_128" data-name="Ellipse 128" cx="16.498" cy="16.498" r="16.498" transform="translate(100.277 64.225) rotate(-56.52)" fill="#fafafa"/>
        <path id="Path_1870" data-name="Path 1870" d="M407.559,139.36a15.977,15.977,0,0,1-1.744,2.981c-1.162,1.759-2.8,4.143-4.65,6.766l-1.982,2.787-.209.3-.3-.194A52.8,52.8,0,0,1,392,147.244a54.233,54.233,0,0,1,7.079,4.128l-.507.089,1.967-2.8c1.848-2.623,3.562-4.963,4.829-6.647A15.115,15.115,0,0,1,407.559,139.36Z" transform="translate(-276.44 -87.16)" fill="#0e99e5"/>
        <rect id="Rectangle_2262" data-name="Rectangle 2262" width="138.395" height="131.256" rx="6.79" transform="matrix(0.97, 0.244, -0.244, 0.97, 48.153, 187.615)" fill="#455a64"/>
        <path id="Path_1871" data-name="Path 1871" d="M360.41,281.431l1.043,28.466,52.163,13.16,14.74-23.369s-5.052-3.13-8.733-3.264l6.14-28.466a4.009,4.009,0,0,0-4.575-4.8l-5.619.939-29.435-7.452-2.981-2.549a3.935,3.935,0,0,0-6.409,2.057l-6.885,28.078A22.876,22.876,0,0,0,360.41,281.431Z" transform="translate(-291.93 -31.37)" fill="#fafafa"/>
        <path id="Path_1872" data-name="Path 1872" d="M370.15,289.277a20.776,20.776,0,0,0,9.449,8.942,32.056,32.056,0,0,0,12.787,2.981c2.4.089,5.067-.119,6.751-1.818s1.893-4.471,1.937-6.975a33.636,33.636,0,0,0-.775-9.479,11.4,11.4,0,0,0-5.559-7.452c-3.875-1.878-8.57-.551-12.31,1.565A32.237,32.237,0,0,0,370.508,288.8" transform="translate(-287.154 -20.855)" fill="#e0e0e0"/>
        <rect id="Rectangle_2263" data-name="Rectangle 2263" width="2.847" height="24.889" transform="matrix(0.97, 0.244, -0.244, 0.97, 69.484, 278.506)" fill="#263238"/>
        <rect id="Rectangle_2264" data-name="Rectangle 2264" width="2.847" height="12.713" transform="matrix(0.97, 0.244, -0.244, 0.97, 79.115, 280.962)" fill="#263238"/>
        <rect id="Rectangle_2265" data-name="Rectangle 2265" width="2.847" height="12.713" transform="matrix(0.97, 0.244, -0.244, 0.97, 106.795, 287.948)" fill="#263238"/>
        <rect id="Rectangle_2266" data-name="Rectangle 2266" width="2.847" height="24.889" transform="matrix(0.97, 0.244, -0.244, 0.97, 118.983, 291.013)" fill="#263238"/>
        <path id="Path_1873" data-name="Path 1873" d="M371.085,296.064c-.209,0,1.908-9.136,4.724-20.284s5.246-20.15,5.455-20.09-1.893,9.121-4.71,20.284S371.293,296.109,371.085,296.064Z" transform="translate(-286.703 -30.116)" fill="#263238"/>
        <path id="Path_1874" data-name="Path 1874" d="M390.875,301.059c-.209,0,1.893-9.136,4.71-20.284s5.261-20.15,5.47-20.105-1.908,9.136-4.724,20.284S391.068,301.1,390.875,301.059Z" transform="translate(-276.998 -27.674)" fill="#263238"/>
        <path id="Path_1875" data-name="Path 1875" d="M416.6,286.314a8.067,8.067,0,0,1-1.49,0h-.775l-.939.1-1.073.134-1.177.313a10.88,10.88,0,0,0-5.127,3.2,13.547,13.547,0,0,0-3.294,7v.4l-.373-.1L388.383,293.9l-15.634-3.994h-.328v-.328a14.7,14.7,0,0,0-.134-7.184,15.577,15.577,0,0,0-2.4-5.067,21.106,21.106,0,0,0-3.428-3.577,5.691,5.691,0,0,1,1.118.7,13.947,13.947,0,0,1,2.638,2.638,15.44,15.44,0,0,1,2.608,5.157,15.067,15.067,0,0,1,.268,7.452l-.253-.4,15.664,3.89,13.935,3.562-.432.3a13.95,13.95,0,0,1,3.562-7.333,11.267,11.267,0,0,1,5.484-3.16l1.237-.268,1.1-.074.954-.075h.8A5.965,5.965,0,0,1,416.6,286.314Z" transform="translate(-288.964 -21.26)" fill="#263238"/>
        <path id="Path_1876" data-name="Path 1876" d="M374.586,284.485c0,.119-1.058,0-2.668.358a12.564,12.564,0,0,0-9.479,7.646c-.626,1.49-.775,2.548-.909,2.519a5.485,5.485,0,0,1,.4-2.712,11.73,11.73,0,0,1,3.771-5.455,11.923,11.923,0,0,1,6.14-2.549,5.38,5.38,0,0,1,2.742.194Z" transform="translate(-291.396 -16.137)" fill="#263238"/>
        <path id="Path_1877" data-name="Path 1877" d="M398.451,305.861c-.119,0,.134-1.148.134-2.981a15.47,15.47,0,0,0-1.595-6.811,15.262,15.262,0,0,0-4.471-5.35c-1.49-1.088-2.5-1.49-2.459-1.669a6.708,6.708,0,0,1,2.772,1.222,13.89,13.89,0,0,1,6.334,12.623,6.677,6.677,0,0,1-.715,2.966Z" transform="translate(-277.391 -13.757)" fill="#263238"/>
      </g>
      <g id="freepik--Device--inject-2" transform="translate(232.763 123.985)">
        <path id="Path_1878" data-name="Path 1878" d="M395.75,646.951l-187.532-.864a40.851,40.851,0,0,1-40.657-41.015l1.982-470.15A40.866,40.866,0,0,1,210.587,94.25l187.532.864a40.836,40.836,0,0,1,40.657,41.015l-1.982,470.135a40.866,40.866,0,0,1-41.045,40.687Z" transform="translate(-167.56 -94.25)" fill="#263238"/>
        <path id="Path_1879" data-name="Path 1879" d="M392.676,103.945l-36.365-.179a9.047,9.047,0,0,0-8.868,9.2v6.587a9.032,9.032,0,0,1-8.868,9.2l-70.867-.328a9.046,9.046,0,0,1-8.793-9.27v-6.6a9.046,9.046,0,0,0-8.793-9.27H237.336l-31.819-.134a28.615,28.615,0,0,0-28.749,28.481l-1.937,458.9a28.615,28.615,0,0,0,28.57,28.675l187.16.864a28.6,28.6,0,0,0,28.734-28.481l1.922-458.838a28.6,28.6,0,0,0-28.54-28.794Z" transform="translate(-163.995 -89.89)" fill="#fafafa"/>
        <path id="Path_1880" data-name="Path 1880" d="M193.622,138.782a.775.775,0,0,1-.537-.238l-2.847-2.981a.686.686,0,0,1-.209-.522.73.73,0,0,1,.224-.522l2.861-2.727a.73.73,0,0,1,1.043,0,.745.745,0,0,1,0,1.058l-2.325,2.206,2.34,2.444a.745.745,0,0,1,0,1.058.775.775,0,0,1-.551.224Z" transform="translate(-156.541 -75.948)" fill="#263238"/>
        <rect id="Rectangle_2267" data-name="Rectangle 2267" width="202.779" height="52.356" rx="16.12" transform="translate(35.054 450.641)" fill="#0e99e5"/>
        <path id="Path_1881" data-name="Path 1881" d="M242.93,410.112h4.71a5.8,5.8,0,1,1,0,11.58h-4.71Zm4.65,10.522a4.739,4.739,0,1,0,0-9.464h-3.428v9.464Z" transform="translate(-130.601 60.634)" fill="#fafafa"/>
        <path id="Path_1882" data-name="Path 1882" d="M251.4,416.064a6.081,6.081,0,1,1,6.1,5.887,5.812,5.812,0,0,1-6.1-5.887Zm10.939,0a4.873,4.873,0,1,0-4.844,4.8,4.68,4.68,0,0,0,4.844-4.8Z" transform="translate(-126.449 60.479)" fill="#fafafa"/>
        <path id="Path_1883" data-name="Path 1883" d="M271.067,410.11v11.58h-1l-7.452-9.389v9.389H261.38V410.11h1.013l7.452,9.389V410.11Z" transform="translate(-121.554 60.636)" fill="#fafafa"/>
        <path id="Path_1884" data-name="Path 1884" d="M278.592,420.632v1.058H270.41V410.11h7.929v1.058h-6.707v4.113h5.961v1.043h-5.961v4.307Z" transform="translate(-117.126 60.636)" fill="#fafafa"/>
        <path id="Path_1885" data-name="Path 1885" d="M209.965,292.118c0,2.1-1.49,3.383-4.039,3.383h-2.668v3.13H202.2V288.72h3.726C208.445,288.705,209.965,289.972,209.965,292.118Zm-1.043,0c0-1.595-1.043-2.5-2.981-2.5H203.3v4.963h2.638C207.863,294.562,208.922,293.608,208.922,292.118Z" transform="translate(-150.574 1.111)" fill="#263238"/>
        <path id="Path_1886" data-name="Path 1886" d="M215.642,290.36v7.452h-.969v-1.356a2.981,2.981,0,0,1-2.683,1.49,2.891,2.891,0,0,1-3.145-3.2V290.42h1.013v4.218c0,1.595.82,2.4,2.236,2.4a2.429,2.429,0,0,0,2.534-2.712v-3.9Z" transform="translate(-147.324 1.915)" fill="#263238"/>
        <path id="Path_1887" data-name="Path 1887" d="M219.046,290.324v1.013h-.238a2.414,2.414,0,0,0-2.519,2.742v3.8h-1v-7.452h.954v1.49a2.832,2.832,0,0,1,2.8-1.595Z" transform="translate(-144.155 1.892)" fill="#263238"/>
        <path id="Path_1888" data-name="Path 1888" d="M218.471,294.109a3.681,3.681,0,0,1,3.845-3.786,3.249,3.249,0,0,1,2.981,1.49l-.76.507a2.534,2.534,0,0,0-2.161-1.1,2.981,2.981,0,0,0,0,5.812,2.519,2.519,0,0,0,2.161-1.088l.76.507a3.309,3.309,0,0,1-2.981,1.49,3.7,3.7,0,0,1-3.845-3.83Z" transform="translate(-142.596 1.893)" fill="#263238"/>
        <path id="Path_1889" data-name="Path 1889" d="M231.121,294.495v4.322h-1.013V294.6a2.086,2.086,0,0,0-2.236-2.385,2.444,2.444,0,0,0-2.608,2.7v3.9H224.25V288.31h1.013v4.352a3.145,3.145,0,0,1,2.787-1.356,2.862,2.862,0,0,1,3.07,3.189Z" transform="translate(-139.761 0.91)" fill="#263238"/>
        <path id="Path_1890" data-name="Path 1890" d="M236.53,293.223v4.62h-.969v-1.163A2.8,2.8,0,0,1,233,297.918c-1.684,0-2.727-.879-2.727-2.176s.745-2.1,2.876-2.1h2.37v-.462c0-1.267-.715-1.967-2.116-1.967a3.815,3.815,0,0,0-2.474.879l-.447-.745a4.679,4.679,0,0,1,2.981-1.013,2.653,2.653,0,0,1,3.07,2.891Zm-1.013,2.385v-1.282h-2.34c-1.49,0-1.908.566-1.908,1.326s.686,1.416,1.878,1.416a2.414,2.414,0,0,0,2.37-1.461Z" transform="translate(-136.809 1.884)" fill="#263238"/>
        <path id="Path_1891" data-name="Path 1891" d="M235.61,296.982l.447-.79a4.561,4.561,0,0,0,2.653.835c1.416,0,2-.492,2-1.222,0-1.937-4.829-.417-4.829-3.353,0-1.222,1.043-2.131,2.981-2.131a4.934,4.934,0,0,1,2.623.7l-.432.8a3.756,3.756,0,0,0-2.191-.641c-1.356,0-1.952.522-1.952,1.237,0,2.012,4.829.492,4.829,3.353,0,1.3-1.133,2.131-3.07,2.131A5.009,5.009,0,0,1,235.61,296.982Z" transform="translate(-134.191 1.895)" fill="#263238"/>
        <path id="Path_1892" data-name="Path 1892" d="M247.665,294.419h-6.23a2.772,2.772,0,0,0,2.981,2.593,2.981,2.981,0,0,0,2.28-.984l.566.656a3.935,3.935,0,0,1-6.781-2.578,3.592,3.592,0,0,1,3.636-3.786,3.547,3.547,0,0,1,3.607,3.786A.733.733,0,0,0,247.665,294.419Zm-6.23-.76h5.291a2.653,2.653,0,0,0-5.291,0Z" transform="translate(-131.804 1.896)" fill="#263238"/>
        <path id="Path_1893" data-name="Path 1893" d="M260.536,290.36l-2.817,7.452h-.939l-2.34-6.111-2.355,6.111h-.954l-2.8-7.452h1l2.325,6.334,2.4-6.334h.864l2.385,6.334,2.37-6.334Z" transform="translate(-127.953 1.915)" fill="#263238"/>
        <path id="Path_1894" data-name="Path 1894" d="M263.215,293.222v4.62h-.954V296.68a2.832,2.832,0,0,1-2.563,1.237c-1.684,0-2.727-.879-2.727-2.176s.745-2.1,2.876-2.1h2.37v-.462c0-1.267-.715-1.967-2.116-1.967a3.815,3.815,0,0,0-2.474.879l-.447-.745a4.679,4.679,0,0,1,2.981-1.013,2.653,2.653,0,0,1,3.055,2.891Zm-1,2.385v-1.282h-2.34c-1.49,0-1.908.566-1.908,1.326s.686,1.416,1.878,1.416a2.414,2.414,0,0,0,2.37-1.461Z" transform="translate(-123.716 1.885)" fill="#263238"/>
        <path id="Path_1895" data-name="Path 1895" d="M262.31,296.982l.447-.79a4.56,4.56,0,0,0,2.653.835c1.416,0,2-.492,2-1.222,0-1.937-4.829-.417-4.829-3.353,0-1.222,1.043-2.131,2.981-2.131a5,5,0,0,1,2.638.7l-.432.8a3.77,3.77,0,0,0-2.206-.641c-1.341,0-1.937.522-1.937,1.237,0,2.012,4.829.492,4.829,3.353,0,1.3-1.133,2.131-3.07,2.131A4.963,4.963,0,0,1,262.31,296.982Z" transform="translate(-121.098 1.896)" fill="#263238"/>
        <path id="Path_1896" data-name="Path 1896" d="M269.45,296.982l.447-.79a4.561,4.561,0,0,0,2.653.835c1.49,0,2-.492,2-1.222,0-1.937-4.829-.417-4.829-3.353,0-1.222,1.043-2.131,2.981-2.131a4.934,4.934,0,0,1,2.623.7l-.432.8a3.756,3.756,0,0,0-2.191-.641c-1.356,0-1.952.522-1.952,1.237,0,2.012,4.844.492,4.844,3.353,0,1.3-1.148,2.131-3.085,2.131a4.963,4.963,0,0,1-3.055-.924Z" transform="translate(-117.597 1.896)" fill="#263238"/>
        <path id="Path_1897" data-name="Path 1897" d="M281.542,290.36v7.452h-.969v-1.356a2.981,2.981,0,0,1-2.683,1.49,2.891,2.891,0,0,1-3.145-3.2V290.42h1.013v4.218c0,1.595.82,2.4,2.236,2.4a2.429,2.429,0,0,0,2.534-2.712v-3.9Z" transform="translate(-115.009 1.915)" fill="#263238"/>
        <path id="Path_1898" data-name="Path 1898" d="M280.691,294.109a3.666,3.666,0,0,1,3.83-3.786,3.249,3.249,0,0,1,2.981,1.49l-.745.507a2.578,2.578,0,0,0-2.176-1.1,2.981,2.981,0,0,0,0,5.812,2.564,2.564,0,0,0,2.176-1.088l.745.507a3.308,3.308,0,0,1-2.981,1.49,3.681,3.681,0,0,1-3.83-3.83Z" transform="translate(-112.086 1.893)" fill="#263238"/>
        <path id="Path_1899" data-name="Path 1899" d="M286,294.109a3.681,3.681,0,0,1,3.845-3.786,3.249,3.249,0,0,1,2.981,1.49l-.76.507a2.533,2.533,0,0,0-2.161-1.1,2.981,2.981,0,0,0,0,5.812,2.519,2.519,0,0,0,2.161-1.088l.76.507a3.309,3.309,0,0,1-2.981,1.49,3.7,3.7,0,0,1-3.845-3.83Z" transform="translate(-109.482 1.893)" fill="#263238"/>
        <path id="Path_1900" data-name="Path 1900" d="M298.445,294.419h-6.23a2.757,2.757,0,0,0,2.981,2.593,2.981,2.981,0,0,0,2.28-.984l.581.656a3.949,3.949,0,0,1-6.8-2.578,3.634,3.634,0,1,1,7.258,0A.573.573,0,0,0,298.445,294.419Zm-6.23-.76h5.276a2.638,2.638,0,0,0-5.276,0Z" transform="translate(-106.904 1.896)" fill="#263238"/>
        <path id="Path_1901" data-name="Path 1901" d="M296.77,296.982l.462-.79a4.471,4.471,0,0,0,2.653.835c1.416,0,2-.492,2-1.222,0-1.937-4.844-.417-4.844-3.353,0-1.222,1.058-2.131,2.981-2.131a5,5,0,0,1,2.638.7l-.432.8a3.815,3.815,0,0,0-2.206-.641c-1.341,0-1.937.522-1.937,1.237,0,2.012,4.829.492,4.829,3.353,0,1.3-1.133,2.131-3.07,2.131A5.023,5.023,0,0,1,296.77,296.982Z" transform="translate(-104.2 1.896)" fill="#263238"/>
        <path id="Path_1902" data-name="Path 1902" d="M301.42,296.982l.462-.79a4.471,4.471,0,0,0,2.653.835c1.416,0,2-.492,2-1.222,0-1.937-4.844-.417-4.844-3.353,0-1.222,1.058-2.131,2.981-2.131a5,5,0,0,1,2.638.7l-.432.8a3.815,3.815,0,0,0-2.206-.641c-1.341,0-1.937.522-1.937,1.237,0,2.012,4.829.492,4.829,3.353,0,1.3-1.133,2.131-3.07,2.131a5.023,5.023,0,0,1-3.07-.924Z" transform="translate(-101.92 1.896)" fill="#263238"/>
        <path id="Path_1903" data-name="Path 1903" d="M308.3,290.514v.879h2.3v.85h-2.265v6.6h-1.013v-6.6H306v-.85h1.326v-.924a2.042,2.042,0,0,1,2.25-2.206,2.37,2.37,0,0,1,1.49.462l-.343.76a1.625,1.625,0,0,0-1.1-.373C308.742,289.113,308.3,289.59,308.3,290.514Z" transform="translate(-99.674 0.882)" fill="#263238"/>
        <path id="Path_1904" data-name="Path 1904" d="M316.742,290.36v7.452h-.969v-1.356a2.981,2.981,0,0,1-2.683,1.49,2.891,2.891,0,0,1-3.145-3.2V290.42h1.014v4.218c0,1.595.82,2.4,2.236,2.4a2.429,2.429,0,0,0,2.534-2.712v-3.9Z" transform="translate(-97.748 1.915)" fill="#263238"/>
        <path id="Path_1905" data-name="Path 1905" d="M316.39,288.31H317.4v10.507H316.39Z" transform="translate(-94.579 0.91)" fill="#263238"/>
        <path id="Path_1906" data-name="Path 1906" d="M213.564,264.791h-6.3V261.81h16.126v2.981h-6.3v16.021h-3.517Z" transform="translate(-148.092 -12.084)" fill="#0e99e5"/>
        <path id="Path_1907" data-name="Path 1907" d="M233.9,272.9v8.316H230.52v-7.869c0-2.578-1.282-3.83-3.443-3.83-2.414,0-4.054,1.49-4.054,4.367v7.333H219.64V261.05h3.383v7.377a6.483,6.483,0,0,1,4.829-1.848C231.324,266.52,233.9,268.5,233.9,272.9Z" transform="translate(-142.022 -12.457)" fill="#0e99e5"/>
        <path id="Path_1908" data-name="Path 1908" d="M244.57,270.872v8.5h-3.189v-1.774a5.142,5.142,0,0,1-4.561,1.952c-3.309,0-5.41-1.818-5.41-4.337s1.639-4.307,6.036-4.307h3.786v-.224c0-1.982-1.192-3.145-3.607-3.145a7.153,7.153,0,0,0-4.471,1.49l-1.326-2.459a10.15,10.15,0,0,1,6.125-1.8C242.156,264.7,244.57,266.684,244.57,270.872Zm-3.338,3.95v-1.669h-3.5c-2.31,0-2.981.864-2.981,1.923s1.043,2.012,2.772,2.012a3.681,3.681,0,0,0,3.711-2.265Z" transform="translate(-136.25 -10.64)" fill="#0e99e5"/>
        <path id="Path_1909" data-name="Path 1909" d="M257.428,271.092v8.316h-3.4v-7.869c0-2.578-1.267-3.83-3.443-3.83-2.414,0-4.039,1.49-4.039,4.367v7.333h-3.4v-14.5h3.234v1.878a6.319,6.319,0,0,1,4.993-2.042C254.849,264.713,257.428,266.7,257.428,271.092Z" transform="translate(-130.493 -10.651)" fill="#0e99e5"/>
        <path id="Path_1910" data-name="Path 1910" d="M261.537,274.97l-2.519,2.4v3.83h-3.4V261.05h3.4V273.2l7.02-6.513h4.069l-6.051,6.081,6.617,8.421h-4.054Z" transform="translate(-124.378 -12.457)" fill="#0e99e5"/>
        <path id="Path_1911" data-name="Path 1911" d="M286.665,264.83l-6.781,15.664c-1.327,3.279-3.174,4.277-5.589,4.277a5.962,5.962,0,0,1-3.875-1.326l1.356-2.489a3.621,3.621,0,0,0,2.489,1c1.192,0,1.908-.566,2.548-2.012l.253-.566-6.319-14.546h3.517l4.561,10.716,4.59-10.716Z" transform="translate(-117.121 -10.604)" fill="#0e99e5"/>
        <path id="Path_1912" data-name="Path 1912" d="M281.662,272.318a7.72,7.72,0,1,1,7.705,7.452,7.3,7.3,0,0,1-7.705-7.452Zm12.027,0a4.307,4.307,0,1,0-4.322,4.471,4.233,4.233,0,0,0,4.322-4.471Z" transform="translate(-111.611 -10.849)" fill="#0e99e5"/>
        <path id="Path_1913" data-name="Path 1913" d="M308.274,264.83v14.5h-3.234v-1.848a5.962,5.962,0,0,1-4.665,2.027c-3.726,0-6.245-2.027-6.245-6.394V264.83h3.4v7.824c0,2.623,1.237,3.875,3.383,3.875s3.964-1.49,3.964-4.367V264.83Z" transform="translate(-105.495 -10.604)" fill="#0e99e5"/>
        <path id="Path_1914" data-name="Path 1914" d="M306.18,278.875a2.116,2.116,0,1,1,.646,1.523A2.1,2.1,0,0,1,306.18,278.875Zm.194-17.065h4.009l-.671,12.7h-2.7Z" transform="translate(-99.586 -12.084)" fill="#0e99e5"/>
        <circle id="Ellipse_129" data-name="Ellipse 129" cx="39.018" cy="39.018" r="39.018" transform="translate(98.782 143.269)" fill="#0e99e5"/>
        <path id="Path_1915" data-name="Path 1915" d="M284.685,205.514c.492.4-6.8,10.209-16.275,21.893l-5.753,6.975-.79.954-.835-.864c-7.452-7.646-12.474-13.309-12.117-13.667s6.036,4.695,13.667,12.1l-1.61.164,5.634-7.049C276.085,214.263,284.178,205.112,284.685,205.514Z" transform="translate(-127.675 -39.696)" fill="#fff"/>
        <path id="Path_1916" data-name="Path 1916" d="M299.343,207.22c-1.163-4.1-6.483-3.7-6.483-3.7l.134,2.847c3.085-.537,4.993,3.07,4.993,3.07Z" transform="translate(-106.117 -40.671)" fill="#0e99e5"/>
        <path id="Path_1917" data-name="Path 1917" d="M223.5,213c-1.148-4.1-6.483-3.711-6.483-3.711l.149,2.862c3.085-.537,4.993,3.07,4.993,3.07Z" transform="translate(-143.306 -37.842)" fill="#e0e0e0"/>
        <path id="Path_1918" data-name="Path 1918" d="M263.714,176.162c6.185,1.878,10.03-5.246,10.03-5.246l-3.756-2.146c-1.848,4.367-8.018,3.86-8.018,3.86Z" transform="translate(-121.265 -57.708)" fill="#e0e0e0"/>
        <path id="Path_1919" data-name="Path 1919" d="M241.189,178.88c-2.876.313-3.219,3.92-3.219,3.92l1.923.224c0-2.116,2.638-2.981,2.638-2.981Z" transform="translate(-133.033 -52.75)" fill="#0e99e5"/>
        <path id="Path_1920" data-name="Path 1920" d="M320.881,197.949c.417-2.862-2.981-4.1-2.981-4.1l-.7,1.8c2.057.522,2.25,3.294,2.25,3.294Z" transform="translate(-94.182 -45.409)" fill="#e0e0e0"/>
        <path id="Path_1921" data-name="Path 1921" d="M252.6,154.958c.417-2.861-2.981-4.1-2.981-4.1l-.7,1.818c2.057.522,2.251,3.279,2.251,3.279Z" transform="translate(-127.664 -66.49)" fill="#0e99e5"/>
        <path id="Path_1922" data-name="Path 1922" d="M203.72,185.2c-.507,4.471,5.425,5.574,5.425,5.574l1.073-2.981c-3.562-.328-4.069-4.471-4.069-4.471Z" transform="translate(-149.843 -50.573)" fill="#0e99e5"/>
        <path id="Path_1923" data-name="Path 1923" d="M292.843,174.945c2.891.164,3.815-3.338,3.815-3.338l-1.863-.537c-.343,2.086-3.085,2.519-3.085,2.519Z" transform="translate(-106.681 -56.58)" fill="#0e99e5"/>
        <path id="Path_1924" data-name="Path 1924" d="M304.629,181.648a6.691,6.691,0,0,1-2.385.224,6.617,6.617,0,0,1-2.385-.224A12.043,12.043,0,0,1,304.629,181.648Z" transform="translate(-102.685 -51.51)" fill="#e0e0e0"/>
        <path id="Path_1925" data-name="Path 1925" d="M304.838,177.22a13.144,13.144,0,0,1,0,4.829,12.341,12.341,0,0,1,0-4.829Z" transform="translate(-100.36 -53.564)" fill="#e0e0e0"/>
        <path id="Path_1926" data-name="Path 1926" d="M306.56,181.542a6.692,6.692,0,0,1,2.385-.224,6.618,6.618,0,0,1,2.385.224A12.042,12.042,0,0,1,306.56,181.542Z" transform="translate(-99.399 -51.567)" fill="#e0e0e0"/>
        <path id="Path_1927" data-name="Path 1927" d="M304.948,187.414a12.414,12.414,0,0,1,0-4.844A13.233,13.233,0,0,1,304.948,187.414Z" transform="translate(-100.306 -50.941)" fill="#e0e0e0"/>
        <path id="Path_1928" data-name="Path 1928" d="M308.014,184.67c-.089.075-.551-.313-1.028-.864s-.76-1.088-.671-1.163.566.3,1.028.864S308.119,184.506,308.014,184.67Z" transform="translate(-99.527 -50.91)" fill="#e0e0e0"/>
        <path id="Path_1929" data-name="Path 1929" d="M307.884,179c.089.1-.224.566-.715,1.058s-.954.82-1.043.73.224-.566.715-1.058A2.774,2.774,0,0,1,307.884,179Z" transform="translate(-99.62 -52.691)" fill="#e0e0e0"/>
        <path id="Path_1930" data-name="Path 1930" d="M304.2,180.733c-.089.1-.536-.134-1-.522s-.76-.775-.686-.864.522.134.984.507S304.272,180.643,304.2,180.733Z" transform="translate(-101.389 -52.531)" fill="#e0e0e0"/>
        <path id="Path_1931" data-name="Path 1931" d="M304.02,182.455c.1.075-.179.537-.626,1.028s-.879.8-.969.715.179-.551.626-1.028S303.931,182.365,304.02,182.455Z" transform="translate(-101.435 -51.004)" fill="#e0e0e0"/>
        <path id="Path_1932" data-name="Path 1932" d="M217.509,172.732a12.043,12.043,0,0,1-4.769,0,6.692,6.692,0,0,1,2.385-.224A6.618,6.618,0,0,1,217.509,172.732Z" transform="translate(-145.405 -55.887)" fill="#0e99e5"/>
        <path id="Path_1933" data-name="Path 1933" d="M217.718,168.3a12.416,12.416,0,0,1,0,4.844A12.415,12.415,0,0,1,217.718,168.3Z" transform="translate(-143.081 -57.938)" fill="#0e99e5"/>
        <path id="Path_1934" data-name="Path 1934" d="M219.45,172.628a12.041,12.041,0,0,1,4.769,0A12.043,12.043,0,0,1,219.45,172.628Z" transform="translate(-142.115 -55.933)" fill="#0e99e5"/>
        <path id="Path_1935" data-name="Path 1935" d="M217.828,178.489a12.339,12.339,0,0,1,0-4.829A12.34,12.34,0,0,1,217.828,178.489Z" transform="translate(-143.027 -55.31)" fill="#0e99e5"/>
        <path id="Path_1936" data-name="Path 1936" d="M220.906,175.671c-.1.089-.566-.3-1.028-.864s-.775-1.073-.671-1.162.551.313,1.028.864S221,175.671,220.906,175.671Z" transform="translate(-142.244 -55.324)" fill="#0e99e5"/>
        <path id="Path_1937" data-name="Path 1937" d="M220.774,170.111c.089.089-.238.566-.715,1.058s-.954.8-1.043.715.224-.551.715-1.043S220.684,169.962,220.774,170.111Z" transform="translate(-142.336 -57.066)" fill="#0e99e5"/>
        <path id="Path_1938" data-name="Path 1938" d="M217.074,171.829c-.074.089-.522-.134-.984-.522s-.775-.775-.686-.879.522.134.984.522S217.164,171.725,217.074,171.829Z" transform="translate(-144.106 -56.907)" fill="#0e99e5"/>
        <path id="Path_1939" data-name="Path 1939" d="M216.916,173.535c.089.089-.194.551-.626,1.043s-.879.8-.984.715.194-.551.626-1.028S216.812,173.445,216.916,173.535Z" transform="translate(-144.157 -55.378)" fill="#0e99e5"/>
        <path id="Path_1940" data-name="Path 1940" d="M333.549,131.194a73.025,73.025,0,0,1-10.537.387,72.65,72.65,0,0,1-10.522-.387,70.2,70.2,0,0,1,10.522-.387,70.48,70.48,0,0,1,10.537.387Z" transform="translate(-96.491 -76.349)" fill="#263238"/>
        <path id="Path_1941" data-name="Path 1941" d="M333.549,134.143a70.479,70.479,0,0,1-10.537.387,70.2,70.2,0,0,1-10.522-.387,72.652,72.652,0,0,1,10.522-.388A73.031,73.031,0,0,1,333.549,134.143Z" transform="translate(-96.491 -74.9)" fill="#263238"/>
        <path id="Path_1942" data-name="Path 1942" d="M333.549,137.073a70.483,70.483,0,0,1-10.537.387,70.2,70.2,0,0,1-10.522-.387,72.657,72.657,0,0,1,10.522-.387,73.023,73.023,0,0,1,10.537.387Z" transform="translate(-96.491 -73.464)" fill="#263238"/>
        <rect id="Rectangle_2268" data-name="Rectangle 2268" width="49.078" height="61.954" transform="translate(162.964 424.297) rotate(-179.55)" fill="#ebebeb"/>
        <path id="Path_1943" data-name="Path 1943" d="M267.179,338.63,266.3,398.6l-7.75-.06,1.669-59.972Z" transform="translate(-122.942 25.556)" fill="#fafafa"/>
        <path id="Path_1944" data-name="Path 1944" d="M225.532,338.3l28.153.224,49.078.387-49.122,6.453-.417,53.146-28.153-.224Z" transform="translate(-139.359 25.423)" fill="#e0e0e0"/>
        <path id="Path_1945" data-name="Path 1945" d="M238.789,338.4l-1.118,59.987-8.361-.075,1.371-59.972Z" transform="translate(-137.28 25.443)" fill="#fafafa"/>
        <path id="Path_1946" data-name="Path 1946" d="M258.309,332.525c0,.387-.82.775-2.325,1.148a38.6,38.6,0,0,1-11.133.8,18.312,18.312,0,0,1-2.608-.283,21.18,21.18,0,0,1-2.861-.611,8.689,8.689,0,0,1-1.774-.76,5.692,5.692,0,0,1-1.863-1.759,5.231,5.231,0,0,1-.8-2.7,8.944,8.944,0,0,1,.238-2.086,36.262,36.262,0,0,1,1.878-6.215,16.735,16.735,0,0,1,1.8-3.16,13.42,13.42,0,0,1,1.207-1.49,9.225,9.225,0,0,1,1.639-1.326,6.618,6.618,0,0,1,2.221-.894,5.872,5.872,0,0,1,2.549.075,8.286,8.286,0,0,1,3.353,1.848,27.542,27.542,0,0,1,6.453,7.914,19.375,19.375,0,0,1,2.161,6.453c.194,1.61,0,2.519-.358,2.593-.79.194-1.937-2.981-5.067-6.945a31.938,31.938,0,0,0-6.3-5.961,3.7,3.7,0,0,0-1.49-.73.536.536,0,0,0-.268,0,1.966,1.966,0,0,0-.417.224,4.874,4.874,0,0,0-.626.551c-.224.253-.477.566-.7.879a12.163,12.163,0,0,0-1.177,2.146,41.749,41.749,0,0,0-1.684,5.261,3.729,3.729,0,0,0-.149.775h-.149c-.179,0-.224.089-.1,0l.179-.134a.537.537,0,0,0,.134.134,3.724,3.724,0,0,0,.7.358,19.38,19.38,0,0,0,2.191.656c.76.209,1.49.373,2.25.522,1.49.3,2.876.507,4.173.686,2.608.343,4.784.581,6.289.864S258.294,332.152,258.309,332.525Z" transform="translate(-134.519 13.061)" fill="#e0e0e0"/>
        <path id="Path_1947" data-name="Path 1947" d="M250.059,333.787c-.134-.775,3.532-1.923,9.255-3.607a78.715,78.715,0,0,0,9.658-3.458,9.793,9.793,0,0,0,2.1-1.162c.224-.194.328-.358.3-.343s0,.224-.074.119a5.968,5.968,0,0,0-.343-.864l-.715-1.49a23.857,23.857,0,0,0-1.49-2.668A11.059,11.059,0,0,0,267,318.228a9.5,9.5,0,0,0-.984-.79,4.382,4.382,0,0,0-.894-.477,2.22,2.22,0,0,0-1.49-.134,4.739,4.739,0,0,0-1.729,1,37.677,37.677,0,0,0-6.707,7.288c-3.294,4.68-4.158,8.331-4.978,8.212-.358,0-.626-1.043-.492-2.847a20.48,20.48,0,0,1,2.116-7.3,32.15,32.15,0,0,1,6.722-9.151,9.673,9.673,0,0,1,3.488-2.191,7.451,7.451,0,0,1,4.859,0,10.025,10.025,0,0,1,2.042,1.013,12.353,12.353,0,0,1,1.654,1.252,15.629,15.629,0,0,1,2.683,3.13,25.667,25.667,0,0,1,1.833,3.324l.715,1.58a8.824,8.824,0,0,1,.73,2.25,5.068,5.068,0,0,1-.551,3.249,6.081,6.081,0,0,1-1.818,2.012,13.7,13.7,0,0,1-3.353,1.669,50.589,50.589,0,0,1-10.746,2.578C253.964,334.726,250.149,334.5,250.059,333.787Z" transform="translate(-127.283 12.246)" fill="#ebebeb"/>
        <rect id="Rectangle_2269" data-name="Rectangle 2269" width="72.134" height="20.507" transform="translate(149.402 364.196) rotate(-179.55)" fill="#e0e0e0"/>
        <rect id="Rectangle_2270" data-name="Rectangle 2270" width="65.203" height="20.507" transform="translate(168.988 364.345) rotate(-179.55)" fill="#ebebeb"/>
        <path id="Path_1948" data-name="Path 1948" d="M270.273,324.89l-.462,20.6-7.6-.149.537-20.507Z" transform="translate(-121.147 18.818)" fill="#fafafa"/>
        <path id="Path_1949" data-name="Path 1949" d="M234.366,324.719l-.745,20.418-8.361-.074.447-20.522Z" transform="translate(-139.266 18.676)" fill="#fafafa"/>
        <rect id="Rectangle_2271" data-name="Rectangle 2271" width="27.81" height="35.098" transform="translate(194.867 423.002) rotate(-179.55)" fill="#ebebeb"/>
        <path id="Path_1950" data-name="Path 1950" d="M292.788,355.23l-.492,34-4.4-.03.939-34Z" transform="translate(-108.549 33.71)" fill="#fafafa"/>
        <path id="Path_1951" data-name="Path 1951" d="M269.183,355.05l15.962.119,27.81.224-27.84,3.666-.238,30.105-15.947-.119Z" transform="translate(-117.852 33.637)" fill="#e0e0e0"/>
        <path id="Path_1952" data-name="Path 1952" d="M276.7,355.115l-.626,33.98-4.739-.03.775-34Z" transform="translate(-116.675 33.647)" fill="#fafafa"/>
        <path id="Path_1953" data-name="Path 1953" d="M287.877,351.856c0,.522-1.818,1.148-5.008,1.49a18.184,18.184,0,0,1-5.827-.477,3.934,3.934,0,0,1-2.25-1.49,3.4,3.4,0,0,1-.522-1.714,5.829,5.829,0,0,1,.134-1.282,21,21,0,0,1,1.088-3.592,10.623,10.623,0,0,1,1.058-1.863,6.6,6.6,0,0,1,1.788-1.729,3.9,3.9,0,0,1,2.981-.507,5.261,5.261,0,0,1,2.042,1.133,15.4,15.4,0,0,1,3.666,4.62c1.49,2.981,1.282,5.2.79,5.276s-1.3-1.625-3.1-3.786a18.811,18.811,0,0,0-3.562-3.294,1.816,1.816,0,0,0-.671-.343h0l-.1.075a3.233,3.233,0,0,0-.641.715,5.958,5.958,0,0,0-.626,1.148,22.357,22.357,0,0,0-.939,2.981l-.089.343h-.462a1.059,1.059,0,0,0,.268-.238l.089-.089h0a1.491,1.491,0,0,0,.328.179,25.984,25.984,0,0,0,4.784,1.118C285.925,350.962,287.877,351.3,287.877,351.856Z" transform="translate(-115.233 26.547)" fill="#e0e0e0"/>
        <path id="Path_1954" data-name="Path 1954" d="M283.14,352.658c-.1-.6,1.967-1.386,5.157-2.444a52.447,52.447,0,0,0,5.365-2.042,4.964,4.964,0,0,0,1.058-.611c.089-.075.089-.134,0,0a.894.894,0,0,0-.1.417l-.551-1.163a14.288,14.288,0,0,0-.82-1.49,5.024,5.024,0,0,0-.894-1.073,2.982,2.982,0,0,0-.879-.626.715.715,0,0,0-.462,0,1.834,1.834,0,0,0-.8.447,22.666,22.666,0,0,0-3.8,3.935c-1.923,2.519-2.549,4.546-3.16,4.471s-.984-2.474.566-5.961a17.883,17.883,0,0,1,3.815-5.38,6.065,6.065,0,0,1,2.146-1.371,4.694,4.694,0,0,1,3.1,0,5.666,5.666,0,0,1,1.282.611,8.673,8.673,0,0,1,1.013.775,9.448,9.448,0,0,1,1.609,1.863,18.618,18.618,0,0,1,1.073,1.952l.4.909a5.573,5.573,0,0,1,.462,1.49,3.4,3.4,0,0,1-.388,2.191,4.144,4.144,0,0,1-1.177,1.312,8.106,8.106,0,0,1-2.027,1,27.17,27.17,0,0,1-6.215,1.371C285.42,353.478,283.259,353.21,283.14,352.658Z" transform="translate(-111.092 26.013)" fill="#e0e0e0"/>
        <rect id="Rectangle_2272" data-name="Rectangle 2272" width="40.881" height="11.625" transform="translate(187.167 388.962) rotate(-179.55)" fill="#e0e0e0"/>
        <rect id="Rectangle_2273" data-name="Rectangle 2273" width="36.946" height="11.625" transform="translate(198.286 389.038) rotate(-179.55)" fill="#ebebeb"/>
        <path id="Path_1955" data-name="Path 1955" d="M294.545,347.45l-.253,11.67-4.322-.089.313-11.61Z" transform="translate(-107.534 29.895)" fill="#fafafa"/>
        <path id="Path_1956" data-name="Path 1956" d="M274.2,347.354l-.417,11.565-4.739-.03.253-11.64Z" transform="translate(-117.798 29.812)" fill="#fafafa"/>
      </g>
      <g id="freepik--Plant--inject-2" transform="translate(576.509 576.374)">
        <path id="Path_1957" data-name="Path 1957" d="M426.4,397.818a18.5,18.5,0,0,1,9.583,10.85,32.519,32.519,0,0,1,1.267,14.71c-1.073,9.538-6.5,19.166-12.325,26.827-8.033-7-9.881-19.241-10.433-25.5-.864-9.9,3.577-28.317,11.923-26.827" transform="translate(-390.27 -397.793)" fill="#0e99e5"/>
        <path id="Path_1958" data-name="Path 1958" d="M427.822,450.053a15.768,15.768,0,0,1,5.1-14.993,20.866,20.866,0,0,1,15.44-4.829c2.563.194,5.321.939,6.781,2.981a6.736,6.736,0,0,1,.1,6.841,13.607,13.607,0,0,1-5.052,4.978c-6.96,4.367-14.5,7.318-22.355,4.963" transform="translate(-383.835 -381.932)" fill="#0e99e5"/>
        <path id="Path_1959" data-name="Path 1959" d="M420.81,476.186a11.392,11.392,0,0,1,.283-1.952c.253-1.386.581-3.16.969-5.306a55.424,55.424,0,0,1,5.47-16.916,33.906,33.906,0,0,1,12.146-12.907,23.151,23.151,0,0,1,4.948-2.191,12.644,12.644,0,0,1,1.49-.373c.388-.089.507-.089.507,0A31.4,31.4,0,0,0,428.2,452.4a59.418,59.418,0,0,0-5.589,16.692c-.492,2.221-.894,4.024-1.192,5.246a11.239,11.239,0,0,1-.611,1.848Z" transform="translate(-387.121 -378.824)" fill="#263238"/>
        <path id="Path_1960" data-name="Path 1960" d="M421.132,407.42a3.652,3.652,0,0,1,.1.864c0,.626.089,1.49.149,2.459.1,2.131.238,5.216.358,9.047.238,7.646.432,18.212.388,29.807s-.328,22.236-.656,29.882c-.149,3.83-.3,6.915-.432,9.046-.075,1.013-.119,1.818-.164,2.459h0c.1-.849-.149.551-.149,0v-2.474c0-2.221.119-5.291.209-9.047.194-7.646.4-18.2.462-29.807s-.074-22.221-.194-29.807c0-3.756-.1-6.841-.149-9.061v-2.459A6.492,6.492,0,0,1,421.132,407.42Z" transform="translate(-387.161 -393.072)" fill="#263238"/>
        <path id="Path_1961" data-name="Path 1961" d="M428.3,456.716a36.931,36.931,0,0,0-20.15-27.02c-2.683-1.282-6.185-2.131-8.391-.134s-1.729,5.589-.641,8.376a31.536,31.536,0,0,0,28.988,19.569" transform="translate(-398.206 -382.798)" fill="#0e99e5"/>
        <path id="Path_1962" data-name="Path 1962" d="M405.751,435.33a9.223,9.223,0,0,1,1.714.745,16.964,16.964,0,0,1,1.922,1.028,26.272,26.272,0,0,1,2.444,1.49,30.863,30.863,0,0,1,2.817,2.116,34.864,34.864,0,0,1,2.981,2.712,40.9,40.9,0,0,1,5.678,7.288,40.241,40.241,0,0,1,3.726,8.45,33.906,33.906,0,0,1,.954,3.92,29.63,29.63,0,0,1,.477,3.472c.149,1.073.089,2.042.134,2.891a16.372,16.372,0,0,1,0,2.191,9.961,9.961,0,0,1-.209,1.848c-.164,0,.1-2.653-.358-6.871a33.165,33.165,0,0,0-.551-3.428c-.224-1.222-.611-2.5-1-3.845a40.945,40.945,0,0,0-3.726-8.272,42.011,42.011,0,0,0-5.529-7.2,37.277,37.277,0,0,0-2.891-2.727c-.924-.835-1.878-1.49-2.727-2.146C408.105,436.567,405.676,435.464,405.751,435.33Z" transform="translate(-394.507 -379.386)" fill="#263238"/>
      </g>
    </g>
  </g>
</svg>
