<svg xmlns="http://www.w3.org/2000/svg" width="62.512" height="51.692" viewBox="0 0 62.512 51.692">
  <g id="Group_4906" data-name="Group 4906" transform="translate(-5119.475 -796.769)">
    <g id="Group_4899" data-name="Group 4899" transform="translate(5119.475 796.769)">
      <g id="Group_4898" data-name="Group 4898" transform="translate(0)">
        <path id="Path_1681" data-name="Path 1681" d="M-314.2,351.33h16.83v-7.814a9.026,9.026,0,0,0-9.016-9.016h-44.479a9.026,9.026,0,0,0-9.016,9.016v33.66a9.026,9.026,0,0,0,9.016,9.016h44.479a9.026,9.026,0,0,0,9.016-9.016v-7.814H-314.2a9.026,9.026,0,0,1-9.016-9.016A9.026,9.026,0,0,1-314.2,351.33Z" transform="translate(359.878 -334.5)" fill="#434c83"/>
      </g>
    </g>
    <g id="Group_4901" data-name="Group 4901" transform="translate(5159.747 817.206)">
      <g id="Group_4900" data-name="Group 4900" transform="translate(0)">
        <path id="Path_1682" data-name="Path 1682" d="M-223.195,401.116a5.416,5.416,0,0,0-5.409,5.41,5.416,5.416,0,0,0,5.409,5.41h16.83V401.116h-16.83Zm2.4,7.213h-2.4a1.8,1.8,0,0,1-1.8-1.8,1.8,1.8,0,0,1,1.8-1.8h2.4a1.8,1.8,0,0,1,1.8,1.8A1.8,1.8,0,0,1-220.79,408.329Z" transform="translate(228.604 -401.116)" fill="#434c83"/>
      </g>
    </g>
  </g>
</svg>
